M48
; DRILL file {KiCad 9.0.7} date 2026-01-29T15:09:51+0200
; FORMAT={-:-/ absolute / metric / decimal}
; #@! TF.CreationDate,2026-01-29T15:09:51+02:00
; #@! TF.GenerationSoftware,Kicad,Pcbnew,9.0.7
; #@! TF.FileFunction,Plated,1,6,PTH
FMAT,2
METRIC
; #@! TA.AperFunction,Plated,PTH,ViaDrill
T1C0.300
; #@! TA.AperFunction,Plated,PTH,ComponentDrill
T2C0.300
; #@! TA.AperFunction,Plated,PTH,ViaDrill
T3C0.400
; #@! TA.AperFunction,Plated,PTH,ComponentDrill
T4C0.500
; #@! TA.AperFunction,Plated,PTH,ViaDrill
T5C0.600
; #@! TA.AperFunction,Plated,PTH,ComponentDrill
T6C0.650
; #@! TA.AperFunction,Plated,PTH,ComponentDrill
T7C1.000
; #@! TA.AperFunction,Plated,PTH,ComponentDrill
T8C1.020
; #@! TA.AperFunction,Plated,PTH,ComponentDrill
T9C1.780
; #@! TA.AperFunction,Plated,PTH,ComponentDrill
T10C1.900
; #@! TA.AperFunction,Plated,PTH,ComponentDrill
T11C3.200
%
G90
G05
T1
X77.4Y-81.6
X77.415Y-70.835
X77.45Y-60.1
X78.469Y-80.607
X78.479Y-69.917
X78.489Y-59.197
X78.6Y-62.8
X79.48Y-83.61
X79.49Y-72.92
X79.56Y-126.15
X79.9Y-141.1
X79.92Y-138.06
X79.94Y-135.06
X80.09Y-153.21
X80.1Y-151.2
X80.188Y-40.7
X80.487Y-29.237
X80.987Y-40.8
X81.2Y-124.8
X81.537Y-33.1
X81.737Y-38.55
X81.737Y-41.7
X81.794Y-135.04
X81.794Y-141.01
X81.794Y-151.2
X82.0Y-122.19
X82.237Y-37.05
X82.4Y-120.7
X82.562Y-30.125
X82.598Y-138.9
X82.598Y-152.315
X82.619Y-59.255
X82.745Y-69.882
X82.78Y-80.61
X82.958Y-38.639
X82.97Y-126.1
X82.989Y-41.2
X83.35Y-135.1
X83.36Y-141.06
X83.43Y-151.08
X83.438Y-32.35
X83.441Y-39.338
X83.755Y-80.882
X83.8Y-119.4
X83.866Y-123.434
X84.0Y-53.8
X84.0Y-54.8
X84.0Y-55.8
X84.0Y-64.6
X84.0Y-65.6
X84.0Y-66.6
X84.0Y-75.3
X84.0Y-76.3
X84.0Y-77.3
X84.0Y-122.19
X84.024Y-68.999
X84.3Y-61.05
X84.3Y-71.7
X84.5Y-54.3
X84.5Y-55.3
X84.5Y-58.3
X84.5Y-65.1
X84.5Y-66.1
X84.5Y-75.8
X84.5Y-76.8
X84.8Y-40.1
X84.87Y-140.48
X84.9Y-80.0
X84.9Y-81.4
X84.91Y-139.2
X84.997Y-123.348
X85.0Y-53.8
X85.0Y-54.8
X85.0Y-55.8
X85.0Y-64.6
X85.0Y-65.6
X85.0Y-66.6
X85.0Y-69.3
X85.0Y-75.3
X85.0Y-76.3
X85.0Y-77.3
X85.04Y-70.8
X85.05Y-60.05
X85.2Y-43.0
X85.45Y-39.411
X85.787Y-32.575
X85.91Y-152.82
X85.91Y-136.697
X85.987Y-31.2
X86.087Y-33.475
X86.12Y-39.809
X86.2Y-123.4
X86.475Y-38.662
X86.68Y-153.18
X86.98Y-80.11
X86.99Y-69.42
X87.35Y-135.54
X87.368Y-58.627
X87.75Y-152.59
X88.4Y-119.5
X88.506Y-140.4
X88.546Y-42.426
X89.0Y-118.7
X89.049Y-125.1
X89.083Y-134.97
X89.1Y-45.212
X89.1Y-141.16
X89.177Y-150.95
X89.318Y-42.457
X89.4Y-54.7
X89.4Y-55.7
X89.4Y-65.4
X89.4Y-66.4
X89.5Y-76.0
X89.5Y-77.0
X89.522Y-34.623
X89.6Y-26.4
X89.8Y-140.73
X89.813Y-124.855
X89.9Y-54.2
X89.9Y-55.2
X89.9Y-56.2
X89.9Y-64.9
X89.9Y-65.9
X89.9Y-66.9
X89.96Y-151.08
X90.0Y-75.5
X90.0Y-76.5
X90.0Y-77.5
X90.1Y-42.4
X90.193Y-135.405
X90.4Y-54.7
X90.4Y-55.7
X90.4Y-65.4
X90.4Y-66.4
X90.5Y-76.0
X90.5Y-77.0
X90.52Y-141.19
X90.579Y-134.762
X90.594Y-34.6
X90.6Y-119.3
X90.804Y-150.705
X90.9Y-54.2
X90.9Y-55.2
X90.9Y-56.2
X90.9Y-64.9
X90.9Y-65.9
X90.9Y-66.9
X90.932Y-42.31
X90.94Y-125.0
X90.98Y-134.05
X90.98Y-142.18
X90.98Y-149.93
X91.0Y-75.5
X91.0Y-76.5
X91.0Y-77.5
X91.08Y-126.12
X91.175Y-30.275
X91.4Y-54.7
X91.4Y-55.7
X91.4Y-65.4
X91.4Y-66.4
X91.5Y-76.0
X91.5Y-77.0
X91.7Y-62.55
X91.882Y-45.489
X92.38Y-30.5
X92.732Y-42.146
X93.296Y-41.51
X93.746Y-34.3
X93.81Y-30.59
X94.55Y-113.012
X94.6Y-39.975
X94.7Y-49.01
X96.55Y-113.012
X97.0Y-45.6
X97.05Y-30.25
X97.144Y-37.7
X97.144Y-40.0
X98.0Y-28.8
X98.4Y-44.7
X98.5Y-39.4
X98.966Y-149.854
X98.997Y-133.816
X99.01Y-126.14
X99.03Y-142.13
X99.1Y-134.65
X99.158Y-150.682
X99.199Y-125.293
X99.38Y-37.92
X99.4Y-45.4
X99.47Y-141.238
X99.711Y-46.15
X100.035Y-151.16
X100.05Y-140.73
X100.06Y-135.25
X100.1Y-39.6
X100.14Y-124.943
X100.83Y-150.86
X100.85Y-141.12
X100.923Y-135.0
X101.0Y-125.05
X101.34Y-140.48
X102.13Y-153.965
X102.27Y-124.81
X102.4Y-46.8
X102.67Y-135.54
X104.16Y-151.53
X104.62Y-135.88
X104.72Y-124.8
X104.72Y-139.32
X106.25Y-151.03
X106.3Y-117.5
X106.38Y-140.98
X106.619Y-134.866
X106.836Y-125.314
X106.87Y-121.6
X106.97Y-126.1
X107.015Y-118.18
X107.258Y-118.995
X107.532Y-136.72
X107.532Y-153.01
X108.21Y-151.08
X108.24Y-140.21
X108.27Y-134.92
X109.108Y-136.523
X109.21Y-141.11
X109.53Y-153.1
X109.91Y-151.09
X109.95Y-120.65
X110.02Y-134.95
X110.25Y-126.03
X110.41Y-137.976
X112.2Y-138.7
X118.6Y-47.2
X119.355Y-48.395
X123.312Y-65.831
X123.5Y-65.1
X124.1Y-55.1
X124.3Y-64.4
X125.4Y-71.2
X126.0Y-55.1
X126.3Y-70.8
X127.0Y-50.8
X127.0Y-52.4
X127.2Y-61.3
X127.3Y-69.7
X128.64Y-59.92
X128.69Y-54.13
X129.82Y-56.82
T2
X79.055Y-74.947
X79.055Y-76.248
X79.055Y-77.547
X79.055Y-78.847
X79.055Y-80.147
X79.065Y-64.257
X79.065Y-65.557
X79.065Y-66.858
X79.065Y-68.157
X79.065Y-69.457
X79.075Y-53.537
X79.075Y-54.837
X79.075Y-56.137
X79.075Y-57.438
X79.075Y-58.737
X79.805Y-75.597
X79.805Y-76.897
X79.805Y-78.197
X79.805Y-79.498
X79.815Y-64.907
X79.815Y-66.207
X79.815Y-67.507
X79.815Y-68.807
X79.825Y-54.188
X79.825Y-55.487
X79.825Y-56.787
X79.825Y-58.087
X80.555Y-74.947
X80.555Y-76.248
X80.555Y-77.547
X80.555Y-78.847
X80.555Y-80.147
X80.565Y-64.257
X80.565Y-65.557
X80.565Y-66.858
X80.565Y-68.157
X80.565Y-69.457
X80.575Y-53.537
X80.575Y-54.837
X80.575Y-56.137
X80.575Y-57.438
X80.575Y-58.737
X81.305Y-75.597
X81.305Y-76.897
X81.305Y-78.197
X81.305Y-79.498
X81.315Y-64.907
X81.315Y-66.207
X81.315Y-67.507
X81.315Y-68.807
X81.325Y-54.188
X81.325Y-55.487
X81.325Y-56.787
X81.325Y-58.087
X82.055Y-74.947
X82.055Y-76.248
X82.055Y-77.547
X82.055Y-78.847
X82.055Y-80.147
X82.065Y-64.257
X82.065Y-65.557
X82.065Y-66.858
X82.065Y-68.157
X82.065Y-69.457
X82.075Y-53.537
X82.075Y-54.837
X82.075Y-56.137
X82.075Y-57.438
X82.075Y-58.737
X83.35Y-127.05
X83.35Y-129.0
X83.35Y-131.0
X83.35Y-132.95
X83.35Y-143.05
X83.35Y-145.0
X83.35Y-147.0
X83.35Y-148.95
X84.196Y-128.029
X84.196Y-144.029
X84.2Y-131.975
X84.2Y-147.975
X84.211Y-130.0
X84.211Y-146.0
X85.05Y-127.05
X85.05Y-129.0
X85.05Y-131.0
X85.05Y-132.95
X85.05Y-143.05
X85.05Y-145.0
X85.05Y-147.0
X85.05Y-148.95
X85.9Y-128.037
X85.9Y-130.0
X85.9Y-131.963
X85.9Y-144.037
X85.9Y-146.0
X85.9Y-147.963
X86.75Y-127.05
X86.75Y-129.0
X86.75Y-131.0
X86.75Y-132.95
X86.75Y-143.05
X86.75Y-145.0
X86.75Y-147.0
X86.75Y-148.95
X87.589Y-130.0
X87.589Y-146.0
X87.6Y-128.05
X87.6Y-131.975
X87.6Y-144.05
X87.6Y-147.975
X88.45Y-127.05
X88.45Y-129.0
X88.45Y-131.0
X88.45Y-132.95
X88.45Y-143.05
X88.45Y-145.0
X88.45Y-147.0
X88.45Y-148.95
X88.594Y-36.938
X88.594Y-37.938
X88.594Y-38.938
X88.594Y-39.938
X89.25Y-127.05
X89.25Y-129.0
X89.25Y-131.0
X89.25Y-132.95
X89.25Y-143.05
X89.25Y-145.0
X89.25Y-147.0
X89.25Y-148.95
X89.594Y-36.938
X89.594Y-37.938
X89.594Y-38.938
X89.594Y-39.938
X89.95Y-128.025
X89.95Y-130.0
X89.95Y-131.975
X89.95Y-144.025
X89.95Y-146.0
X89.95Y-147.975
X90.594Y-36.938
X90.594Y-37.938
X90.594Y-38.938
X90.594Y-39.938
X90.65Y-127.05
X90.65Y-129.0
X90.65Y-131.0
X90.65Y-132.95
X90.65Y-143.05
X90.65Y-145.0
X90.65Y-147.0
X90.65Y-148.95
X91.594Y-36.938
X91.594Y-37.938
X91.594Y-38.938
X91.594Y-39.938
X99.35Y-127.05
X99.35Y-129.0
X99.35Y-131.0
X99.35Y-132.95
X99.35Y-143.05
X99.35Y-145.0
X99.35Y-147.0
X99.35Y-148.95
X100.05Y-128.025
X100.05Y-130.0
X100.05Y-131.975
X100.05Y-144.025
X100.05Y-146.0
X100.05Y-147.975
X100.75Y-127.05
X100.75Y-129.0
X100.75Y-131.0
X100.75Y-132.95
X100.75Y-143.05
X100.75Y-145.0
X100.75Y-147.0
X100.75Y-148.95
X101.55Y-127.05
X101.55Y-129.0
X101.55Y-131.0
X101.55Y-132.95
X101.55Y-143.05
X101.55Y-145.0
X101.55Y-147.0
X101.55Y-148.95
X102.4Y-128.025
X102.4Y-131.95
X102.4Y-144.025
X102.4Y-147.95
X102.411Y-130.0
X102.411Y-146.0
X103.25Y-127.05
X103.25Y-129.0
X103.25Y-131.0
X103.25Y-132.95
X103.25Y-143.05
X103.25Y-145.0
X103.25Y-147.0
X103.25Y-148.95
X104.1Y-128.037
X104.1Y-130.0
X104.1Y-131.963
X104.1Y-144.037
X104.1Y-146.0
X104.1Y-147.963
X104.95Y-127.05
X104.95Y-129.0
X104.95Y-131.0
X104.95Y-132.95
X104.95Y-143.05
X104.95Y-145.0
X104.95Y-147.0
X104.95Y-148.95
X105.789Y-130.0
X105.789Y-146.0
X105.8Y-128.025
X105.8Y-144.025
X105.804Y-131.971
X105.804Y-147.971
X106.65Y-127.05
X106.65Y-129.0
X106.65Y-131.0
X106.65Y-132.95
X106.65Y-143.05
X106.65Y-145.0
X106.65Y-147.0
X106.65Y-148.95
T3
X52.0Y-25.0
X52.0Y-33.0
X53.0Y-58.0
X53.0Y-66.0
X53.0Y-69.1
X53.0Y-70.1
X53.0Y-71.1
X53.0Y-74.0
X53.1Y-60.0
X53.1Y-61.0
X53.1Y-62.0
X54.0Y-60.0
X54.0Y-61.0
X54.0Y-62.0
X54.0Y-69.1
X54.0Y-70.1
X54.0Y-71.1
X54.9Y-50.7
X55.0Y-44.2
X55.0Y-45.2
X55.0Y-46.2
X55.6Y-56.3
X56.9Y-55.2
X57.0Y-50.7
X58.2Y-56.3
X58.6Y-35.2
X58.6Y-36.3
X58.6Y-37.4
X60.1Y-40.3
X60.1Y-45.3
X61.0Y-25.0
X61.1Y-34.65
X62.35Y-34.65
X63.35Y-45.3
X63.45Y-40.3
X63.65Y-34.7
X65.2Y-34.7
X66.2Y-45.3
X66.25Y-40.35
X67.58Y-79.285
X67.59Y-80.95
X67.7Y-50.0
X67.7Y-52.1
X67.75Y-59.5
X67.75Y-61.0
X67.75Y-70.25
X67.75Y-71.75
X68.25Y-60.25
X68.25Y-71.0
X68.58Y-79.335
X68.59Y-81.0
X68.7Y-50.0
X68.7Y-52.1
X68.75Y-59.5
X68.75Y-61.0
X68.75Y-70.25
X68.75Y-71.75
X68.8Y-40.35
X69.25Y-60.25
X69.25Y-71.0
X69.45Y-41.55
X69.55Y-34.7
X69.58Y-79.335
X69.59Y-81.0
X69.7Y-50.0
X69.7Y-52.1
X69.75Y-59.5
X69.75Y-61.0
X69.75Y-70.25
X69.75Y-71.75
X70.25Y-60.25
X70.25Y-71.0
X70.35Y-41.55
X70.58Y-79.335
X70.59Y-81.0
X70.75Y-59.5
X70.75Y-61.0
X70.75Y-70.25
X70.75Y-71.75
X70.8Y-52.1
X70.9Y-50.0
X71.2Y-41.55
X71.2Y-42.5
X71.2Y-43.6
X71.2Y-44.6
X71.25Y-60.25
X71.25Y-71.0
X71.58Y-79.335
X71.59Y-81.0
X71.75Y-59.5
X71.75Y-61.0
X71.75Y-70.25
X71.75Y-71.75
X71.8Y-50.0
X71.8Y-52.1
X72.25Y-60.25
X72.25Y-71.0
X72.58Y-79.335
X72.59Y-81.0
X72.6Y-52.1
X72.75Y-59.5
X72.75Y-61.0
X72.75Y-70.25
X72.75Y-71.75
X72.8Y-50.0
X74.195Y-72.827
X74.205Y-62.137
X74.3Y-51.1
X75.195Y-72.827
X75.205Y-62.137
X75.25Y-51.1
X76.08Y-72.81
X80.58Y-73.11
X100.75Y-50.75
X100.75Y-60.0
X100.75Y-61.5
X100.75Y-70.75
X100.75Y-72.25
X100.75Y-81.5
X101.25Y-49.9
X101.25Y-60.75
X101.25Y-71.5
X101.25Y-82.25
X101.75Y-50.75
X101.75Y-60.0
X101.75Y-61.5
X101.75Y-70.75
X101.75Y-72.25
X101.75Y-81.5
X101.95Y-38.1
X102.15Y-31.95
X102.25Y-49.9
X102.25Y-60.75
X102.25Y-71.5
X102.25Y-82.25
X102.75Y-50.75
X102.75Y-60.0
X102.75Y-61.5
X102.75Y-70.75
X102.75Y-72.25
X102.75Y-81.5
X103.25Y-49.9
X103.25Y-60.75
X103.25Y-71.5
X103.25Y-82.25
X103.75Y-50.75
X103.75Y-60.0
X103.75Y-61.5
X103.75Y-70.75
X103.75Y-72.25
X103.75Y-81.5
X104.25Y-49.9
X104.25Y-60.75
X104.25Y-71.5
X104.25Y-82.25
X104.75Y-50.75
X104.75Y-60.0
X104.75Y-61.5
X104.75Y-70.75
X104.75Y-72.25
X104.75Y-81.5
X105.25Y-49.9
X105.25Y-60.75
X105.25Y-71.5
X105.25Y-82.25
X105.75Y-50.75
X105.75Y-60.0
X105.75Y-61.5
X105.75Y-70.75
X105.75Y-72.25
X105.75Y-81.5
X106.25Y-49.9
X106.25Y-60.75
X106.25Y-71.5
X106.25Y-82.25
X106.75Y-50.75
X106.75Y-60.0
X106.75Y-61.5
X106.75Y-70.75
X106.75Y-72.25
X106.75Y-81.5
X107.25Y-49.9
X107.25Y-60.75
X107.25Y-71.5
X107.25Y-82.25
X107.75Y-50.75
X107.75Y-60.0
X107.75Y-61.5
X107.75Y-70.75
X107.75Y-72.25
X107.75Y-81.5
X108.0Y-32.0
X108.0Y-38.1
X108.25Y-49.9
X108.25Y-60.75
X108.25Y-71.5
X108.25Y-82.25
X108.75Y-50.75
X108.75Y-60.0
X108.75Y-61.5
X108.75Y-70.75
X108.75Y-72.25
X108.75Y-81.5
X109.25Y-49.9
X109.75Y-50.75
X110.25Y-49.9
X110.75Y-50.75
X111.25Y-49.9
X111.75Y-50.75
X112.25Y-49.9
X112.75Y-50.75
X114.85Y-38.1
X120.0Y-25.0
X121.0Y-42.0
X122.5Y-54.0
X127.0Y-25.0
X127.0Y-33.0
X127.0Y-41.0
X131.0Y-67.0
X131.0Y-75.0
X131.0Y-83.0
X132.463Y-59.111
X132.55Y-54.29
X133.676Y-54.5
X133.957Y-58.902
X135.176Y-52.1
X135.268Y-56.636
X135.9Y-59.2
X135.926Y-54.256
X136.989Y-60.819
X137.176Y-54.456
X138.8Y-53.0
X139.0Y-25.0
X139.0Y-33.0
X139.0Y-41.0
X139.0Y-49.0
X139.0Y-67.0
X139.0Y-83.0
T4
X52.6Y-28.0
X52.6Y-78.0
X52.6Y-185.025
X53.303Y-26.303
X53.303Y-29.697
X53.303Y-76.303
X53.303Y-79.697
X53.303Y-183.328
X53.303Y-186.722
X55.0Y-25.6
X55.0Y-30.4
X55.0Y-75.6
X55.0Y-80.4
X55.0Y-182.625
X55.0Y-187.425
X56.697Y-26.303
X56.697Y-29.697
X56.697Y-76.303
X56.697Y-79.697
X56.697Y-183.328
X56.697Y-186.722
X57.4Y-28.0
X57.4Y-78.0
X57.4Y-185.025
X133.6Y-28.0
X133.6Y-78.0
X133.6Y-185.025
X134.303Y-26.303
X134.303Y-29.697
X134.303Y-76.303
X134.303Y-79.697
X134.303Y-183.328
X134.303Y-186.722
X136.0Y-25.6
X136.0Y-30.4
X136.0Y-75.6
X136.0Y-80.4
X136.0Y-182.625
X136.0Y-187.425
X137.697Y-26.303
X137.697Y-29.697
X137.697Y-76.303
X137.697Y-79.697
X137.697Y-183.328
X137.697Y-186.722
X138.4Y-28.0
X138.4Y-78.0
X138.4Y-185.025
T5
X110.5Y-55.5
X110.5Y-57.0
X110.5Y-58.5
X110.5Y-60.0
X110.5Y-61.5
X110.5Y-63.0
X110.5Y-64.5
X110.5Y-66.0
X110.5Y-71.5
X110.5Y-73.0
X110.5Y-74.5
X110.5Y-76.0
X110.5Y-77.5
X110.5Y-79.0
X110.5Y-80.5
X110.5Y-82.0
X112.0Y-55.5
X112.0Y-57.0
X112.0Y-58.5
X112.0Y-60.0
X112.0Y-61.5
X112.0Y-63.0
X112.0Y-64.5
X112.0Y-66.0
X112.0Y-71.5
X112.0Y-73.0
X112.0Y-74.5
X112.0Y-76.0
X112.0Y-77.5
X112.0Y-79.0
X112.0Y-80.5
X112.0Y-82.0
X113.5Y-55.5
X113.5Y-57.0
X113.5Y-58.5
X113.5Y-60.0
X113.5Y-61.5
X113.5Y-63.0
X113.5Y-64.5
X113.5Y-66.0
X113.5Y-71.5
X113.5Y-73.0
X113.5Y-74.5
X113.5Y-76.0
X113.5Y-77.5
X113.5Y-79.0
X113.5Y-80.5
X113.5Y-82.0
X115.0Y-55.5
X115.0Y-57.0
X115.0Y-58.5
X115.0Y-60.0
X115.0Y-61.5
X115.0Y-63.0
X115.0Y-64.5
X115.0Y-66.0
X115.0Y-67.5
X115.0Y-70.0
X115.0Y-71.5
X115.0Y-73.0
X115.0Y-74.5
X115.0Y-76.0
X115.0Y-77.5
X115.0Y-79.0
X115.0Y-80.5
X115.0Y-82.0
X116.5Y-55.5
X116.5Y-57.0
X116.5Y-58.5
X116.5Y-60.0
X116.5Y-61.5
X116.5Y-63.0
X116.5Y-64.5
X116.5Y-66.0
X116.5Y-67.5
X116.5Y-70.0
X116.5Y-71.5
X116.5Y-73.0
X116.5Y-74.5
X116.5Y-76.0
X116.5Y-77.5
X116.5Y-79.0
X116.5Y-80.5
X116.5Y-82.0
X118.0Y-55.5
X118.0Y-57.0
X118.0Y-58.5
X118.0Y-60.0
X118.0Y-61.5
X118.0Y-63.0
X118.0Y-64.5
X118.0Y-66.0
X118.0Y-67.5
X118.0Y-70.0
X118.0Y-71.5
X118.0Y-73.0
X118.0Y-74.5
X118.0Y-76.0
X118.0Y-77.5
X118.0Y-79.0
X118.0Y-80.5
X118.0Y-82.0
T6
X123.525Y-62.9
X124.795Y-62.9
X126.065Y-62.9
X127.335Y-62.9
X128.605Y-62.9
X129.875Y-62.9
T7
X59.6Y-27.0
X70.6Y-27.0
X88.31Y-25.25
X88.31Y-48.17
X90.85Y-25.25
X90.85Y-48.17
X93.39Y-25.25
X93.39Y-48.17
X95.93Y-25.25
X95.93Y-48.17
X98.47Y-25.25
X98.47Y-48.17
X101.01Y-25.25
X101.01Y-48.17
X103.55Y-25.25
X103.55Y-48.17
X106.09Y-25.25
X106.09Y-48.17
X108.63Y-25.25
X108.63Y-48.17
X111.17Y-25.25
X111.17Y-48.17
X113.71Y-25.25
X113.71Y-48.17
X116.25Y-25.25
X116.25Y-48.17
T8
X75.5Y-28.1
X75.5Y-30.64
X75.5Y-33.18
X75.5Y-35.72
X75.5Y-39.9
X75.5Y-42.44
X75.5Y-44.98
X75.5Y-47.52
T9
X61.7Y-42.84
X61.7Y-52.76
X65.1Y-42.84
X65.1Y-52.76
T10
X62.6Y-37.0
X67.6Y-37.0
T11
X55.0Y-28.0
X55.0Y-78.0
X55.0Y-185.025
X136.0Y-28.0
X136.0Y-78.0
X136.0Y-185.025
M30
