G04 #@! TF.GenerationSoftware,KiCad,Pcbnew,9.0.7*
G04 #@! TF.CreationDate,2026-01-21T15:48:53+02:00*
G04 #@! TF.ProjectId,nerdqaxe++,6e657264-7161-4786-952b-2b2e6b696361,rev?*
G04 #@! TF.SameCoordinates,Original*
G04 #@! TF.FileFunction,Soldermask,Top*
G04 #@! TF.FilePolarity,Negative*
%FSLAX46Y46*%
G04 Gerber Fmt 4.6, Leading zero omitted, Abs format (unit mm)*
G04 Created by KiCad (PCBNEW 9.0.7) date 2026-01-21 15:48:53*
%MOMM*%
%LPD*%
G01*
G04 APERTURE LIST*
G04 Aperture macros list*
%AMRoundRect*
0 Rectangle with rounded corners*
0 $1 Rounding radius*
0 $2 $3 $4 $5 $6 $7 $8 $9 X,Y pos of 4 corners*
0 Add a 4 corners polygon primitive as box body*
4,1,4,$2,$3,$4,$5,$6,$7,$8,$9,$2,$3,0*
0 Add four circle primitives for the rounded corners*
1,1,$1+$1,$2,$3*
1,1,$1+$1,$4,$5*
1,1,$1+$1,$6,$7*
1,1,$1+$1,$8,$9*
0 Add four rect primitives between the rounded corners*
20,1,$1+$1,$2,$3,$4,$5,0*
20,1,$1+$1,$4,$5,$6,$7,0*
20,1,$1+$1,$6,$7,$8,$9,0*
20,1,$1+$1,$8,$9,$2,$3,0*%
G04 Aperture macros list end*
%ADD10C,0.000000*%
%ADD11RoundRect,0.225000X0.250000X-0.225000X0.250000X0.225000X-0.250000X0.225000X-0.250000X-0.225000X0*%
%ADD12RoundRect,0.225000X-0.250000X0.225000X-0.250000X-0.225000X0.250000X-0.225000X0.250000X0.225000X0*%
%ADD13RoundRect,0.135000X-0.185000X0.135000X-0.185000X-0.135000X0.185000X-0.135000X0.185000X0.135000X0*%
%ADD14RoundRect,0.140000X-0.140000X-0.170000X0.140000X-0.170000X0.140000X0.170000X-0.140000X0.170000X0*%
%ADD15RoundRect,0.140000X0.140000X0.170000X-0.140000X0.170000X-0.140000X-0.170000X0.140000X-0.170000X0*%
%ADD16RoundRect,0.055250X-0.055250X0.340750X-0.055250X-0.340750X0.055250X-0.340750X0.055250X0.340750X0*%
%ADD17R,1.840000X6.300000*%
%ADD18R,5.520000X6.300000*%
%ADD19RoundRect,0.140000X-0.170000X0.140000X-0.170000X-0.140000X0.170000X-0.140000X0.170000X0.140000X0*%
%ADD20RoundRect,0.250000X-0.262500X-0.450000X0.262500X-0.450000X0.262500X0.450000X-0.262500X0.450000X0*%
%ADD21RoundRect,0.250000X-0.650000X0.325000X-0.650000X-0.325000X0.650000X-0.325000X0.650000X0.325000X0*%
%ADD22RoundRect,0.135000X0.185000X-0.135000X0.185000X0.135000X-0.185000X0.135000X-0.185000X-0.135000X0*%
%ADD23RoundRect,0.250000X1.500000X1.000000X-1.500000X1.000000X-1.500000X-1.000000X1.500000X-1.000000X0*%
%ADD24C,0.800000*%
%ADD25C,6.400000*%
%ADD26RoundRect,0.062500X0.062500X-0.375000X0.062500X0.375000X-0.062500X0.375000X-0.062500X-0.375000X0*%
%ADD27RoundRect,0.062500X0.375000X-0.062500X0.375000X0.062500X-0.375000X0.062500X-0.375000X-0.062500X0*%
%ADD28R,4.150000X4.150000*%
%ADD29RoundRect,0.050000X-0.225000X0.237500X-0.225000X-0.237500X0.225000X-0.237500X0.225000X0.237500X0*%
%ADD30RoundRect,0.050000X-0.225000X0.075000X-0.225000X-0.075000X0.225000X-0.075000X0.225000X0.075000X0*%
%ADD31RoundRect,0.050000X0.400000X1.400000X-0.400000X1.400000X-0.400000X-1.400000X0.400000X-1.400000X0*%
%ADD32R,3.500000X3.800000*%
%ADD33RoundRect,0.140000X0.170000X-0.140000X0.170000X0.140000X-0.170000X0.140000X-0.170000X-0.140000X0*%
%ADD34C,1.700000*%
%ADD35RoundRect,0.250000X0.650000X-0.325000X0.650000X0.325000X-0.650000X0.325000X-0.650000X-0.325000X0*%
%ADD36RoundRect,0.250000X0.262500X0.450000X-0.262500X0.450000X-0.262500X-0.450000X0.262500X-0.450000X0*%
%ADD37C,5.000000*%
%ADD38RoundRect,0.225000X0.225000X0.250000X-0.225000X0.250000X-0.225000X-0.250000X0.225000X-0.250000X0*%
%ADD39RoundRect,0.250000X0.900000X-1.000000X0.900000X1.000000X-0.900000X1.000000X-0.900000X-1.000000X0*%
%ADD40C,2.000000*%
%ADD41C,4.000000*%
%ADD42RoundRect,0.127000X0.373000X0.023000X-0.373000X0.023000X-0.373000X-0.023000X0.373000X-0.023000X0*%
%ADD43R,0.500000X0.300000*%
%ADD44RoundRect,0.127000X0.078000X1.273000X-0.078000X1.273000X-0.078000X-1.273000X0.078000X-1.273000X0*%
%ADD45RoundRect,0.127000X-0.373000X-0.023000X0.373000X-0.023000X0.373000X0.023000X-0.373000X0.023000X0*%
%ADD46R,0.410000X6.300000*%
%ADD47R,3.400000X5.639000*%
%ADD48RoundRect,0.150000X-0.150000X0.512500X-0.150000X-0.512500X0.150000X-0.512500X0.150000X0.512500X0*%
%ADD49C,1.100000*%
%ADD50R,2.030000X1.730000*%
%ADD51O,2.030000X1.730000*%
%ADD52RoundRect,0.225000X-0.225000X-0.250000X0.225000X-0.250000X0.225000X0.250000X-0.225000X0.250000X0*%
%ADD53RoundRect,0.135000X-0.135000X-0.185000X0.135000X-0.185000X0.135000X0.185000X-0.135000X0.185000X0*%
%ADD54RoundRect,0.135000X0.135000X0.185000X-0.135000X0.185000X-0.135000X-0.185000X0.135000X-0.185000X0*%
%ADD55RoundRect,0.055250X0.055250X-0.340750X0.055250X0.340750X-0.055250X0.340750X-0.055250X-0.340750X0*%
%ADD56R,0.599999X0.240000*%
%ADD57R,0.240000X0.599999*%
%ADD58C,0.499999*%
%ADD59R,2.000001X1.000000*%
%ADD60R,0.300000X0.800000*%
%ADD61RoundRect,0.087500X0.725000X0.087500X-0.725000X0.087500X-0.725000X-0.087500X0.725000X-0.087500X0*%
%ADD62RoundRect,0.225000X0.225000X0.375000X-0.225000X0.375000X-0.225000X-0.375000X0.225000X-0.375000X0*%
%ADD63C,2.780000*%
%ADD64C,3.000000*%
G04 APERTURE END LIST*
D10*
G36*
X55143073Y-127441133D02*
G01*
X55164319Y-127449757D01*
X55211807Y-127469311D01*
X55282757Y-127498645D01*
X55374390Y-127536605D01*
X55483927Y-127582039D01*
X55608590Y-127633794D01*
X55745598Y-127690718D01*
X55892173Y-127751658D01*
X55982166Y-127789094D01*
X56132413Y-127851599D01*
X56274189Y-127910567D01*
X56404796Y-127964876D01*
X56521534Y-128013405D01*
X56621701Y-128055031D01*
X56702599Y-128088631D01*
X56761527Y-128113084D01*
X56795785Y-128127268D01*
X56803422Y-128130401D01*
X56810151Y-128126491D01*
X56815254Y-128106688D01*
X56818915Y-128067921D01*
X56821317Y-128007118D01*
X56822640Y-127921209D01*
X56823069Y-127807123D01*
X56823070Y-127799503D01*
X56823593Y-127699661D01*
X56825055Y-127610890D01*
X56827299Y-127537836D01*
X56830166Y-127485146D01*
X56833496Y-127457467D01*
X56834858Y-127454469D01*
X56851203Y-127458799D01*
X56894463Y-127473408D01*
X56962173Y-127497394D01*
X57051870Y-127529850D01*
X57161091Y-127569873D01*
X57287370Y-127616557D01*
X57428245Y-127668999D01*
X57581251Y-127726292D01*
X57743925Y-127787533D01*
X57813293Y-127813742D01*
X58779939Y-128179362D01*
X58784012Y-128974421D01*
X58784692Y-129129183D01*
X58785109Y-129274001D01*
X58785271Y-129405916D01*
X58785184Y-129521969D01*
X58784856Y-129619203D01*
X58784292Y-129694657D01*
X58783499Y-129745375D01*
X58782485Y-129768396D01*
X58782182Y-129769480D01*
X58767463Y-129762699D01*
X58726864Y-129743108D01*
X58662685Y-129711836D01*
X58577223Y-129670011D01*
X58472775Y-129618761D01*
X58351639Y-129559214D01*
X58216114Y-129492498D01*
X58068497Y-129419742D01*
X57911087Y-129342074D01*
X57811462Y-129292876D01*
X56846647Y-128816273D01*
X56842480Y-129269300D01*
X56840629Y-129412062D01*
X56837965Y-129529529D01*
X56834548Y-129620365D01*
X56830435Y-129683235D01*
X56825686Y-129716804D01*
X56822581Y-129722326D01*
X56807595Y-129714449D01*
X56767491Y-129691557D01*
X56704136Y-129654761D01*
X56619396Y-129605171D01*
X56515138Y-129543898D01*
X56393230Y-129472052D01*
X56255537Y-129390743D01*
X56103927Y-129301082D01*
X55940267Y-129204179D01*
X55766423Y-129101145D01*
X55584263Y-128993089D01*
X55395652Y-128881123D01*
X55202459Y-128766356D01*
X55006549Y-128649900D01*
X54809789Y-128532864D01*
X54614047Y-128416358D01*
X54421189Y-128301494D01*
X54233082Y-128189381D01*
X54051593Y-128081130D01*
X53878589Y-127977851D01*
X53715935Y-127880655D01*
X53565500Y-127790652D01*
X53429150Y-127708953D01*
X53308752Y-127636667D01*
X53206173Y-127574905D01*
X53123279Y-127524778D01*
X53061937Y-127487396D01*
X53024015Y-127463869D01*
X53011498Y-127455508D01*
X53008268Y-127445604D01*
X53027216Y-127448566D01*
X53046293Y-127453252D01*
X53092918Y-127464414D01*
X53164040Y-127481334D01*
X53256605Y-127503290D01*
X53367562Y-127529562D01*
X53493858Y-127559431D01*
X53632442Y-127592176D01*
X53780260Y-127627077D01*
X53934262Y-127663414D01*
X54091393Y-127700466D01*
X54248602Y-127737514D01*
X54402838Y-127773838D01*
X54551046Y-127808716D01*
X54690176Y-127841430D01*
X54817176Y-127871259D01*
X54928991Y-127897483D01*
X55022572Y-127919381D01*
X55036518Y-127922638D01*
X55128247Y-127944055D01*
X55116917Y-127685373D01*
X55105588Y-127426692D01*
X55143073Y-127441133D01*
G37*
D11*
X72000000Y-73575000D03*
X72000000Y-72025000D03*
D12*
X73570000Y-68310000D03*
X73570000Y-69860000D03*
D13*
X81250000Y-29690000D03*
X81250000Y-30710000D03*
D14*
X96020000Y-38800000D03*
X96980000Y-38800000D03*
D15*
X133130000Y-59400000D03*
X132170000Y-59400000D03*
D16*
X90500000Y-126084000D03*
X90000000Y-126084000D03*
X89500000Y-126084000D03*
X89000000Y-126084000D03*
X88500000Y-126084000D03*
X88000000Y-126084000D03*
X87500000Y-126084000D03*
X87000000Y-126084000D03*
X86500000Y-126084000D03*
X86000000Y-126084000D03*
X85500000Y-126084000D03*
X85000000Y-126084000D03*
X84500000Y-126084000D03*
X84000000Y-126084000D03*
X83500000Y-126084000D03*
X83500000Y-133916000D03*
X84000000Y-133916000D03*
X84500000Y-133916000D03*
X85000000Y-133916000D03*
X85500000Y-133916000D03*
X86000000Y-133916000D03*
X86500000Y-133916000D03*
X87000000Y-133916000D03*
X87500000Y-133916000D03*
X88000000Y-133916000D03*
X88500000Y-133916000D03*
X89000000Y-133916000D03*
X89500000Y-133916000D03*
X90000000Y-133916000D03*
X90500000Y-133916000D03*
D17*
X89940000Y-130000000D03*
D18*
X85890000Y-130000000D03*
D13*
X80250000Y-29690000D03*
X80250000Y-30710000D03*
X92400000Y-33290000D03*
X92400000Y-34310000D03*
D12*
X74800000Y-57525000D03*
X74800000Y-59075000D03*
D19*
X124250000Y-57020000D03*
X124250000Y-57980000D03*
D20*
X82587500Y-62800000D03*
X84412500Y-62800000D03*
D12*
X75100000Y-77750000D03*
X75100000Y-79300000D03*
D21*
X103800000Y-56525000D03*
X103800000Y-59475000D03*
D22*
X89900000Y-32560000D03*
X89900000Y-31540000D03*
D15*
X137180000Y-53500000D03*
X136220000Y-53500000D03*
D23*
X62750000Y-69250000D03*
X56250000Y-69250000D03*
D22*
X93500000Y-44060000D03*
X93500000Y-43040000D03*
D24*
X133600000Y-78000000D03*
X134302944Y-76302944D03*
X134302944Y-79697056D03*
X136000000Y-75600000D03*
D25*
X136000000Y-78000000D03*
D24*
X136000000Y-80400000D03*
X137697056Y-76302944D03*
X137697056Y-79697056D03*
X138400000Y-78000000D03*
D11*
X76470000Y-73575000D03*
X76470000Y-72025000D03*
D26*
X87843750Y-41375000D03*
X88343750Y-41375000D03*
X88843750Y-41375000D03*
X89343750Y-41375000D03*
X89843750Y-41375000D03*
X90343750Y-41375000D03*
X90843750Y-41375000D03*
X91343750Y-41375000D03*
X91843750Y-41375000D03*
X92343750Y-41375000D03*
D27*
X93031250Y-40687500D03*
X93031250Y-40187500D03*
X93031250Y-39687500D03*
X93031250Y-39187500D03*
X93031250Y-38687500D03*
X93031250Y-38187500D03*
X93031250Y-37687500D03*
X93031250Y-37187500D03*
X93031250Y-36687500D03*
X93031250Y-36187500D03*
D26*
X92343750Y-35500000D03*
X91843750Y-35500000D03*
X91343750Y-35500000D03*
X90843750Y-35500000D03*
X90343750Y-35500000D03*
X89843750Y-35500000D03*
X89343750Y-35500000D03*
X88843750Y-35500000D03*
X88343750Y-35500000D03*
X87843750Y-35500000D03*
D27*
X87156250Y-36187500D03*
X87156250Y-36687500D03*
X87156250Y-37187500D03*
X87156250Y-37687500D03*
X87156250Y-38187500D03*
X87156250Y-38687500D03*
X87156250Y-39187500D03*
X87156250Y-39687500D03*
X87156250Y-40187500D03*
X87156250Y-40687500D03*
D28*
X90093750Y-38437500D03*
D21*
X106100000Y-56525000D03*
X106100000Y-59475000D03*
D12*
X73325000Y-57525000D03*
X73325000Y-59075000D03*
D14*
X80420000Y-36900000D03*
X81380000Y-36900000D03*
D29*
X57329500Y-46387501D03*
D30*
X57329500Y-45750126D03*
X57329500Y-45250000D03*
X57329500Y-44749874D03*
D29*
X57329500Y-44112499D03*
X55170500Y-44112499D03*
D30*
X55170500Y-44749874D03*
X55170500Y-45250000D03*
X55170500Y-45750126D03*
D29*
X55170500Y-46387501D03*
D31*
X56250000Y-45250000D03*
D32*
X90125000Y-55200000D03*
X97975000Y-55200000D03*
D21*
X103800000Y-77700000D03*
X103800000Y-80650000D03*
D33*
X88900000Y-32530000D03*
X88900000Y-31570000D03*
D12*
X72070000Y-77750000D03*
X72070000Y-79300000D03*
D11*
X76500000Y-52475000D03*
X76500000Y-50925000D03*
D14*
X83820000Y-30850000D03*
X84780000Y-30850000D03*
D22*
X88550000Y-44260000D03*
X88550000Y-43240000D03*
D15*
X81380000Y-62900000D03*
X80420000Y-62900000D03*
D34*
X88310000Y-25250000D03*
X90850000Y-25250000D03*
X93390000Y-25250000D03*
X95930000Y-25250000D03*
X98470000Y-25250000D03*
X101010000Y-25250000D03*
X103550000Y-25250000D03*
X106090000Y-25250000D03*
X108630000Y-25250000D03*
X111170000Y-25250000D03*
X113710000Y-25250000D03*
X116250000Y-25250000D03*
X116250000Y-48170000D03*
X113710000Y-48170000D03*
X111170000Y-48170000D03*
X108630000Y-48170000D03*
X106090000Y-48170000D03*
X103550000Y-48170000D03*
X101010000Y-48170000D03*
X98470000Y-48170000D03*
X95930000Y-48170000D03*
X93390000Y-48170000D03*
X90850000Y-48170000D03*
X88310000Y-48170000D03*
D35*
X106150000Y-64775000D03*
X106150000Y-61825000D03*
D11*
X73030000Y-63085000D03*
X73030000Y-61535000D03*
D36*
X87412500Y-67900000D03*
X85587500Y-67900000D03*
D37*
X123002800Y-185000000D03*
D13*
X97700000Y-31590000D03*
X97700000Y-32610000D03*
D38*
X57250000Y-49275000D03*
X55700000Y-49275000D03*
D24*
X52600000Y-28000000D03*
X53302944Y-26302944D03*
X53302944Y-29697056D03*
X55000000Y-25600000D03*
D25*
X55000000Y-28000000D03*
D24*
X55000000Y-30400000D03*
X56697056Y-26302944D03*
X56697056Y-29697056D03*
X57400000Y-28000000D03*
D21*
X103800000Y-67325000D03*
X103800000Y-70275000D03*
D39*
X69450000Y-48050000D03*
X69450000Y-43750000D03*
D19*
X78480000Y-81420000D03*
X78480000Y-82380000D03*
D15*
X81067500Y-43400000D03*
X80107500Y-43400000D03*
D33*
X76000000Y-58080000D03*
X76000000Y-57120000D03*
D22*
X58500000Y-44210000D03*
X58500000Y-43190000D03*
D40*
X53300000Y-179600000D03*
D41*
X57502800Y-175500000D03*
D22*
X138880000Y-55267500D03*
X138880000Y-54247500D03*
D14*
X94970000Y-43750000D03*
X95930000Y-43750000D03*
D15*
X57555000Y-42850000D03*
X56595000Y-42850000D03*
D41*
X132502800Y-175500000D03*
D15*
X82380000Y-59900000D03*
X81420000Y-59900000D03*
D37*
X67002800Y-185000000D03*
D12*
X71850000Y-57525000D03*
X71850000Y-59075000D03*
D42*
X83015000Y-69357500D03*
D43*
X83265000Y-69357500D03*
D42*
X83015000Y-68857500D03*
D43*
X83265000Y-68857500D03*
D42*
X83015000Y-68357500D03*
D43*
X83265000Y-68357500D03*
D42*
X83015000Y-67857500D03*
D43*
X83265000Y-67857500D03*
D42*
X83015000Y-67357500D03*
D43*
X83265000Y-67357500D03*
D44*
X82715000Y-65607500D03*
D42*
X83015000Y-64357500D03*
X83015000Y-64857500D03*
X83015000Y-65357500D03*
X83015000Y-65857500D03*
X83015000Y-66357500D03*
X83015000Y-66857500D03*
D43*
X83265000Y-64357500D03*
X83265000Y-64857500D03*
X83265000Y-65357500D03*
X83265000Y-65857500D03*
X83265000Y-66357500D03*
X83265000Y-66857500D03*
X77865000Y-64357500D03*
X77865000Y-64857500D03*
X77865000Y-65357500D03*
X77865000Y-65857500D03*
X77865000Y-66357500D03*
X77865000Y-66857500D03*
D45*
X78115000Y-64357500D03*
X78115000Y-64857500D03*
X78115000Y-65357500D03*
X78115000Y-65857500D03*
X78115000Y-66357500D03*
X78115000Y-66857500D03*
D44*
X78415000Y-65607500D03*
D43*
X77865000Y-67357500D03*
D45*
X78115000Y-67357500D03*
D43*
X77865000Y-67857500D03*
D45*
X78115000Y-67857500D03*
D43*
X77865000Y-68357500D03*
D45*
X78115000Y-68357500D03*
D43*
X77865000Y-68857500D03*
D45*
X78115000Y-68857500D03*
D43*
X77865000Y-69357500D03*
D45*
X78115000Y-69357500D03*
D46*
X79440000Y-66857500D03*
D47*
X80565000Y-66857500D03*
D46*
X81690000Y-66857500D03*
D13*
X95800000Y-31590000D03*
X95800000Y-32610000D03*
D15*
X81680000Y-73700000D03*
X80720000Y-73700000D03*
D22*
X84450000Y-37540000D03*
X84450000Y-36520000D03*
D19*
X89550000Y-43270000D03*
X89550000Y-44230000D03*
X78300000Y-60020000D03*
X78300000Y-60980000D03*
D48*
X137176315Y-55662500D03*
X136226315Y-55662500D03*
X135276315Y-55662500D03*
X135276315Y-57937500D03*
X137176315Y-57937500D03*
D11*
X73500000Y-73575000D03*
X73500000Y-72025000D03*
D15*
X82380000Y-81400000D03*
X81420000Y-81400000D03*
D19*
X84300000Y-56970000D03*
X84300000Y-57930000D03*
D49*
X77660000Y-44980000D03*
D50*
X75500000Y-39900000D03*
D51*
X75500000Y-42440000D03*
X75500000Y-44980000D03*
X75500000Y-47520000D03*
D41*
X57502800Y-100500000D03*
D22*
X54000000Y-44735000D03*
X54000000Y-43715000D03*
D21*
X106100000Y-67325000D03*
X106100000Y-70275000D03*
D13*
X93750000Y-33290000D03*
X93750000Y-34310000D03*
D52*
X77925000Y-73700000D03*
X79475000Y-73700000D03*
D53*
X84190000Y-42000000D03*
X85210000Y-42000000D03*
D52*
X77525000Y-63100000D03*
X79075000Y-63100000D03*
D35*
X103700000Y-75575000D03*
X103700000Y-72625000D03*
D19*
X78490000Y-70720000D03*
X78490000Y-71680000D03*
D41*
X132502800Y-100500000D03*
D35*
X101500000Y-54350000D03*
X101500000Y-51400000D03*
D37*
X67002800Y-91000000D03*
D14*
X96020000Y-40800000D03*
X96980000Y-40800000D03*
D36*
X87362500Y-79100000D03*
X85537500Y-79100000D03*
D35*
X101400000Y-75575000D03*
X101400000Y-72625000D03*
X108450000Y-54375000D03*
X108450000Y-51425000D03*
D20*
X82887500Y-73300000D03*
X84712500Y-73300000D03*
D33*
X125250000Y-54980000D03*
X125250000Y-54020000D03*
D54*
X95960000Y-42800000D03*
X94940000Y-42800000D03*
D13*
X85490000Y-36520000D03*
X85490000Y-37540000D03*
D35*
X106050000Y-75575000D03*
X106050000Y-72625000D03*
D12*
X73570000Y-77750000D03*
X73570000Y-79300000D03*
D32*
X90125000Y-76610000D03*
X97975000Y-76610000D03*
D11*
X72000000Y-52475000D03*
X72000000Y-50925000D03*
D16*
X90500000Y-142084000D03*
X90000000Y-142084000D03*
X89500000Y-142084000D03*
X89000000Y-142084000D03*
X88500000Y-142084000D03*
X88000000Y-142084000D03*
X87500000Y-142084000D03*
X87000000Y-142084000D03*
X86500000Y-142084000D03*
X86000000Y-142084000D03*
X85500000Y-142084000D03*
X85000000Y-142084000D03*
X84500000Y-142084000D03*
X84000000Y-142084000D03*
X83500000Y-142084000D03*
X83500000Y-149916000D03*
X84000000Y-149916000D03*
X84500000Y-149916000D03*
X85000000Y-149916000D03*
X85500000Y-149916000D03*
X86000000Y-149916000D03*
X86500000Y-149916000D03*
X87000000Y-149916000D03*
X87500000Y-149916000D03*
X88000000Y-149916000D03*
X88500000Y-149916000D03*
X89000000Y-149916000D03*
X89500000Y-149916000D03*
X90000000Y-149916000D03*
X90500000Y-149916000D03*
D17*
X89940000Y-146000000D03*
D18*
X85890000Y-146000000D03*
D38*
X86275000Y-69850000D03*
X84725000Y-69850000D03*
D21*
X101500000Y-56475000D03*
X101500000Y-59425000D03*
D24*
X133600000Y-28000000D03*
X134302944Y-26302944D03*
X134302944Y-29697056D03*
X136000000Y-25600000D03*
D25*
X136000000Y-28000000D03*
D24*
X136000000Y-30400000D03*
X137697056Y-26302944D03*
X137697056Y-29697056D03*
X138400000Y-28000000D03*
D35*
X103800000Y-64775000D03*
X103800000Y-61825000D03*
D33*
X76300000Y-68080000D03*
X76300000Y-67120000D03*
D38*
X57250000Y-47800000D03*
X55700000Y-47800000D03*
D23*
X62792500Y-59800000D03*
X56292500Y-59800000D03*
D21*
X106100000Y-77700000D03*
X106100000Y-80650000D03*
D55*
X99500000Y-133916000D03*
X100000000Y-133916000D03*
X100500000Y-133916000D03*
X101000000Y-133916000D03*
X101500000Y-133916000D03*
X102000000Y-133916000D03*
X102500000Y-133916000D03*
X103000000Y-133916000D03*
X103500000Y-133916000D03*
X104000000Y-133916000D03*
X104500000Y-133916000D03*
X105000000Y-133916000D03*
X105500000Y-133916000D03*
X106000000Y-133916000D03*
X106500000Y-133916000D03*
X106500000Y-126084000D03*
X106000000Y-126084000D03*
X105500000Y-126084000D03*
X105000000Y-126084000D03*
X104500000Y-126084000D03*
X104000000Y-126084000D03*
X103500000Y-126084000D03*
X103000000Y-126084000D03*
X102500000Y-126084000D03*
X102000000Y-126084000D03*
X101500000Y-126084000D03*
X101000000Y-126084000D03*
X100500000Y-126084000D03*
X100000000Y-126084000D03*
X99500000Y-126084000D03*
D17*
X100060000Y-130000000D03*
D18*
X104110000Y-130000000D03*
D11*
X71500000Y-63075000D03*
X71500000Y-61525000D03*
D15*
X136630000Y-59450000D03*
X135670000Y-59450000D03*
D52*
X78025000Y-52400000D03*
X79575000Y-52400000D03*
D40*
X131100000Y-26400000D03*
D20*
X83337500Y-52000000D03*
X85162500Y-52000000D03*
D35*
X101490000Y-64775000D03*
X101490000Y-61825000D03*
D15*
X82380000Y-70700000D03*
X81420000Y-70700000D03*
D48*
X133676315Y-55696089D03*
X132726315Y-55696089D03*
X131776315Y-55696089D03*
X131776315Y-57971089D03*
X133676315Y-57971089D03*
D56*
X125100001Y-57400000D03*
D57*
X125500000Y-58300000D03*
X125999999Y-58300000D03*
X126500000Y-58300000D03*
X127000000Y-58300000D03*
X127500001Y-58300000D03*
X128000000Y-58300000D03*
D56*
X128399999Y-57400000D03*
X128399999Y-56900000D03*
D57*
X128000000Y-56000000D03*
X127500001Y-56000000D03*
X127000000Y-56000000D03*
X126500000Y-56000000D03*
X125999999Y-56000000D03*
X125500000Y-56000000D03*
D56*
X125100001Y-56900000D03*
D58*
X125999999Y-57150000D03*
D59*
X126750000Y-57150000D03*
D58*
X127500001Y-57150000D03*
D15*
X133680000Y-53400000D03*
X132720000Y-53400000D03*
D22*
X84300000Y-44060000D03*
X84300000Y-43040000D03*
D55*
X99500000Y-149916000D03*
X100000000Y-149916000D03*
X100500000Y-149916000D03*
X101000000Y-149916000D03*
X101500000Y-149916000D03*
X102000000Y-149916000D03*
X102500000Y-149916000D03*
X103000000Y-149916000D03*
X103500000Y-149916000D03*
X104000000Y-149916000D03*
X104500000Y-149916000D03*
X105000000Y-149916000D03*
X105500000Y-149916000D03*
X106000000Y-149916000D03*
X106500000Y-149916000D03*
X106500000Y-142084000D03*
X106000000Y-142084000D03*
X105500000Y-142084000D03*
X105000000Y-142084000D03*
X104500000Y-142084000D03*
X104000000Y-142084000D03*
X103500000Y-142084000D03*
X103000000Y-142084000D03*
X102500000Y-142084000D03*
X102000000Y-142084000D03*
X101500000Y-142084000D03*
X101000000Y-142084000D03*
X100500000Y-142084000D03*
X100000000Y-142084000D03*
X99500000Y-142084000D03*
D17*
X100060000Y-146000000D03*
D18*
X104110000Y-146000000D03*
D19*
X84300000Y-67620000D03*
X84300000Y-68580000D03*
D49*
X77660000Y-33180000D03*
D50*
X75500000Y-28100000D03*
D51*
X75500000Y-30640000D03*
X75500000Y-33180000D03*
X75500000Y-35720000D03*
D52*
X52900000Y-42525000D03*
X54450000Y-42525000D03*
D15*
X81980000Y-52000000D03*
X81020000Y-52000000D03*
D24*
X52600000Y-78000000D03*
X53302944Y-76302944D03*
X53302944Y-79697056D03*
X55000000Y-75600000D03*
D25*
X55000000Y-78000000D03*
D24*
X55000000Y-80400000D03*
X56697056Y-76302944D03*
X56697056Y-79697056D03*
X57400000Y-78000000D03*
D19*
X86100000Y-42920000D03*
X86100000Y-43880000D03*
X92500000Y-43070000D03*
X92500000Y-44030000D03*
D33*
X76300000Y-78980000D03*
X76300000Y-78020000D03*
D36*
X87412500Y-57100000D03*
X85587500Y-57100000D03*
D52*
X52900000Y-41050000D03*
X54450000Y-41050000D03*
D15*
X97080000Y-36800000D03*
X96120000Y-36800000D03*
D60*
X79837500Y-41700000D03*
X80337500Y-41700000D03*
X80837500Y-41700000D03*
X81337500Y-41700000D03*
X81337500Y-38600000D03*
X80837500Y-38600000D03*
X80337500Y-38600000D03*
X79837500Y-38600000D03*
D21*
X101480000Y-77700000D03*
X101480000Y-80650000D03*
D61*
X84500000Y-34600000D03*
X84500000Y-34100000D03*
X84500000Y-33600000D03*
X84500000Y-33100000D03*
X84500000Y-32600000D03*
X80275000Y-32600000D03*
X80275000Y-33100000D03*
X80275000Y-33600000D03*
X80275000Y-34100000D03*
X80275000Y-34600000D03*
D62*
X115900000Y-28530000D03*
X112600000Y-28530000D03*
D42*
X83025000Y-58637500D03*
D43*
X83275000Y-58637500D03*
D42*
X83025000Y-58137500D03*
D43*
X83275000Y-58137500D03*
D42*
X83025000Y-57637500D03*
D43*
X83275000Y-57637500D03*
D42*
X83025000Y-57137500D03*
D43*
X83275000Y-57137500D03*
D42*
X83025000Y-56637500D03*
D43*
X83275000Y-56637500D03*
D44*
X82725000Y-54887500D03*
D42*
X83025000Y-53637500D03*
X83025000Y-54137500D03*
X83025000Y-54637500D03*
X83025000Y-55137500D03*
X83025000Y-55637500D03*
X83025000Y-56137500D03*
D43*
X83275000Y-53637500D03*
X83275000Y-54137500D03*
X83275000Y-54637500D03*
X83275000Y-55137500D03*
X83275000Y-55637500D03*
X83275000Y-56137500D03*
X77875000Y-53637500D03*
X77875000Y-54137500D03*
X77875000Y-54637500D03*
X77875000Y-55137500D03*
X77875000Y-55637500D03*
X77875000Y-56137500D03*
D45*
X78125000Y-53637500D03*
X78125000Y-54137500D03*
X78125000Y-54637500D03*
X78125000Y-55137500D03*
X78125000Y-55637500D03*
X78125000Y-56137500D03*
D44*
X78425000Y-54887500D03*
D43*
X77875000Y-56637500D03*
D45*
X78125000Y-56637500D03*
D43*
X77875000Y-57137500D03*
D45*
X78125000Y-57137500D03*
D43*
X77875000Y-57637500D03*
D45*
X78125000Y-57637500D03*
D43*
X77875000Y-58137500D03*
D45*
X78125000Y-58137500D03*
D43*
X77875000Y-58637500D03*
D45*
X78125000Y-58637500D03*
D46*
X79450000Y-56137500D03*
D47*
X80575000Y-56137500D03*
D46*
X81700000Y-56137500D03*
D19*
X84250000Y-78320000D03*
X84250000Y-79280000D03*
D11*
X74970000Y-73575000D03*
X74970000Y-72025000D03*
D42*
X83005000Y-80047500D03*
D43*
X83255000Y-80047500D03*
D42*
X83005000Y-79547500D03*
D43*
X83255000Y-79547500D03*
D42*
X83005000Y-79047500D03*
D43*
X83255000Y-79047500D03*
D42*
X83005000Y-78547500D03*
D43*
X83255000Y-78547500D03*
D42*
X83005000Y-78047500D03*
D43*
X83255000Y-78047500D03*
D44*
X82705000Y-76297500D03*
D42*
X83005000Y-75047500D03*
X83005000Y-75547500D03*
X83005000Y-76047500D03*
X83005000Y-76547500D03*
X83005000Y-77047500D03*
X83005000Y-77547500D03*
D43*
X83255000Y-75047500D03*
X83255000Y-75547500D03*
X83255000Y-76047500D03*
X83255000Y-76547500D03*
X83255000Y-77047500D03*
X83255000Y-77547500D03*
X77855000Y-75047500D03*
X77855000Y-75547500D03*
X77855000Y-76047500D03*
X77855000Y-76547500D03*
X77855000Y-77047500D03*
X77855000Y-77547500D03*
D45*
X78105000Y-75047500D03*
X78105000Y-75547500D03*
X78105000Y-76047500D03*
X78105000Y-76547500D03*
X78105000Y-77047500D03*
X78105000Y-77547500D03*
D44*
X78405000Y-76297500D03*
D43*
X77855000Y-78047500D03*
D45*
X78105000Y-78047500D03*
D43*
X77855000Y-78547500D03*
D45*
X78105000Y-78547500D03*
D43*
X77855000Y-79047500D03*
D45*
X78105000Y-79047500D03*
D43*
X77855000Y-79547500D03*
D45*
X78105000Y-79547500D03*
D43*
X77855000Y-80047500D03*
D45*
X78105000Y-80047500D03*
D46*
X79430000Y-77547500D03*
D47*
X80555000Y-77547500D03*
D46*
X81680000Y-77547500D03*
D24*
X133600000Y-185000000D03*
X134302944Y-183302944D03*
X134302944Y-186697056D03*
X136000000Y-182600000D03*
D25*
X136000000Y-185000000D03*
D24*
X136000000Y-187400000D03*
X137697056Y-183302944D03*
X137697056Y-186697056D03*
X138400000Y-185000000D03*
D35*
X103800000Y-54375000D03*
X103800000Y-51425000D03*
D11*
X75000000Y-52475000D03*
X75000000Y-50925000D03*
D12*
X75100000Y-68300000D03*
X75100000Y-69850000D03*
D11*
X74500000Y-63075000D03*
X74500000Y-61525000D03*
D53*
X101480000Y-37500000D03*
X102500000Y-37500000D03*
D12*
X72070000Y-68310000D03*
X72070000Y-69860000D03*
D11*
X73500000Y-52475000D03*
X73500000Y-50925000D03*
D53*
X101480000Y-38500000D03*
X102500000Y-38500000D03*
D11*
X76000000Y-63075000D03*
X76000000Y-61525000D03*
D38*
X87275000Y-58800000D03*
X85725000Y-58800000D03*
D63*
X65073000Y-42030000D03*
X61673000Y-42030000D03*
X65073000Y-51950000D03*
X61673000Y-51950000D03*
D24*
X52600000Y-185000000D03*
X53302944Y-183302944D03*
X53302944Y-186697056D03*
X55000000Y-182600000D03*
D25*
X55000000Y-185000000D03*
D24*
X55000000Y-187400000D03*
X56697056Y-183302944D03*
X56697056Y-186697056D03*
X57400000Y-185000000D03*
D37*
X123002800Y-91000000D03*
D54*
X130260000Y-56750000D03*
X129240000Y-56750000D03*
D21*
X101490000Y-67350000D03*
X101490000Y-70300000D03*
D35*
X106150000Y-54375000D03*
X106150000Y-51425000D03*
D32*
X90125000Y-65920000D03*
X97975000Y-65920000D03*
D64*
X67650000Y-37000000D03*
X62650000Y-37000000D03*
D40*
X70650000Y-27000000D03*
X59650000Y-27000000D03*
M02*
