M48
; DRILL file {KiCad 9.0.5} date 2025-11-28T01:33:59+0200
; FORMAT={-:-/ absolute / metric / decimal}
; #@! TF.CreationDate,2025-11-28T01:33:59+02:00
; #@! TF.GenerationSoftware,Kicad,Pcbnew,9.0.5
; #@! TF.FileFunction,Plated,1,6,PTH
FMAT,2
METRIC
; #@! TA.AperFunction,Plated,PTH,ViaDrill
T1C0.300
; #@! TA.AperFunction,Plated,PTH,ComponentDrill
T2C0.300
; #@! TA.AperFunction,Plated,PTH,ViaDrill
T3C0.400
; #@! TA.AperFunction,Plated,PTH,ComponentDrill
T4C0.500
; #@! TA.AperFunction,Plated,PTH,ComponentDrill
T5C1.000
; #@! TA.AperFunction,Plated,PTH,ComponentDrill
T6C1.020
; #@! TA.AperFunction,Plated,PTH,ComponentDrill
T7C1.700
; #@! TA.AperFunction,Plated,PTH,ComponentDrill
T8C1.780
; #@! TA.AperFunction,Plated,PTH,ComponentDrill
T9C3.200
%
G90
G05
T1
X68.6Y-41.6
X68.6Y-42.3
X69.4Y-41.6
X69.4Y-42.3
X70.2Y-41.6
X70.2Y-42.3
X76.771Y-58.655
X76.89Y-68.67
X77.055Y-80.015
X77.119Y-79.121
X77.54Y-70.1
X78.3Y-60.02
X78.469Y-80.607
X78.479Y-69.917
X78.489Y-59.197
X79.08Y-75.01
X79.08Y-76.31
X79.08Y-77.56
X79.08Y-78.852
X79.09Y-64.32
X79.09Y-65.62
X79.09Y-66.87
X79.09Y-68.162
X79.138Y-69.381
X79.148Y-58.661
X79.239Y-53.6
X79.239Y-54.9
X79.239Y-56.15
X79.239Y-57.442
X79.48Y-83.61
X79.49Y-72.92
X79.5Y-62.2
X79.56Y-126.15
X79.9Y-141.1
X79.92Y-138.06
X79.94Y-135.06
X80.09Y-153.21
X80.1Y-151.2
X80.188Y-40.7
X80.987Y-40.8
X81.2Y-124.8
X81.537Y-33.1
X81.737Y-38.55
X81.737Y-41.7
X81.794Y-135.04
X81.794Y-141.01
X81.794Y-151.2
X82.0Y-122.19
X82.03Y-75.01
X82.03Y-76.31
X82.03Y-77.61
X82.03Y-78.81
X82.03Y-80.11
X82.04Y-64.32
X82.04Y-65.62
X82.04Y-66.92
X82.04Y-68.12
X82.04Y-69.42
X82.05Y-53.6
X82.05Y-54.9
X82.05Y-56.2
X82.05Y-57.4
X82.05Y-58.7
X82.237Y-37.05
X82.4Y-120.7
X82.562Y-30.125
X82.598Y-138.9
X82.598Y-152.315
X82.78Y-80.61
X82.8Y-59.2
X82.97Y-126.1
X83.13Y-41.2
X83.244Y-69.987
X83.35Y-135.1
X83.36Y-141.06
X83.43Y-151.08
X83.438Y-32.35
X83.441Y-39.338
X83.7Y-70.8
X83.755Y-80.882
X83.756Y-38.206
X83.8Y-119.4
X83.866Y-123.434
X83.9Y-53.5
X83.9Y-54.1
X83.9Y-54.7
X83.9Y-55.3
X83.9Y-55.9
X83.9Y-64.4
X83.9Y-65.0
X83.9Y-65.6
X83.9Y-66.2
X83.9Y-75.1
X83.9Y-75.7
X83.9Y-76.3
X83.9Y-76.9
X84.0Y-122.19
X84.4Y-53.2
X84.4Y-53.8
X84.4Y-54.4
X84.4Y-55.0
X84.4Y-55.6
X84.4Y-64.1
X84.4Y-64.7
X84.4Y-65.3
X84.4Y-65.9
X84.4Y-66.5
X84.4Y-74.8
X84.4Y-75.4
X84.4Y-76.0
X84.4Y-76.6
X84.4Y-77.2
X84.5Y-59.4
X84.7Y-41.242
X84.8Y-40.1
X84.87Y-140.48
X84.9Y-53.5
X84.9Y-54.1
X84.9Y-54.7
X84.9Y-55.3
X84.9Y-55.9
X84.9Y-64.4
X84.9Y-65.0
X84.9Y-65.6
X84.9Y-66.2
X84.9Y-66.8
X84.9Y-75.1
X84.9Y-75.7
X84.9Y-76.3
X84.9Y-76.9
X84.9Y-77.5
X84.91Y-139.2
X84.927Y-123.638
X85.2Y-43.0
X85.2Y-44.812
X85.4Y-80.5
X85.45Y-39.411
X85.693Y-121.443
X85.787Y-32.575
X85.91Y-152.82
X85.91Y-136.697
X85.987Y-31.2
X86.087Y-33.475
X86.12Y-39.809
X86.2Y-123.4
X86.475Y-38.662
X86.68Y-153.18
X86.799Y-69.486
X86.93Y-80.22
X87.35Y-135.54
X87.4Y-59.1
X87.75Y-152.59
X88.45Y-119.1
X88.506Y-140.4
X88.546Y-42.426
X89.0Y-75.7
X89.0Y-76.3
X89.0Y-76.9
X89.0Y-77.5
X89.049Y-125.1
X89.05Y-45.65
X89.083Y-135.4
X89.083Y-151.358
X89.1Y-54.4
X89.1Y-55.0
X89.1Y-55.6
X89.1Y-56.2
X89.1Y-65.1
X89.1Y-65.7
X89.1Y-66.3
X89.1Y-66.9
X89.1Y-141.16
X89.318Y-42.457
X89.522Y-34.623
X89.6Y-26.4
X89.7Y-75.7
X89.7Y-76.3
X89.7Y-76.9
X89.7Y-77.5
X89.8Y-140.73
X89.813Y-124.855
X89.9Y-54.4
X89.9Y-55.0
X89.9Y-55.6
X89.9Y-56.2
X89.9Y-65.1
X89.9Y-65.7
X89.9Y-66.3
X89.9Y-66.9
X89.9Y-119.9
X89.96Y-151.08
X90.1Y-42.4
X90.193Y-135.405
X90.5Y-30.95
X90.5Y-75.7
X90.5Y-76.3
X90.5Y-76.9
X90.5Y-77.5
X90.52Y-141.19
X90.579Y-134.762
X90.594Y-34.6
X90.6Y-54.4
X90.6Y-55.0
X90.6Y-55.6
X90.6Y-56.2
X90.7Y-65.1
X90.7Y-65.7
X90.7Y-66.3
X90.7Y-66.9
X90.804Y-150.705
X90.932Y-42.31
X90.94Y-125.0
X90.98Y-134.05
X90.98Y-142.18
X90.98Y-149.93
X91.0Y-120.55
X91.08Y-126.12
X91.3Y-54.4
X91.3Y-55.0
X91.3Y-55.6
X91.3Y-56.2
X91.3Y-75.7
X91.3Y-76.3
X91.3Y-76.9
X91.3Y-77.5
X91.4Y-65.1
X91.4Y-65.7
X91.4Y-66.3
X91.4Y-66.9
X91.882Y-45.489
X92.2Y-48.9
X92.4Y-31.15
X92.732Y-42.146
X93.296Y-41.51
X93.4Y-51.7
X93.746Y-35.05
X93.8Y-31.2
X94.6Y-39.975
X97.05Y-30.25
X97.144Y-37.7
X97.144Y-40.0
X98.3Y-39.2
X98.3Y-41.1
X98.465Y-44.015
X98.966Y-149.854
X98.997Y-133.816
X99.01Y-126.14
X99.03Y-142.13
X99.1Y-134.65
X99.158Y-150.682
X99.199Y-125.293
X99.38Y-37.92
X99.47Y-141.238
X100.035Y-151.16
X100.05Y-140.73
X100.06Y-135.25
X100.1Y-39.6
X100.14Y-124.943
X100.764Y-140.96
X100.83Y-150.86
X100.9Y-125.2
X100.923Y-135.1
X101.34Y-140.48
X102.13Y-153.965
X102.27Y-124.81
X102.4Y-46.8
X102.67Y-135.54
X104.16Y-151.53
X104.62Y-135.88
X104.72Y-124.8
X104.72Y-139.32
X106.25Y-151.03
X106.38Y-140.98
X106.619Y-134.866
X106.836Y-125.314
X106.97Y-126.1
X107.05Y-119.15
X107.21Y-152.59
X107.532Y-136.72
X107.55Y-123.45
X107.85Y-119.85
X108.21Y-151.08
X108.24Y-140.21
X108.27Y-134.92
X108.55Y-120.55
X109.21Y-141.11
X109.53Y-153.1
X109.7Y-136.65
X109.91Y-151.09
X110.02Y-134.95
X110.25Y-126.03
X111.05Y-124.85
X112.401Y-125.651
X124.95Y-59.15
X127.75Y-59.5
X128.75Y-58.25
X132.0Y-69.0
X136.885Y-60.715
T2
X88.594Y-36.938
X88.594Y-37.938
X88.594Y-38.938
X88.594Y-39.938
X89.594Y-36.938
X89.594Y-37.938
X89.594Y-38.938
X89.594Y-39.938
X90.594Y-36.938
X90.594Y-37.938
X90.594Y-38.938
X90.594Y-39.938
X91.594Y-36.938
X91.594Y-37.938
X91.594Y-38.938
X91.594Y-39.938
X126.0Y-57.15
X127.5Y-57.15
T3
X52.07Y-48.26
X52.07Y-50.8
X52.07Y-53.34
X52.07Y-55.88
X52.07Y-58.42
X52.07Y-60.96
X52.07Y-63.5
X52.07Y-66.04
X52.07Y-68.58
X52.07Y-71.12
X52.07Y-73.66
X52.07Y-82.55
X52.07Y-85.09
X52.07Y-87.63
X52.07Y-90.17
X52.07Y-92.71
X52.07Y-95.25
X52.07Y-97.79
X52.07Y-100.33
X52.07Y-102.87
X52.07Y-105.41
X52.07Y-107.95
X52.07Y-110.49
X52.07Y-113.03
X52.07Y-115.57
X52.07Y-118.11
X52.07Y-120.65
X52.07Y-123.19
X52.07Y-125.73
X52.07Y-128.27
X52.07Y-130.81
X52.07Y-133.35
X52.07Y-135.89
X52.07Y-138.43
X52.07Y-140.97
X52.07Y-143.51
X52.07Y-146.05
X52.07Y-148.59
X52.07Y-151.13
X52.07Y-153.67
X52.07Y-156.21
X52.07Y-158.75
X52.07Y-161.29
X52.07Y-163.83
X52.07Y-166.37
X52.07Y-168.91
X52.07Y-171.45
X52.07Y-173.99
X52.07Y-176.53
X53.542Y-58.8
X53.542Y-59.8
X53.542Y-60.8
X53.542Y-68.25
X53.542Y-69.25
X53.542Y-70.25
X54.3Y-48.6
X54.542Y-58.8
X54.542Y-59.8
X54.542Y-60.8
X54.542Y-68.25
X54.542Y-69.25
X54.542Y-70.25
X54.65Y-42.925
X54.925Y-47.775
X54.95Y-49.325
X55.475Y-43.1
X55.5Y-40.3
X55.575Y-41.95
X56.25Y-45.25
X56.3Y-47.1
X56.45Y-41.275
X57.912Y-37.084
X57.912Y-38.481
X58.293Y-35.814
X58.42Y-39.624
X58.5Y-42.35
X58.801Y-38.1
X59.055Y-34.798
X59.055Y-36.83
X59.309Y-38.989
X59.309Y-40.513
X59.69Y-187.96
X59.817Y-37.846
X59.944Y-33.909
X59.944Y-35.941
X60.071Y-44.323
X60.198Y-34.925
X60.198Y-45.974
X60.452Y-36.83
X60.452Y-47.371
X60.452Y-48.641
X60.452Y-50.419
X60.579Y-53.594
X60.579Y-54.483
X60.706Y-39.624
X60.706Y-45.085
X60.706Y-49.53
X60.833Y-38.354
X60.96Y-33.02
X60.96Y-35.687
X60.96Y-48.006
X61.214Y-34.544
X61.214Y-44.196
X61.214Y-45.974
X61.341Y-48.768
X61.466Y-50.021
X61.468Y-54.483
X61.722Y-45.085
X61.722Y-47.498
X61.849Y-33.782
X62.103Y-39.497
X62.103Y-48.387
X62.103Y-49.403
X62.23Y-44.196
X62.23Y-45.974
X62.23Y-187.96
X62.357Y-32.893
X62.357Y-54.483
X62.484Y-50.165
X62.611Y-47.625
X62.738Y-34.29
X62.738Y-45.085
X62.865Y-48.895
X62.865Y-53.721
X63.246Y-40.005
X63.246Y-44.196
X63.246Y-45.974
X63.373Y-43.18
X63.373Y-48.133
X63.373Y-49.784
X63.373Y-50.8
X63.373Y-52.959
X63.373Y-54.483
X63.754Y-32.893
X63.754Y-38.862
X63.754Y-45.085
X63.881Y-34.417
X63.881Y-48.895
X63.881Y-53.721
X64.135Y-47.625
X64.262Y-44.196
X64.262Y-45.974
X64.262Y-50.165
X64.389Y-39.878
X64.389Y-54.483
X64.643Y-33.782
X64.643Y-35.179
X64.643Y-48.387
X64.643Y-49.403
X64.77Y-32.766
X64.77Y-36.322
X64.77Y-37.719
X64.77Y-45.085
X65.0Y-59.0
X65.0Y-61.0
X65.0Y-68.0
X65.0Y-71.0
X65.024Y-38.862
X65.024Y-47.498
X65.278Y-44.196
X65.278Y-45.974
X65.278Y-54.483
X65.28Y-50.021
X65.405Y-48.768
X65.786Y-45.085
X65.786Y-48.006
X65.913Y-39.751
X66.0Y-49.53
X66.167Y-53.594
X66.167Y-54.483
X66.294Y-32.766
X66.294Y-34.798
X66.294Y-44.196
X66.294Y-45.974
X66.294Y-47.371
X66.294Y-48.641
X66.294Y-50.419
X66.548Y-40.513
X66.802Y-45.085
X66.929Y-33.782
X67.564Y-32.766
X67.564Y-34.798
X67.564Y-39.116
X68.199Y-33.782
X68.199Y-40.259
X68.834Y-32.766
X68.834Y-34.798
X68.834Y-39.116
X69.469Y-33.782
X69.469Y-35.814
X69.469Y-37.973
X69.469Y-40.259
X69.6Y-80.4
X69.7Y-71.0
X70.0Y-79.3
X70.1Y-70.25
X70.1Y-71.75
X70.104Y-32.766
X70.104Y-34.798
X70.104Y-36.83
X70.104Y-39.116
X70.4Y-59.5
X70.4Y-61.05
X70.55Y-71.0
X70.6Y-80.4
X70.739Y-33.782
X70.739Y-35.814
X70.739Y-37.973
X70.739Y-40.259
X70.85Y-60.25
X70.95Y-70.25
X70.95Y-71.75
X71.0Y-54.0
X71.0Y-56.0
X71.0Y-64.5
X71.0Y-66.5
X71.0Y-75.0
X71.0Y-77.0
X71.0Y-79.3
X71.35Y-59.5
X71.35Y-61.0
X71.45Y-71.0
X71.6Y-80.45
X71.85Y-60.25
X71.95Y-70.25
X71.95Y-71.75
X72.0Y-50.0
X72.07Y-79.3
X72.3Y-51.0
X72.35Y-59.5
X72.35Y-61.0
X72.39Y-187.96
X72.4Y-49.2
X72.45Y-71.0
X72.6Y-80.4
X72.8Y-48.4
X72.85Y-60.25
X72.9Y-49.975
X72.95Y-70.25
X72.95Y-71.75
X73.0Y-54.0
X73.0Y-56.0
X73.0Y-64.5
X73.0Y-66.5
X73.0Y-75.0
X73.0Y-77.0
X73.3Y-49.175
X73.35Y-59.5
X73.35Y-61.0
X73.4Y-50.9
X73.45Y-71.0
X73.5Y-80.4
X73.57Y-79.3
X73.8Y-49.975
X73.85Y-60.25
X73.9Y-48.4
X73.95Y-70.25
X73.95Y-71.75
X74.3Y-49.175
X74.35Y-59.5
X74.35Y-61.0
X74.45Y-71.0
X74.5Y-80.4
X74.7Y-49.975
X74.8Y-60.2
X74.9Y-50.9
X74.93Y-187.96
X74.95Y-70.25
X74.95Y-71.75
X75.0Y-54.0
X75.0Y-56.0
X75.0Y-64.5
X75.0Y-66.5
X75.0Y-75.0
X75.0Y-77.0
X75.1Y-79.3
X75.3Y-49.175
X75.3Y-59.45
X75.3Y-60.95
X75.561Y-80.417
X77.47Y-187.96
X80.01Y-187.96
X80.518Y18.034
X80.58Y-73.11
X80.58Y-75.01
X80.58Y-76.31
X80.58Y-77.61
X80.58Y-78.81
X80.59Y-64.32
X80.59Y-65.62
X80.59Y-66.92
X80.59Y-68.12
X80.59Y-69.42
X80.6Y-53.6
X80.6Y-54.9
X80.6Y-56.2
X80.6Y-57.4
X80.6Y-58.7
X80.6Y-80.1
X82.55Y-187.96
X83.36Y-143.16
X83.36Y-144.46
X83.36Y-145.36
X83.36Y-146.66
X83.36Y-147.46
X83.36Y-148.76
X83.4Y-127.2
X83.4Y-128.5
X83.4Y-129.4
X83.4Y-130.7
X83.4Y-131.5
X83.4Y-132.8
X84.36Y-143.16
X84.36Y-144.46
X84.36Y-145.36
X84.36Y-146.66
X84.36Y-147.46
X84.36Y-148.76
X84.4Y-127.2
X84.4Y-128.5
X84.4Y-129.4
X84.4Y-130.7
X84.4Y-131.5
X84.4Y-132.8
X85.09Y-187.96
X85.26Y-143.16
X85.26Y-144.46
X85.26Y-145.36
X85.26Y-146.66
X85.26Y-147.46
X85.26Y-148.76
X85.3Y-127.2
X85.3Y-128.5
X85.3Y-129.4
X85.3Y-130.7
X85.3Y-131.5
X85.3Y-132.8
X86.26Y-143.16
X86.26Y-144.46
X86.26Y-145.36
X86.26Y-146.66
X86.26Y-147.47
X86.26Y-148.76
X86.3Y-127.2
X86.3Y-128.5
X86.3Y-129.4
X86.3Y-130.7
X86.3Y-131.5
X86.3Y-132.8
X86.4Y-61.2
X87.06Y-143.16
X87.06Y-144.46
X87.06Y-145.36
X87.06Y-146.66
X87.06Y-147.46
X87.06Y-148.76
X87.1Y-127.2
X87.1Y-128.5
X87.1Y-129.4
X87.1Y-130.7
X87.1Y-131.5
X87.1Y-132.8
X87.15Y-118.6
X87.63Y-187.96
X87.95Y-143.16
X87.95Y-144.46
X87.95Y-145.36
X87.95Y-146.66
X87.95Y-147.46
X87.95Y-148.76
X88.05Y-127.2
X88.05Y-128.5
X88.05Y-129.4
X88.05Y-130.7
X88.05Y-131.5
X88.05Y-132.8
X88.3Y-81.5
X89.5Y-127.2
X89.5Y-128.5
X89.5Y-129.4
X89.5Y-130.7
X89.5Y-131.5
X89.5Y-132.8
X89.5Y-143.15
X89.5Y-144.45
X89.5Y-145.35
X89.5Y-146.65
X89.5Y-147.45
X89.5Y-148.75
X89.7Y-60.1
X90.17Y-187.96
X90.46Y-143.16
X90.46Y-144.46
X90.46Y-145.36
X90.46Y-146.66
X90.46Y-147.46
X90.46Y-148.76
X90.5Y-127.2
X90.5Y-128.5
X90.5Y-129.4
X90.5Y-130.7
X90.5Y-131.5
X90.5Y-132.8
X90.8Y-71.2
X92.5Y-127.0
X92.5Y-128.5
X92.5Y-130.25
X92.5Y-132.0
X92.5Y-138.75
X92.5Y-140.25
X92.5Y-141.75
X92.5Y-145.25
X92.5Y-146.75
X92.5Y-148.25
X92.71Y-187.96
X93.965Y-73.6
X93.965Y-75.8
X93.975Y-65.92
X93.975Y-68.12
X94.0Y-64.0
X94.0Y-78.1
X94.0Y-80.3
X94.0Y-127.0
X94.0Y-128.5
X94.0Y-130.25
X94.0Y-132.0
X94.0Y-133.75
X94.0Y-135.25
X94.0Y-137.0
X94.0Y-138.75
X94.0Y-140.25
X94.0Y-141.75
X94.0Y-143.5
X94.0Y-145.25
X94.0Y-146.75
X94.0Y-148.25
X94.0Y-150.0
X94.0Y-151.75
X94.01Y-70.42
X94.02Y-61.9
X94.1Y-59.7
X94.3Y-55.2
X94.3Y-57.4
X94.4Y-53.3
X95.25Y-187.96
X95.5Y-127.0
X95.5Y-128.5
X95.5Y-130.25
X95.5Y-132.0
X95.5Y-133.75
X95.5Y-135.25
X95.5Y-137.0
X95.5Y-138.75
X95.5Y-140.25
X95.5Y-141.75
X95.5Y-143.5
X95.5Y-145.25
X95.5Y-146.75
X95.5Y-148.25
X95.5Y-150.0
X95.5Y-151.75
X95.696Y-35.2
X96.7Y-54.3
X96.7Y-55.2
X96.7Y-56.2
X96.7Y-65.0
X96.7Y-65.9
X96.7Y-66.9
X96.8Y-75.6
X96.8Y-76.5
X96.8Y-77.5
X97.25Y-127.0
X97.25Y-128.5
X97.25Y-130.25
X97.25Y-132.0
X97.25Y-135.25
X97.25Y-137.0
X97.25Y-138.75
X97.25Y-140.25
X97.25Y-141.75
X97.25Y-145.25
X97.25Y-146.75
X97.25Y-148.25
X97.7Y-56.2
X97.7Y-66.9
X97.79Y-187.96
X97.8Y-54.3
X97.8Y-55.2
X97.8Y-65.0
X97.8Y-65.9
X97.8Y-77.5
X97.9Y-75.6
X97.9Y-76.5
X98.9Y-54.3
X98.9Y-55.2
X98.9Y-56.2
X98.9Y-65.0
X98.9Y-65.9
X98.9Y-66.9
X99.0Y-75.6
X99.0Y-76.5
X99.0Y-77.5
X99.5Y-127.2
X99.5Y-128.5
X99.5Y-129.3
X99.5Y-130.6
X99.5Y-131.5
X99.5Y-132.8
X99.5Y-143.2
X99.5Y-144.5
X99.5Y-145.3
X99.5Y-146.6
X99.5Y-147.5
X99.5Y-148.8
X100.33Y-187.96
X100.5Y-81.1
X100.5Y-127.2
X100.5Y-128.5
X100.5Y-129.3
X100.5Y-130.6
X100.5Y-131.5
X100.5Y-132.8
X100.6Y-143.15
X100.6Y-144.45
X100.6Y-145.25
X100.6Y-146.55
X100.6Y-147.45
X100.6Y-148.75
X100.75Y-50.75
X100.75Y-60.0
X100.75Y-61.5
X100.75Y-70.75
X100.75Y-72.25
X100.85Y-43.0
X101.25Y-49.9
X101.25Y-68.75
X101.25Y-74.1
X101.25Y-76.75
X101.48Y-79.175
X101.49Y-63.3
X101.5Y-52.875
X101.5Y-55.5
X101.5Y-57.95
X101.5Y-66.0
X101.5Y-81.1
X101.75Y-50.75
X101.75Y-60.0
X101.75Y-61.5
X101.75Y-70.75
X101.75Y-72.25
X102.0Y-127.2
X102.0Y-128.5
X102.0Y-129.3
X102.0Y-130.6
X102.0Y-131.5
X102.0Y-132.8
X102.0Y-143.2
X102.0Y-144.5
X102.0Y-145.3
X102.0Y-146.6
X102.0Y-147.5
X102.0Y-148.8
X102.25Y-49.9
X102.5Y-37.5
X102.5Y-38.5
X102.5Y-81.1
X102.75Y-50.75
X102.75Y-60.0
X102.75Y-61.5
X102.75Y-68.75
X102.75Y-70.75
X102.75Y-72.25
X102.75Y-74.1
X102.75Y-76.75
X102.87Y-187.96
X102.9Y-127.2
X102.9Y-128.5
X102.9Y-129.3
X102.9Y-130.6
X102.9Y-131.5
X102.9Y-132.8
X102.9Y-143.2
X102.9Y-144.5
X102.9Y-145.3
X102.9Y-146.6
X102.9Y-147.5
X102.9Y-148.8
X102.98Y-79.175
X102.99Y-63.3
X103.0Y-52.875
X103.0Y-55.5
X103.0Y-57.95
X103.0Y-66.0
X103.25Y-49.9
X103.5Y-81.1
X103.7Y-127.2
X103.7Y-128.5
X103.7Y-129.3
X103.7Y-130.6
X103.7Y-131.5
X103.7Y-132.8
X103.7Y-143.2
X103.7Y-144.5
X103.7Y-145.3
X103.7Y-146.6
X103.7Y-147.5
X103.7Y-148.8
X103.75Y-50.75
X103.75Y-60.0
X103.75Y-61.5
X103.75Y-70.75
X103.75Y-72.25
X104.25Y-49.9
X104.25Y-68.75
X104.25Y-74.1
X104.25Y-76.75
X104.48Y-79.175
X104.49Y-63.3
X104.5Y-52.875
X104.5Y-55.5
X104.5Y-57.95
X104.5Y-66.0
X104.5Y-81.1
X104.7Y-127.2
X104.7Y-128.5
X104.7Y-129.3
X104.7Y-130.6
X104.7Y-131.5
X104.7Y-132.8
X104.7Y-143.2
X104.7Y-144.5
X104.7Y-145.3
X104.7Y-146.6
X104.7Y-147.5
X104.7Y-148.8
X104.75Y-50.75
X104.75Y-60.0
X104.75Y-61.5
X104.75Y-70.75
X104.75Y-72.25
X105.25Y-49.9
X105.41Y-187.96
X105.5Y-81.1
X105.6Y-127.2
X105.6Y-128.5
X105.6Y-129.3
X105.6Y-130.6
X105.6Y-131.5
X105.6Y-132.8
X105.6Y-143.2
X105.6Y-144.5
X105.6Y-145.3
X105.6Y-146.6
X105.6Y-147.5
X105.6Y-148.8
X105.75Y-50.75
X105.75Y-60.0
X105.75Y-61.5
X105.75Y-68.75
X105.75Y-70.75
X105.75Y-72.25
X105.75Y-74.1
X105.75Y-76.75
X105.95Y-138.1
X105.98Y-79.175
X105.99Y-63.3
X106.0Y-52.875
X106.0Y-55.5
X106.0Y-57.95
X106.0Y-66.0
X106.25Y-49.9
X106.5Y-81.1
X106.6Y-127.2
X106.6Y-128.5
X106.6Y-129.3
X106.6Y-130.6
X106.6Y-131.5
X106.6Y-132.8
X106.6Y-143.2
X106.6Y-144.5
X106.6Y-145.3
X106.6Y-146.6
X106.6Y-147.5
X106.6Y-148.8
X106.75Y-50.75
X106.75Y-60.0
X106.75Y-61.5
X106.75Y-70.75
X106.75Y-72.25
X107.25Y-49.9
X107.75Y-50.75
X107.95Y-187.96
X108.07Y-52.82
X108.07Y-54.32
X108.07Y-55.82
X108.07Y-57.32
X108.07Y-58.82
X108.07Y-63.32
X108.07Y-64.82
X108.07Y-66.07
X108.07Y-67.57
X108.07Y-69.07
X108.07Y-73.57
X108.07Y-74.82
X108.07Y-76.32
X108.07Y-77.82
X108.07Y-79.32
X108.25Y-49.9
X108.75Y-50.75
X109.25Y-49.9
X109.32Y-52.82
X109.32Y-54.32
X109.32Y-55.82
X109.32Y-57.32
X109.32Y-58.82
X109.32Y-63.32
X109.32Y-64.82
X109.32Y-66.07
X109.32Y-67.57
X109.32Y-69.07
X109.32Y-73.57
X109.32Y-74.82
X109.32Y-76.32
X109.32Y-77.82
X109.32Y-79.32
X109.75Y-50.75
X110.25Y-49.9
X110.49Y-187.96
X110.75Y-50.75
X110.82Y-52.82
X110.82Y-54.32
X110.82Y-55.82
X110.82Y-57.32
X110.82Y-58.82
X110.82Y-63.32
X110.82Y-64.82
X110.82Y-66.07
X110.82Y-67.57
X110.82Y-69.07
X110.82Y-73.57
X110.82Y-74.82
X110.82Y-76.32
X110.82Y-77.82
X110.82Y-79.32
X111.25Y-49.9
X111.75Y-50.75
X112.25Y-49.9
X112.32Y-52.82
X112.32Y-54.32
X112.32Y-55.82
X112.32Y-57.32
X112.32Y-58.82
X112.32Y-63.32
X112.32Y-64.82
X112.32Y-66.07
X112.32Y-67.57
X112.32Y-69.07
X112.32Y-73.57
X112.32Y-74.82
X112.32Y-76.32
X112.32Y-77.82
X112.32Y-79.32
X112.75Y-50.75
X113.03Y-187.96
X114.554Y-114.427
X114.554Y-116.967
X114.554Y-119.38
X114.554Y-122.047
X115.57Y-187.96
X116.332Y-112.522
X116.586Y-120.269
X118.11Y-110.871
X118.11Y-187.96
X118.2Y-82.6
X118.237Y-118.491
X118.618Y-25.146
X119.761Y-109.22
X120.269Y-116.586
X121.158Y-25.146
X121.412Y-107.442
X122.174Y-114.808
X123.317Y-105.537
X123.698Y-25.146
X124.2Y-54.75
X124.206Y-112.903
X124.279Y-56.0
X125.222Y-104.013
X125.323Y-53.1
X125.857Y-110.744
X126.238Y-25.146
X126.746Y-102.616
X126.746Y-108.077
X126.873Y-105.283
X128.27Y-187.96
X128.778Y-25.146
X130.81Y-187.96
X131.25Y-59.4
X132.55Y-54.29
X133.676Y-54.5
X134.8Y-59.5
X136.22Y-54.3
X137.176Y-54.456
X138.684Y-32.512
X138.684Y-35.052
X138.684Y-37.592
X138.684Y-40.132
X138.684Y-42.672
X138.684Y-45.212
X138.684Y-47.752
X138.684Y-57.912
X138.684Y-60.452
X138.684Y-62.992
X138.684Y-65.532
X138.684Y-68.072
X138.684Y-70.612
X138.684Y-73.152
X138.684Y-83.312
X138.684Y-85.852
X138.684Y-88.392
X138.684Y-90.932
X138.684Y-93.472
X138.684Y-96.012
X138.684Y-98.552
X138.684Y-101.092
X138.684Y-103.632
X138.684Y-106.172
X138.684Y-108.712
X138.684Y-111.252
X138.684Y-113.792
X138.684Y-116.332
X138.684Y-118.872
X138.684Y-121.412
X138.684Y-123.952
X138.684Y-126.492
X138.684Y-129.032
X138.684Y-131.572
X138.684Y-134.112
X138.684Y-136.652
X138.684Y-139.192
X138.684Y-141.732
X138.684Y-144.272
X138.684Y-146.812
X138.684Y-149.352
X138.684Y-151.892
X138.684Y-154.432
X138.684Y-156.972
X138.684Y-159.512
X138.684Y-162.052
X138.684Y-164.592
X138.684Y-167.132
X138.684Y-169.672
X138.684Y-172.212
X138.684Y-174.752
X138.684Y-177.292
X138.8Y-53.0
T4
X52.6Y-28.0
X52.6Y-78.0
X52.6Y-185.0
X53.303Y-26.303
X53.303Y-29.697
X53.303Y-76.303
X53.303Y-79.697
X53.303Y-183.303
X53.303Y-186.697
X55.0Y-25.6
X55.0Y-30.4
X55.0Y-75.6
X55.0Y-80.4
X55.0Y-182.6
X55.0Y-187.4
X56.697Y-26.303
X56.697Y-29.697
X56.697Y-76.303
X56.697Y-79.697
X56.697Y-183.303
X56.697Y-186.697
X57.4Y-28.0
X57.4Y-78.0
X57.4Y-185.0
X133.6Y-28.0
X133.6Y-78.0
X133.6Y-185.0
X134.303Y-26.303
X134.303Y-29.697
X134.303Y-76.303
X134.303Y-79.697
X134.303Y-183.303
X134.303Y-186.697
X136.0Y-25.6
X136.0Y-30.4
X136.0Y-75.6
X136.0Y-80.4
X136.0Y-182.6
X136.0Y-187.4
X137.697Y-26.303
X137.697Y-29.697
X137.697Y-76.303
X137.697Y-79.697
X137.697Y-183.303
X137.697Y-186.697
X138.4Y-28.0
X138.4Y-78.0
X138.4Y-185.0
T5
X59.65Y-27.0
X70.65Y-27.0
X88.31Y-25.25
X88.31Y-48.17
X90.85Y-25.25
X90.85Y-48.17
X93.39Y-25.25
X93.39Y-48.17
X95.93Y-25.25
X95.93Y-48.17
X98.47Y-25.25
X98.47Y-48.17
X101.01Y-25.25
X101.01Y-48.17
X103.55Y-25.25
X103.55Y-48.17
X106.09Y-25.25
X106.09Y-48.17
X108.63Y-25.25
X108.63Y-48.17
X111.17Y-25.25
X111.17Y-48.17
X113.71Y-25.25
X113.71Y-48.17
X116.25Y-25.25
X116.25Y-48.17
T6
X75.5Y-28.1
X75.5Y-30.64
X75.5Y-33.18
X75.5Y-35.72
X75.5Y-39.9
X75.5Y-42.44
X75.5Y-44.98
X75.5Y-47.52
T7
X62.65Y-37.0
X67.65Y-37.0
T8
X61.673Y-42.03
X61.673Y-51.95
X65.073Y-42.03
X65.073Y-51.95
T9
X55.0Y-28.0
X55.0Y-78.0
X55.0Y-185.0
X136.0Y-28.0
X136.0Y-78.0
X136.0Y-185.0
M30
