G04 #@! TF.GenerationSoftware,KiCad,Pcbnew,9.0.7*
G04 #@! TF.CreationDate,2026-01-30T15:42:09+02:00*
G04 #@! TF.ProjectId,nerdqaxe++,6e657264-7161-4786-952b-2b2e6b696361,rev?*
G04 #@! TF.SameCoordinates,Original*
G04 #@! TF.FileFunction,Paste,Top*
G04 #@! TF.FilePolarity,Positive*
%FSLAX46Y46*%
G04 Gerber Fmt 4.6, Leading zero omitted, Abs format (unit mm)*
G04 Created by KiCad (PCBNEW 9.0.7) date 2026-01-30 15:42:09*
%MOMM*%
%LPD*%
G01*
G04 APERTURE LIST*
G04 Aperture macros list*
%AMRoundRect*
0 Rectangle with rounded corners*
0 $1 Rounding radius*
0 $2 $3 $4 $5 $6 $7 $8 $9 X,Y pos of 4 corners*
0 Add a 4 corners polygon primitive as box body*
4,1,4,$2,$3,$4,$5,$6,$7,$8,$9,$2,$3,0*
0 Add four circle primitives for the rounded corners*
1,1,$1+$1,$2,$3*
1,1,$1+$1,$4,$5*
1,1,$1+$1,$6,$7*
1,1,$1+$1,$8,$9*
0 Add four rect primitives between the rounded corners*
20,1,$1+$1,$2,$3,$4,$5,0*
20,1,$1+$1,$4,$5,$6,$7,0*
20,1,$1+$1,$6,$7,$8,$9,0*
20,1,$1+$1,$8,$9,$2,$3,0*%
%AMFreePoly0*
4,1,19,0.178553,0.213392,0.221317,0.164040,0.231790,0.115895,0.231790,-0.012362,0.213392,-0.075020,0.197845,-0.094312,0.094312,-0.197845,0.036997,-0.229141,0.012362,-0.231790,-0.115895,-0.231790,-0.178553,-0.213392,-0.221317,-0.164040,-0.231790,-0.115895,-0.231790,0.115895,-0.213392,0.178553,-0.164040,0.221317,-0.115895,0.231790,0.115895,0.231790,0.178553,0.213392,0.178553,0.213392,
$1*%
%AMFreePoly1*
4,1,21,0.122595,0.381565,0.128518,0.376137,0.204814,0.299841,0.231439,0.242746,0.231789,0.234719,0.231789,-0.234719,0.210242,-0.293918,0.204814,-0.299841,0.128518,-0.376137,0.071423,-0.402762,0.063396,-0.403112,-0.139692,-0.403112,-0.198891,-0.381565,-0.230390,-0.327007,-0.231789,-0.311015,-0.231789,0.311015,-0.210242,0.370214,-0.155684,0.401713,-0.139692,0.403112,0.063396,0.403112,
0.122595,0.381565,0.122595,0.381565,$1*%
%AMFreePoly2*
4,1,19,0.075020,0.213392,0.094312,0.197845,0.197845,0.094312,0.229141,0.036997,0.231790,0.012362,0.231790,-0.115895,0.213392,-0.178553,0.164040,-0.221317,0.115895,-0.231790,-0.115895,-0.231790,-0.178553,-0.213392,-0.221317,-0.164040,-0.231790,-0.115895,-0.231790,0.115895,-0.213392,0.178553,-0.164040,0.221317,-0.115895,0.231790,0.012362,0.231790,0.075020,0.213392,0.075020,0.213392,
$1*%
%AMFreePoly3*
4,1,21,0.370214,0.210242,0.401713,0.155684,0.403112,0.139692,0.403112,-0.063396,0.381565,-0.122595,0.376137,-0.128518,0.299841,-0.204814,0.242746,-0.231439,0.234719,-0.231789,-0.234719,-0.231789,-0.293918,-0.210242,-0.299841,-0.204814,-0.376137,-0.128518,-0.402762,-0.071423,-0.403112,-0.063396,-0.403112,0.139692,-0.381565,0.198891,-0.327007,0.230390,-0.311015,0.231789,0.311015,0.231789,
0.370214,0.210242,0.370214,0.210242,$1*%
%AMFreePoly4*
4,1,21,0.293918,0.210242,0.299841,0.204814,0.376137,0.128518,0.402762,0.071423,0.403112,0.063396,0.403112,-0.139692,0.381565,-0.198891,0.327007,-0.230390,0.311015,-0.231789,-0.311015,-0.231789,-0.370214,-0.210242,-0.401713,-0.155684,-0.403112,-0.139692,-0.403112,0.063396,-0.381565,0.122595,-0.376137,0.128518,-0.299841,0.204814,-0.242746,0.231439,-0.234719,0.231789,0.234719,0.231789,
0.293918,0.210242,0.293918,0.210242,$1*%
%AMFreePoly5*
4,1,19,0.178553,0.213392,0.221317,0.164040,0.231790,0.115895,0.231790,-0.115895,0.213392,-0.178553,0.164040,-0.221317,0.115895,-0.231790,-0.012362,-0.231790,-0.075020,-0.213392,-0.094312,-0.197845,-0.197845,-0.094312,-0.229141,-0.036997,-0.231790,-0.012362,-0.231790,0.115895,-0.213392,0.178553,-0.164040,0.221317,-0.115895,0.231790,0.115895,0.231790,0.178553,0.213392,0.178553,0.213392,
$1*%
%AMFreePoly6*
4,1,21,0.198891,0.381565,0.230390,0.327007,0.231789,0.311015,0.231789,-0.311015,0.210242,-0.370214,0.155684,-0.401713,0.139692,-0.403112,-0.063396,-0.403112,-0.122595,-0.381565,-0.128518,-0.376137,-0.204814,-0.299841,-0.231439,-0.242746,-0.231789,-0.234719,-0.231789,0.234719,-0.210242,0.293918,-0.204814,0.299841,-0.128518,0.376137,-0.071423,0.402762,-0.063396,0.403112,0.139692,0.403112,
0.198891,0.381565,0.198891,0.381565,$1*%
%AMFreePoly7*
4,1,19,0.178553,0.213392,0.221317,0.164040,0.231790,0.115895,0.231790,-0.115895,0.213392,-0.178553,0.164040,-0.221317,0.115895,-0.231790,-0.115895,-0.231790,-0.178553,-0.213392,-0.221317,-0.164040,-0.231790,-0.115895,-0.231790,0.012362,-0.213392,0.075020,-0.197845,0.094312,-0.094312,0.197845,-0.036997,0.229141,-0.012362,0.231790,0.115895,0.231790,0.178553,0.213392,0.178553,0.213392,
$1*%
G04 Aperture macros list end*
%ADD10C,0.750000*%
%ADD11RoundRect,0.250000X1.100000X-0.325000X1.100000X0.325000X-1.100000X0.325000X-1.100000X-0.325000X0*%
%ADD12RoundRect,0.250000X-0.450000X0.262500X-0.450000X-0.262500X0.450000X-0.262500X0.450000X0.262500X0*%
%ADD13RoundRect,0.250000X-0.250000X-0.475000X0.250000X-0.475000X0.250000X0.475000X-0.250000X0.475000X0*%
%ADD14RoundRect,0.200000X0.200000X0.275000X-0.200000X0.275000X-0.200000X-0.275000X0.200000X-0.275000X0*%
%ADD15RoundRect,0.250000X0.250000X0.475000X-0.250000X0.475000X-0.250000X-0.475000X0.250000X-0.475000X0*%
%ADD16RoundRect,0.250000X-0.325000X-1.100000X0.325000X-1.100000X0.325000X1.100000X-0.325000X1.100000X0*%
%ADD17RoundRect,0.110000X-0.440000X0.540000X-0.440000X-0.540000X0.440000X-0.540000X0.440000X0.540000X0*%
%ADD18RoundRect,0.120000X-0.630000X0.480000X-0.630000X-0.480000X0.630000X-0.480000X0.630000X0.480000X0*%
%ADD19RoundRect,0.055250X-0.055250X0.340750X-0.055250X-0.340750X0.055250X-0.340750X0.055250X0.340750X0*%
%ADD20RoundRect,0.250000X-1.100000X0.325000X-1.100000X-0.325000X1.100000X-0.325000X1.100000X0.325000X0*%
%ADD21R,3.500000X3.800000*%
%ADD22RoundRect,0.250000X0.450000X-0.262500X0.450000X0.262500X-0.450000X0.262500X-0.450000X-0.262500X0*%
%ADD23RoundRect,0.250000X-0.262500X-0.450000X0.262500X-0.450000X0.262500X0.450000X-0.262500X0.450000X0*%
%ADD24RoundRect,0.050000X-0.100000X0.285000X-0.100000X-0.285000X0.100000X-0.285000X0.100000X0.285000X0*%
%ADD25RoundRect,0.250000X1.500000X1.000000X-1.500000X1.000000X-1.500000X-1.000000X1.500000X-1.000000X0*%
%ADD26FreePoly0,90.000000*%
%ADD27FreePoly1,90.000000*%
%ADD28FreePoly2,90.000000*%
%ADD29FreePoly3,90.000000*%
%ADD30RoundRect,0.201557X0.201556X-0.201556X0.201556X0.201556X-0.201556X0.201556X-0.201556X-0.201556X0*%
%ADD31FreePoly4,90.000000*%
%ADD32FreePoly5,90.000000*%
%ADD33FreePoly6,90.000000*%
%ADD34FreePoly7,90.000000*%
%ADD35RoundRect,0.062500X0.062500X-0.375000X0.062500X0.375000X-0.062500X0.375000X-0.062500X-0.375000X0*%
%ADD36RoundRect,0.062500X0.375000X-0.062500X0.375000X0.062500X-0.375000X0.062500X-0.375000X-0.062500X0*%
%ADD37RoundRect,0.250000X0.475000X-0.250000X0.475000X0.250000X-0.475000X0.250000X-0.475000X-0.250000X0*%
%ADD38RoundRect,0.250000X0.900000X-1.000000X0.900000X1.000000X-0.900000X1.000000X-0.900000X-1.000000X0*%
%ADD39RoundRect,0.250000X-0.475000X0.250000X-0.475000X-0.250000X0.475000X-0.250000X0.475000X0.250000X0*%
%ADD40RoundRect,0.100000X-0.100000X0.637500X-0.100000X-0.637500X0.100000X-0.637500X0.100000X0.637500X0*%
%ADD41RoundRect,0.225000X-0.225000X-0.250000X0.225000X-0.250000X0.225000X0.250000X-0.225000X0.250000X0*%
%ADD42RoundRect,0.100000X-0.550000X-0.400000X0.550000X-0.400000X0.550000X0.400000X-0.550000X0.400000X0*%
%ADD43R,1.000000X0.300000*%
%ADD44R,0.550000X2.800000*%
%ADD45R,0.450000X0.300000*%
%ADD46R,0.410000X0.330500*%
%ADD47RoundRect,0.150000X-0.150000X0.512500X-0.150000X-0.512500X0.150000X-0.512500X0.150000X0.512500X0*%
%ADD48RoundRect,0.250000X0.262500X0.450000X-0.262500X0.450000X-0.262500X-0.450000X0.262500X-0.450000X0*%
%ADD49RoundRect,0.250000X0.450000X0.800000X-0.450000X0.800000X-0.450000X-0.800000X0.450000X-0.800000X0*%
%ADD50RoundRect,0.150000X-0.512500X-0.150000X0.512500X-0.150000X0.512500X0.150000X-0.512500X0.150000X0*%
%ADD51RoundRect,0.110000X0.440000X-0.540000X0.440000X0.540000X-0.440000X0.540000X-0.440000X-0.540000X0*%
%ADD52RoundRect,0.120000X0.630000X-0.480000X0.630000X0.480000X-0.630000X0.480000X-0.630000X-0.480000X0*%
%ADD53RoundRect,0.055250X0.055250X-0.340750X0.055250X0.340750X-0.055250X0.340750X-0.055250X-0.340750X0*%
%ADD54R,1.500000X4.000000*%
%ADD55RoundRect,0.225000X-0.250000X0.225000X-0.250000X-0.225000X0.250000X-0.225000X0.250000X0.225000X0*%
%ADD56R,0.300000X0.800000*%
%ADD57RoundRect,0.087500X0.725000X0.087500X-0.725000X0.087500X-0.725000X-0.087500X0.725000X-0.087500X0*%
%ADD58RoundRect,0.225000X0.225000X0.375000X-0.225000X0.375000X-0.225000X-0.375000X0.225000X-0.375000X0*%
G04 APERTURE END LIST*
D10*
X62375000Y-105000000D02*
G75*
G02*
X61625000Y-105000000I-375000J0D01*
G01*
X61625000Y-105000000D02*
G75*
G02*
X62375000Y-105000000I375000J0D01*
G01*
X62375000Y-171000000D02*
G75*
G02*
X61625000Y-171000000I-375000J0D01*
G01*
X61625000Y-171000000D02*
G75*
G02*
X62375000Y-171000000I375000J0D01*
G01*
X128375000Y-171000000D02*
G75*
G02*
X127625000Y-171000000I-375000J0D01*
G01*
X127625000Y-171000000D02*
G75*
G02*
X128375000Y-171000000I375000J0D01*
G01*
X128375000Y-105000000D02*
G75*
G02*
X127625000Y-105000000I-375000J0D01*
G01*
X127625000Y-105000000D02*
G75*
G02*
X128375000Y-105000000I375000J0D01*
G01*
D11*
X108000000Y-75875000D03*
X108000000Y-72925000D03*
D12*
X81600000Y-29237500D03*
X81600000Y-31062500D03*
D13*
X95550000Y-38800000D03*
X97450000Y-38800000D03*
D14*
X76425000Y-69550000D03*
X74775000Y-69550000D03*
D15*
X133626315Y-59976089D03*
X131726315Y-59976089D03*
D16*
X54325000Y-36300000D03*
X57275000Y-36300000D03*
D17*
X87900000Y-127700000D03*
X86600000Y-127700000D03*
X85200000Y-127700000D03*
X83900000Y-127700000D03*
D18*
X89950000Y-127750000D03*
D17*
X87900000Y-129200000D03*
X86600000Y-129200000D03*
X85200000Y-129200000D03*
X83900000Y-129200000D03*
D18*
X89950000Y-129250000D03*
X89950000Y-130750000D03*
D17*
X87900000Y-130800000D03*
X86600000Y-130800000D03*
X85200000Y-130800000D03*
X83900000Y-130800000D03*
D18*
X89950000Y-132250000D03*
D17*
X87900000Y-132300000D03*
X86600000Y-132300000D03*
X85200000Y-132300000D03*
X83900000Y-132300000D03*
D19*
X90500000Y-126084000D03*
X90000000Y-126084000D03*
X89500000Y-126084000D03*
X89000000Y-126084000D03*
X88500000Y-126084000D03*
X88000000Y-126084000D03*
X87500000Y-126084000D03*
X87000000Y-126084000D03*
X86500000Y-126084000D03*
X86000000Y-126084000D03*
X85500000Y-126084000D03*
X85000000Y-126084000D03*
X84500000Y-126084000D03*
X84000000Y-126084000D03*
X83500000Y-126084000D03*
X83500000Y-133916000D03*
X84000000Y-133916000D03*
X84500000Y-133916000D03*
X85000000Y-133916000D03*
X85500000Y-133916000D03*
X86000000Y-133916000D03*
X86500000Y-133916000D03*
X87000000Y-133916000D03*
X87500000Y-133916000D03*
X88000000Y-133916000D03*
X88500000Y-133916000D03*
X89000000Y-133916000D03*
X89500000Y-133916000D03*
X90000000Y-133916000D03*
X90500000Y-133916000D03*
D20*
X68580000Y-77160000D03*
X68580000Y-80110000D03*
D12*
X79700000Y-29237500D03*
X79700000Y-31062500D03*
X91900000Y-31197500D03*
X91900000Y-33022500D03*
D21*
X90060000Y-55200000D03*
X97910000Y-55200000D03*
D22*
X53600000Y-55212500D03*
X53600000Y-53387500D03*
D12*
X55600000Y-53387500D03*
X55600000Y-55212500D03*
D11*
X104750000Y-54450000D03*
X104750000Y-51500000D03*
D23*
X84884123Y-63094379D03*
X86709123Y-63094379D03*
D24*
X109840000Y-137280000D03*
X109340000Y-137280000D03*
X108840000Y-137280000D03*
X108840000Y-138760000D03*
X109340000Y-138760000D03*
X109840000Y-138760000D03*
D22*
X89900000Y-33012500D03*
X89900000Y-31187500D03*
D20*
X104740000Y-66970000D03*
X104740000Y-69920000D03*
D15*
X137126315Y-53556089D03*
X135226315Y-53556089D03*
D25*
X62750000Y-70100000D03*
X56250000Y-70100000D03*
D20*
X71790000Y-66470000D03*
X71790000Y-69420000D03*
D22*
X93493750Y-44912500D03*
X93493750Y-43087500D03*
D26*
X88306250Y-40225000D03*
D27*
X89093750Y-40225000D03*
X90093750Y-40225000D03*
X91093750Y-40225000D03*
D28*
X91881250Y-40225000D03*
D29*
X88306250Y-39437500D03*
D30*
X89093750Y-39437500D03*
X90093750Y-39437500D03*
X91093750Y-39437500D03*
D31*
X91881250Y-39437500D03*
D29*
X88306250Y-38437500D03*
D30*
X89093750Y-38437500D03*
X90093750Y-38437500D03*
X91093750Y-38437500D03*
D31*
X91881250Y-38437500D03*
D29*
X88306250Y-37437500D03*
D30*
X89093750Y-37437500D03*
X90093750Y-37437500D03*
X91093750Y-37437500D03*
D31*
X91881250Y-37437500D03*
D32*
X88306250Y-36650000D03*
D33*
X89093750Y-36650000D03*
X90093750Y-36650000D03*
X91093750Y-36650000D03*
D34*
X91881250Y-36650000D03*
D35*
X87843750Y-41375000D03*
X88343750Y-41375000D03*
X88843750Y-41375000D03*
X89343750Y-41375000D03*
X89843750Y-41375000D03*
X90343750Y-41375000D03*
X90843750Y-41375000D03*
X91343750Y-41375000D03*
X91843750Y-41375000D03*
X92343750Y-41375000D03*
D36*
X93031250Y-40687500D03*
X93031250Y-40187500D03*
X93031250Y-39687500D03*
X93031250Y-39187500D03*
X93031250Y-38687500D03*
X93031250Y-38187500D03*
X93031250Y-37687500D03*
X93031250Y-37187500D03*
X93031250Y-36687500D03*
X93031250Y-36187500D03*
D35*
X92343750Y-35500000D03*
X91843750Y-35500000D03*
X91343750Y-35500000D03*
X90843750Y-35500000D03*
X90343750Y-35500000D03*
X89843750Y-35500000D03*
X89343750Y-35500000D03*
X88843750Y-35500000D03*
X88343750Y-35500000D03*
X87843750Y-35500000D03*
D36*
X87156250Y-36187500D03*
X87156250Y-36687500D03*
X87156250Y-37187500D03*
X87156250Y-37687500D03*
X87156250Y-38187500D03*
X87156250Y-38687500D03*
X87156250Y-39187500D03*
X87156250Y-39687500D03*
X87156250Y-40187500D03*
X87156250Y-40687500D03*
D13*
X79637500Y-36800000D03*
X81537500Y-36800000D03*
D37*
X74500000Y-53950000D03*
X74500000Y-52050000D03*
X87900000Y-33050000D03*
X87900000Y-31150000D03*
D13*
X83350000Y-30850000D03*
X85250000Y-30850000D03*
D22*
X88093750Y-45312500D03*
X88093750Y-43487500D03*
D11*
X111500000Y-54500000D03*
X111500000Y-51550000D03*
D15*
X83190000Y-62457500D03*
X81290000Y-62457500D03*
D22*
X86940000Y-69932500D03*
X86940000Y-68107500D03*
D11*
X68540000Y-64720000D03*
X68540000Y-61770000D03*
D12*
X97700000Y-31187500D03*
X97700000Y-33012500D03*
D38*
X69400000Y-47650000D03*
X69400000Y-43350000D03*
D39*
X78480000Y-81650000D03*
X78480000Y-83550000D03*
D40*
X127980000Y-54077500D03*
X127330000Y-54077500D03*
X126680000Y-54077500D03*
X126030000Y-54077500D03*
X125380000Y-54077500D03*
X124730000Y-54077500D03*
X124080000Y-54077500D03*
X124080000Y-59802500D03*
X124730000Y-59802500D03*
X125380000Y-59802500D03*
X126030000Y-59802500D03*
X126680000Y-59802500D03*
X127330000Y-59802500D03*
X127980000Y-59802500D03*
D15*
X81537500Y-43400000D03*
X79637500Y-43400000D03*
D21*
X90050000Y-65920000D03*
X97900000Y-65920000D03*
D39*
X129860000Y-54130000D03*
X129860000Y-56030000D03*
D41*
X74925000Y-57250000D03*
X76475000Y-57250000D03*
D11*
X108000000Y-54475000D03*
X108000000Y-51525000D03*
D22*
X138880000Y-55670000D03*
X138880000Y-53845000D03*
D13*
X95550000Y-44800000D03*
X97450000Y-44800000D03*
D15*
X82900000Y-60437500D03*
X81000000Y-60437500D03*
D42*
X79765000Y-64925227D03*
X79765000Y-66225227D03*
X79765000Y-67525227D03*
X79765000Y-68825227D03*
X81365000Y-64925227D03*
X81365000Y-66225227D03*
X81365000Y-67525227D03*
X81365000Y-68825227D03*
D43*
X83015000Y-69357500D03*
X83015000Y-68857500D03*
X83015000Y-68357500D03*
X83015000Y-67857500D03*
X83015000Y-67357500D03*
D44*
X82790000Y-65607500D03*
D45*
X83290000Y-64357500D03*
X83290000Y-64857500D03*
X83290000Y-65357500D03*
X83290000Y-65857500D03*
X83290000Y-66357500D03*
X83290000Y-66857500D03*
X77840000Y-64357500D03*
X77840000Y-64857500D03*
X77840000Y-65357500D03*
X77840000Y-65857500D03*
X77840000Y-66357500D03*
X77840000Y-66857500D03*
D44*
X78340000Y-65607500D03*
D43*
X78115000Y-67357500D03*
X78115000Y-67857500D03*
X78115000Y-68357500D03*
X78115000Y-68857500D03*
X78115000Y-69357500D03*
D46*
X79440000Y-63872750D03*
X79440000Y-69842250D03*
X81690000Y-63872750D03*
X81690000Y-69842250D03*
D12*
X95800000Y-31187500D03*
X95800000Y-33012500D03*
D15*
X83180000Y-73147500D03*
X81280000Y-73147500D03*
D22*
X83590000Y-37942500D03*
X83590000Y-36117500D03*
D20*
X108000000Y-66925000D03*
X108000000Y-69875000D03*
D39*
X90080000Y-43450000D03*
X90080000Y-45350000D03*
X78500000Y-60200000D03*
X78500000Y-62100000D03*
D47*
X137176315Y-55576089D03*
X136226315Y-55576089D03*
X135276315Y-55576089D03*
X135276315Y-57851089D03*
X137176315Y-57851089D03*
D15*
X82880000Y-81847500D03*
X80980000Y-81847500D03*
D39*
X84950000Y-57350000D03*
X84950000Y-59250000D03*
D12*
X93800000Y-31207500D03*
X93800000Y-33032500D03*
D11*
X68530000Y-75410000D03*
X68530000Y-72460000D03*
D23*
X83787500Y-41200000D03*
X85612500Y-41200000D03*
D14*
X76525000Y-58800000D03*
X74875000Y-58800000D03*
D11*
X108000000Y-65175000D03*
X108000000Y-62225000D03*
D39*
X78490000Y-70950000D03*
X78490000Y-72850000D03*
D11*
X101500000Y-54475000D03*
X101500000Y-51525000D03*
D20*
X104730000Y-77660000D03*
X104730000Y-80610000D03*
X72000000Y-55750000D03*
X72000000Y-58700000D03*
D37*
X74390000Y-64670000D03*
X74390000Y-62770000D03*
D13*
X95550000Y-40800000D03*
X97450000Y-40800000D03*
X55750000Y-47900000D03*
X57650000Y-47900000D03*
D22*
X86930000Y-80622500D03*
X86930000Y-78797500D03*
D11*
X101480000Y-75885000D03*
X101480000Y-72935000D03*
D23*
X84884123Y-73796208D03*
X86709123Y-73796208D03*
D11*
X104740000Y-65170000D03*
X104740000Y-62220000D03*
D37*
X76380000Y-75360000D03*
X76380000Y-73460000D03*
D48*
X97412500Y-42800000D03*
X95587500Y-42800000D03*
D12*
X85490000Y-36117500D03*
X85490000Y-37942500D03*
D11*
X71780000Y-75410000D03*
X71780000Y-72460000D03*
D49*
X58100000Y-45200000D03*
X53700000Y-45200000D03*
D37*
X76390000Y-64670000D03*
X76390000Y-62770000D03*
D17*
X87900000Y-143700000D03*
X86600000Y-143700000D03*
X85200000Y-143700000D03*
X83900000Y-143700000D03*
D18*
X89950000Y-143750000D03*
D17*
X87900000Y-145200000D03*
X86600000Y-145200000D03*
X85200000Y-145200000D03*
X83900000Y-145200000D03*
D18*
X89950000Y-145250000D03*
X89950000Y-146750000D03*
D17*
X87900000Y-146800000D03*
X86600000Y-146800000D03*
X85200000Y-146800000D03*
X83900000Y-146800000D03*
D18*
X89950000Y-148250000D03*
D17*
X87900000Y-148300000D03*
X86600000Y-148300000D03*
X85200000Y-148300000D03*
X83900000Y-148300000D03*
D19*
X90500000Y-142084000D03*
X90000000Y-142084000D03*
X89500000Y-142084000D03*
X89000000Y-142084000D03*
X88500000Y-142084000D03*
X88000000Y-142084000D03*
X87500000Y-142084000D03*
X87000000Y-142084000D03*
X86500000Y-142084000D03*
X86000000Y-142084000D03*
X85500000Y-142084000D03*
X85000000Y-142084000D03*
X84500000Y-142084000D03*
X84000000Y-142084000D03*
X83500000Y-142084000D03*
X83500000Y-149916000D03*
X84000000Y-149916000D03*
X84500000Y-149916000D03*
X85000000Y-149916000D03*
X85500000Y-149916000D03*
X86000000Y-149916000D03*
X86500000Y-149916000D03*
X87000000Y-149916000D03*
X87500000Y-149916000D03*
X88000000Y-149916000D03*
X88500000Y-149916000D03*
X89000000Y-149916000D03*
X89500000Y-149916000D03*
X90000000Y-149916000D03*
X90500000Y-149916000D03*
D15*
X86950000Y-71800000D03*
X85050000Y-71800000D03*
D37*
X129840000Y-59920000D03*
X129840000Y-58020000D03*
D20*
X101500000Y-56250000D03*
X101500000Y-59200000D03*
D41*
X74825000Y-68050000D03*
X76375000Y-68050000D03*
D25*
X62807500Y-61000000D03*
X56307500Y-61000000D03*
D50*
X55962500Y-49750000D03*
X55962500Y-50700000D03*
X55962500Y-51650000D03*
X58237500Y-51650000D03*
X58237500Y-50700000D03*
X58237500Y-49750000D03*
D51*
X102100000Y-132300000D03*
X103400000Y-132300000D03*
X104800000Y-132300000D03*
X106100000Y-132300000D03*
D52*
X100050000Y-132250000D03*
D51*
X102100000Y-130800000D03*
X103400000Y-130800000D03*
X104800000Y-130800000D03*
X106100000Y-130800000D03*
D52*
X100050000Y-130750000D03*
X100050000Y-129250000D03*
D51*
X102100000Y-129200000D03*
X103400000Y-129200000D03*
X104800000Y-129200000D03*
X106100000Y-129200000D03*
D52*
X100050000Y-127750000D03*
D51*
X102100000Y-127700000D03*
X103400000Y-127700000D03*
X104800000Y-127700000D03*
X106100000Y-127700000D03*
D53*
X99500000Y-133916000D03*
X100000000Y-133916000D03*
X100500000Y-133916000D03*
X101000000Y-133916000D03*
X101500000Y-133916000D03*
X102000000Y-133916000D03*
X102500000Y-133916000D03*
X103000000Y-133916000D03*
X103500000Y-133916000D03*
X104000000Y-133916000D03*
X104500000Y-133916000D03*
X105000000Y-133916000D03*
X105500000Y-133916000D03*
X106000000Y-133916000D03*
X106500000Y-133916000D03*
X106500000Y-126084000D03*
X106000000Y-126084000D03*
X105500000Y-126084000D03*
X105000000Y-126084000D03*
X104500000Y-126084000D03*
X104000000Y-126084000D03*
X103500000Y-126084000D03*
X103000000Y-126084000D03*
X102500000Y-126084000D03*
X102000000Y-126084000D03*
X101500000Y-126084000D03*
X101000000Y-126084000D03*
X100500000Y-126084000D03*
X100000000Y-126084000D03*
X99500000Y-126084000D03*
D15*
X137126315Y-59856089D03*
X135226315Y-59856089D03*
D54*
X57900000Y-40900000D03*
X54300000Y-40900000D03*
D20*
X108000000Y-77660000D03*
X108000000Y-80610000D03*
D11*
X68700000Y-53975000D03*
X68700000Y-51025000D03*
D23*
X84884123Y-52279008D03*
X86709123Y-52279008D03*
D11*
X101490000Y-65195000D03*
X101490000Y-62245000D03*
D15*
X82890000Y-71157500D03*
X80990000Y-71157500D03*
D47*
X133676315Y-55696089D03*
X132726315Y-55696089D03*
X131776315Y-55696089D03*
X131776315Y-57971089D03*
X133676315Y-57971089D03*
D15*
X133626315Y-53576089D03*
X131726315Y-53576089D03*
D22*
X84100000Y-44812500D03*
X84100000Y-42987500D03*
D51*
X102100000Y-148300000D03*
X103400000Y-148300000D03*
X104800000Y-148300000D03*
X106100000Y-148300000D03*
D52*
X100050000Y-148250000D03*
D51*
X102100000Y-146800000D03*
X103400000Y-146800000D03*
X104800000Y-146800000D03*
X106100000Y-146800000D03*
D52*
X100050000Y-146750000D03*
X100050000Y-145250000D03*
D51*
X102100000Y-145200000D03*
X103400000Y-145200000D03*
X104800000Y-145200000D03*
X106100000Y-145200000D03*
D52*
X100050000Y-143750000D03*
D51*
X102100000Y-143700000D03*
X103400000Y-143700000D03*
X104800000Y-143700000D03*
X106100000Y-143700000D03*
D53*
X99500000Y-149916000D03*
X100000000Y-149916000D03*
X100500000Y-149916000D03*
X101000000Y-149916000D03*
X101500000Y-149916000D03*
X102000000Y-149916000D03*
X102500000Y-149916000D03*
X103000000Y-149916000D03*
X103500000Y-149916000D03*
X104000000Y-149916000D03*
X104500000Y-149916000D03*
X105000000Y-149916000D03*
X105500000Y-149916000D03*
X106000000Y-149916000D03*
X106500000Y-149916000D03*
X106500000Y-142084000D03*
X106000000Y-142084000D03*
X105500000Y-142084000D03*
X105000000Y-142084000D03*
X104500000Y-142084000D03*
X104000000Y-142084000D03*
X103500000Y-142084000D03*
X103000000Y-142084000D03*
X102500000Y-142084000D03*
X102000000Y-142084000D03*
X101500000Y-142084000D03*
X101000000Y-142084000D03*
X100500000Y-142084000D03*
X100000000Y-142084000D03*
X99500000Y-142084000D03*
D11*
X71790000Y-64720000D03*
X71790000Y-61770000D03*
D15*
X97450000Y-34800000D03*
X95550000Y-34800000D03*
D39*
X84940000Y-68070000D03*
X84940000Y-69970000D03*
D14*
X76475000Y-80200000D03*
X74825000Y-80200000D03*
D15*
X83200000Y-51737500D03*
X81300000Y-51737500D03*
D39*
X86100000Y-42900000D03*
X86100000Y-44800000D03*
D21*
X90040000Y-76610000D03*
X97890000Y-76610000D03*
D55*
X91793750Y-43425000D03*
X91793750Y-44975000D03*
D41*
X74925000Y-78700000D03*
X76475000Y-78700000D03*
D22*
X86950000Y-59212500D03*
X86950000Y-57387500D03*
D15*
X97450000Y-36800000D03*
X95550000Y-36800000D03*
D56*
X79837500Y-41700000D03*
X80337500Y-41700000D03*
X80837500Y-41700000D03*
X81337500Y-41700000D03*
X81337500Y-38600000D03*
X80837500Y-38600000D03*
X80337500Y-38600000D03*
X79837500Y-38600000D03*
D20*
X101480000Y-77660000D03*
X101480000Y-80610000D03*
D57*
X84500000Y-34600000D03*
X84500000Y-34100000D03*
X84500000Y-33600000D03*
X84500000Y-33100000D03*
X84500000Y-32600000D03*
X80275000Y-32600000D03*
X80275000Y-33100000D03*
X80275000Y-33600000D03*
X80275000Y-34100000D03*
X80275000Y-34600000D03*
D58*
X115900000Y-28530000D03*
X112600000Y-28530000D03*
D42*
X79775000Y-54205227D03*
X79775000Y-55505227D03*
X79775000Y-56805227D03*
X79775000Y-58105227D03*
X81375000Y-54205227D03*
X81375000Y-55505227D03*
X81375000Y-56805227D03*
X81375000Y-58105227D03*
D43*
X83025000Y-58637500D03*
X83025000Y-58137500D03*
X83025000Y-57637500D03*
X83025000Y-57137500D03*
X83025000Y-56637500D03*
D44*
X82800000Y-54887500D03*
D45*
X83300000Y-53637500D03*
X83300000Y-54137500D03*
X83300000Y-54637500D03*
X83300000Y-55137500D03*
X83300000Y-55637500D03*
X83300000Y-56137500D03*
X77850000Y-53637500D03*
X77850000Y-54137500D03*
X77850000Y-54637500D03*
X77850000Y-55137500D03*
X77850000Y-55637500D03*
X77850000Y-56137500D03*
D44*
X78350000Y-54887500D03*
D43*
X78125000Y-56637500D03*
X78125000Y-57137500D03*
X78125000Y-57637500D03*
X78125000Y-58137500D03*
X78125000Y-58637500D03*
D46*
X79450000Y-53152750D03*
X79450000Y-59122250D03*
X81700000Y-53152750D03*
X81700000Y-59122250D03*
D39*
X84930000Y-78760000D03*
X84930000Y-80660000D03*
D42*
X79755000Y-75615227D03*
X79755000Y-76915227D03*
X79755000Y-78215227D03*
X79755000Y-79515227D03*
X81355000Y-75615227D03*
X81355000Y-76915227D03*
X81355000Y-78215227D03*
X81355000Y-79515227D03*
D43*
X83005000Y-80047500D03*
X83005000Y-79547500D03*
X83005000Y-79047500D03*
X83005000Y-78547500D03*
X83005000Y-78047500D03*
D44*
X82780000Y-76297500D03*
D45*
X83280000Y-75047500D03*
X83280000Y-75547500D03*
X83280000Y-76047500D03*
X83280000Y-76547500D03*
X83280000Y-77047500D03*
X83280000Y-77547500D03*
X77830000Y-75047500D03*
X77830000Y-75547500D03*
X77830000Y-76047500D03*
X77830000Y-76547500D03*
X77830000Y-77047500D03*
X77830000Y-77547500D03*
D44*
X78330000Y-76297500D03*
D43*
X78105000Y-78047500D03*
X78105000Y-78547500D03*
X78105000Y-79047500D03*
X78105000Y-79547500D03*
X78105000Y-80047500D03*
D46*
X79430000Y-74562750D03*
X79430000Y-80532250D03*
X81680000Y-74562750D03*
X81680000Y-80532250D03*
D20*
X71780000Y-77160000D03*
X71780000Y-80110000D03*
D37*
X74380000Y-75360000D03*
X74380000Y-73460000D03*
X76500000Y-53950000D03*
X76500000Y-52050000D03*
D20*
X68590000Y-66470000D03*
X68590000Y-69420000D03*
D11*
X104730000Y-75860000D03*
X104730000Y-72910000D03*
D15*
X86950000Y-61100000D03*
X85050000Y-61100000D03*
D20*
X68700000Y-55750000D03*
X68700000Y-58700000D03*
D11*
X71900000Y-54000000D03*
X71900000Y-51050000D03*
D20*
X104750000Y-56250000D03*
X104750000Y-59200000D03*
D39*
X58200000Y-53350000D03*
X58200000Y-55250000D03*
D20*
X101490000Y-66970000D03*
X101490000Y-69920000D03*
X108000000Y-56225000D03*
X108000000Y-59175000D03*
M02*
