G04 #@! TF.GenerationSoftware,KiCad,Pcbnew,9.0.7*
G04 #@! TF.CreationDate,2026-01-30T15:42:09+02:00*
G04 #@! TF.ProjectId,nerdqaxe++,6e657264-7161-4786-952b-2b2e6b696361,rev?*
G04 #@! TF.SameCoordinates,Original*
G04 #@! TF.FileFunction,Soldermask,Top*
G04 #@! TF.FilePolarity,Negative*
%FSLAX46Y46*%
G04 Gerber Fmt 4.6, Leading zero omitted, Abs format (unit mm)*
G04 Created by KiCad (PCBNEW 9.0.7) date 2026-01-30 15:42:09*
%MOMM*%
%LPD*%
G01*
G04 APERTURE LIST*
G04 Aperture macros list*
%AMRoundRect*
0 Rectangle with rounded corners*
0 $1 Rounding radius*
0 $2 $3 $4 $5 $6 $7 $8 $9 X,Y pos of 4 corners*
0 Add a 4 corners polygon primitive as box body*
4,1,4,$2,$3,$4,$5,$6,$7,$8,$9,$2,$3,0*
0 Add four circle primitives for the rounded corners*
1,1,$1+$1,$2,$3*
1,1,$1+$1,$4,$5*
1,1,$1+$1,$6,$7*
1,1,$1+$1,$8,$9*
0 Add four rect primitives between the rounded corners*
20,1,$1+$1,$2,$3,$4,$5,0*
20,1,$1+$1,$4,$5,$6,$7,0*
20,1,$1+$1,$6,$7,$8,$9,0*
20,1,$1+$1,$8,$9,$2,$3,0*%
G04 Aperture macros list end*
%ADD10C,0.000000*%
%ADD11RoundRect,0.250000X1.100000X-0.325000X1.100000X0.325000X-1.100000X0.325000X-1.100000X-0.325000X0*%
%ADD12C,1.500000*%
%ADD13RoundRect,0.250000X-0.450000X0.262500X-0.450000X-0.262500X0.450000X-0.262500X0.450000X0.262500X0*%
%ADD14RoundRect,0.250000X-0.250000X-0.475000X0.250000X-0.475000X0.250000X0.475000X-0.250000X0.475000X0*%
%ADD15C,2.000000*%
%ADD16RoundRect,0.200000X0.200000X0.275000X-0.200000X0.275000X-0.200000X-0.275000X0.200000X-0.275000X0*%
%ADD17RoundRect,0.250000X0.250000X0.475000X-0.250000X0.475000X-0.250000X-0.475000X0.250000X-0.475000X0*%
%ADD18RoundRect,0.250000X-0.325000X-1.100000X0.325000X-1.100000X0.325000X1.100000X-0.325000X1.100000X0*%
%ADD19RoundRect,0.055250X-0.055250X0.340750X-0.055250X-0.340750X0.055250X-0.340750X0.055250X0.340750X0*%
%ADD20R,1.840000X6.300000*%
%ADD21R,5.520000X6.300000*%
%ADD22RoundRect,0.250000X-1.100000X0.325000X-1.100000X-0.325000X1.100000X-0.325000X1.100000X0.325000X0*%
%ADD23C,5.000000*%
%ADD24R,3.500000X3.800000*%
%ADD25RoundRect,0.250000X0.450000X-0.262500X0.450000X0.262500X-0.450000X0.262500X-0.450000X-0.262500X0*%
%ADD26C,0.800000*%
%ADD27C,6.400000*%
%ADD28RoundRect,0.250000X-0.262500X-0.450000X0.262500X-0.450000X0.262500X0.450000X-0.262500X0.450000X0*%
%ADD29RoundRect,0.050000X-0.100000X0.285000X-0.100000X-0.285000X0.100000X-0.285000X0.100000X0.285000X0*%
%ADD30RoundRect,0.250000X1.500000X1.000000X-1.500000X1.000000X-1.500000X-1.000000X1.500000X-1.000000X0*%
%ADD31RoundRect,0.062500X0.062500X-0.375000X0.062500X0.375000X-0.062500X0.375000X-0.062500X-0.375000X0*%
%ADD32RoundRect,0.062500X0.375000X-0.062500X0.375000X0.062500X-0.375000X0.062500X-0.375000X-0.062500X0*%
%ADD33R,4.150000X4.150000*%
%ADD34RoundRect,0.250000X0.475000X-0.250000X0.475000X0.250000X-0.475000X0.250000X-0.475000X-0.250000X0*%
%ADD35C,4.000000*%
%ADD36C,1.700000*%
%ADD37RoundRect,0.250000X0.900000X-1.000000X0.900000X1.000000X-0.900000X1.000000X-0.900000X-1.000000X0*%
%ADD38RoundRect,0.250000X-0.475000X0.250000X-0.475000X-0.250000X0.475000X-0.250000X0.475000X0.250000X0*%
%ADD39RoundRect,0.100000X-0.100000X0.637500X-0.100000X-0.637500X0.100000X-0.637500X0.100000X0.637500X0*%
%ADD40RoundRect,0.225000X-0.225000X-0.250000X0.225000X-0.250000X0.225000X0.250000X-0.225000X0.250000X0*%
%ADD41R,1.000000X0.300000*%
%ADD42R,0.550000X2.800000*%
%ADD43R,0.450000X0.300000*%
%ADD44R,0.410000X0.330500*%
%ADD45R,3.400000X5.639000*%
%ADD46RoundRect,0.150000X-0.150000X0.512500X-0.150000X-0.512500X0.150000X-0.512500X0.150000X0.512500X0*%
%ADD47R,1.000000X1.000000*%
%ADD48O,1.000000X1.000000*%
%ADD49C,1.100000*%
%ADD50R,2.030000X1.730000*%
%ADD51O,2.030000X1.730000*%
%ADD52RoundRect,0.250000X0.262500X0.450000X-0.262500X0.450000X-0.262500X-0.450000X0.262500X-0.450000X0*%
%ADD53RoundRect,0.250000X0.450000X0.800000X-0.450000X0.800000X-0.450000X-0.800000X0.450000X-0.800000X0*%
%ADD54RoundRect,0.150000X-0.512500X-0.150000X0.512500X-0.150000X0.512500X0.150000X-0.512500X0.150000X0*%
%ADD55RoundRect,0.055250X0.055250X-0.340750X0.055250X0.340750X-0.055250X0.340750X-0.055250X-0.340750X0*%
%ADD56R,1.500000X4.000000*%
%ADD57RoundRect,0.225000X-0.250000X0.225000X-0.250000X-0.225000X0.250000X-0.225000X0.250000X0.225000X0*%
%ADD58R,0.300000X0.800000*%
%ADD59R,2.000000X2.000000*%
%ADD60RoundRect,0.087500X0.725000X0.087500X-0.725000X0.087500X-0.725000X-0.087500X0.725000X-0.087500X0*%
%ADD61RoundRect,0.225000X0.225000X0.375000X-0.225000X0.375000X-0.225000X-0.375000X0.225000X-0.375000X0*%
%ADD62C,2.780000*%
%ADD63C,1.400000*%
%ADD64RoundRect,0.770000X0.980000X0.980000X-0.980000X0.980000X-0.980000X-0.980000X0.980000X-0.980000X0*%
%ADD65C,3.500000*%
G04 APERTURE END LIST*
D10*
G36*
X53843073Y-126641133D02*
G01*
X53864319Y-126649757D01*
X53911807Y-126669311D01*
X53982757Y-126698645D01*
X54074390Y-126736605D01*
X54183927Y-126782039D01*
X54308590Y-126833794D01*
X54445598Y-126890718D01*
X54592173Y-126951658D01*
X54682166Y-126989094D01*
X54832413Y-127051599D01*
X54974189Y-127110567D01*
X55104796Y-127164876D01*
X55221534Y-127213405D01*
X55321701Y-127255031D01*
X55402599Y-127288631D01*
X55461527Y-127313084D01*
X55495785Y-127327268D01*
X55503422Y-127330401D01*
X55510151Y-127326491D01*
X55515254Y-127306688D01*
X55518915Y-127267921D01*
X55521317Y-127207118D01*
X55522640Y-127121209D01*
X55523069Y-127007123D01*
X55523070Y-126999503D01*
X55523593Y-126899661D01*
X55525055Y-126810890D01*
X55527299Y-126737836D01*
X55530166Y-126685146D01*
X55533496Y-126657467D01*
X55534858Y-126654469D01*
X55551203Y-126658799D01*
X55594463Y-126673408D01*
X55662173Y-126697394D01*
X55751870Y-126729850D01*
X55861091Y-126769873D01*
X55987370Y-126816557D01*
X56128245Y-126868999D01*
X56281251Y-126926292D01*
X56443925Y-126987533D01*
X56513293Y-127013742D01*
X57479939Y-127379362D01*
X57484012Y-128174421D01*
X57484692Y-128329183D01*
X57485109Y-128474001D01*
X57485271Y-128605916D01*
X57485184Y-128721969D01*
X57484856Y-128819203D01*
X57484292Y-128894657D01*
X57483499Y-128945375D01*
X57482485Y-128968396D01*
X57482182Y-128969480D01*
X57467463Y-128962699D01*
X57426864Y-128943108D01*
X57362685Y-128911836D01*
X57277223Y-128870011D01*
X57172775Y-128818761D01*
X57051639Y-128759214D01*
X56916114Y-128692498D01*
X56768497Y-128619742D01*
X56611087Y-128542074D01*
X56511462Y-128492876D01*
X55546647Y-128016273D01*
X55542480Y-128469300D01*
X55540629Y-128612062D01*
X55537965Y-128729529D01*
X55534548Y-128820365D01*
X55530435Y-128883235D01*
X55525686Y-128916804D01*
X55522581Y-128922326D01*
X55507595Y-128914449D01*
X55467491Y-128891557D01*
X55404136Y-128854761D01*
X55319396Y-128805171D01*
X55215138Y-128743898D01*
X55093230Y-128672052D01*
X54955537Y-128590743D01*
X54803927Y-128501082D01*
X54640267Y-128404179D01*
X54466423Y-128301145D01*
X54284263Y-128193089D01*
X54095652Y-128081123D01*
X53902459Y-127966356D01*
X53706549Y-127849900D01*
X53509789Y-127732864D01*
X53314047Y-127616358D01*
X53121189Y-127501494D01*
X52933082Y-127389381D01*
X52751593Y-127281130D01*
X52578589Y-127177851D01*
X52415935Y-127080655D01*
X52265500Y-126990652D01*
X52129150Y-126908953D01*
X52008752Y-126836667D01*
X51906173Y-126774905D01*
X51823279Y-126724778D01*
X51761937Y-126687396D01*
X51724015Y-126663869D01*
X51711498Y-126655508D01*
X51708268Y-126645604D01*
X51727216Y-126648566D01*
X51746293Y-126653252D01*
X51792918Y-126664414D01*
X51864040Y-126681334D01*
X51956605Y-126703290D01*
X52067562Y-126729562D01*
X52193858Y-126759431D01*
X52332442Y-126792176D01*
X52480260Y-126827077D01*
X52634262Y-126863414D01*
X52791393Y-126900466D01*
X52948602Y-126937514D01*
X53102838Y-126973838D01*
X53251046Y-127008716D01*
X53390176Y-127041430D01*
X53517176Y-127071259D01*
X53628991Y-127097483D01*
X53722572Y-127119381D01*
X53736518Y-127122638D01*
X53828247Y-127144055D01*
X53816917Y-126885373D01*
X53805588Y-126626692D01*
X53843073Y-126641133D01*
G37*
D11*
X108000000Y-75875000D03*
X108000000Y-72925000D03*
D12*
X62000000Y-105000000D03*
D13*
X81600000Y-29237500D03*
X81600000Y-31062500D03*
D14*
X95550000Y-38800000D03*
X97450000Y-38800000D03*
D15*
X53400000Y-179600000D03*
D16*
X76425000Y-69550000D03*
X74775000Y-69550000D03*
D17*
X133626315Y-59976089D03*
X131726315Y-59976089D03*
D18*
X54325000Y-36300000D03*
X57275000Y-36300000D03*
D19*
X90500000Y-126084000D03*
X90000000Y-126084000D03*
X89500000Y-126084000D03*
X89000000Y-126084000D03*
X88500000Y-126084000D03*
X88000000Y-126084000D03*
X87500000Y-126084000D03*
X87000000Y-126084000D03*
X86500000Y-126084000D03*
X86000000Y-126084000D03*
X85500000Y-126084000D03*
X85000000Y-126084000D03*
X84500000Y-126084000D03*
X84000000Y-126084000D03*
X83500000Y-126084000D03*
X83500000Y-133916000D03*
X84000000Y-133916000D03*
X84500000Y-133916000D03*
X85000000Y-133916000D03*
X85500000Y-133916000D03*
X86000000Y-133916000D03*
X86500000Y-133916000D03*
X87000000Y-133916000D03*
X87500000Y-133916000D03*
X88000000Y-133916000D03*
X88500000Y-133916000D03*
X89000000Y-133916000D03*
X89500000Y-133916000D03*
X90000000Y-133916000D03*
X90500000Y-133916000D03*
D20*
X89940000Y-130000000D03*
D21*
X85890000Y-130000000D03*
D22*
X68580000Y-77160000D03*
X68580000Y-80110000D03*
D23*
X123000000Y-185000000D03*
D13*
X79700000Y-29237500D03*
X79700000Y-31062500D03*
X91900000Y-31197500D03*
X91900000Y-33022500D03*
D24*
X90060000Y-55200000D03*
X97910000Y-55200000D03*
D25*
X53600000Y-55212500D03*
X53600000Y-53387500D03*
D13*
X55600000Y-53387500D03*
X55600000Y-55212500D03*
D26*
X52600000Y-28000000D03*
X53302944Y-26302944D03*
X53302944Y-29697056D03*
X55000000Y-25600000D03*
D27*
X55000000Y-28000000D03*
D26*
X55000000Y-30400000D03*
X56697056Y-26302944D03*
X56697056Y-29697056D03*
X57400000Y-28000000D03*
D11*
X104750000Y-54450000D03*
X104750000Y-51500000D03*
D28*
X84884123Y-63094379D03*
X86709123Y-63094379D03*
D29*
X109840000Y-137280000D03*
X109340000Y-137280000D03*
X108840000Y-137280000D03*
X108840000Y-138760000D03*
X109340000Y-138760000D03*
X109840000Y-138760000D03*
D25*
X89900000Y-33012500D03*
X89900000Y-31187500D03*
D22*
X104740000Y-66970000D03*
X104740000Y-69920000D03*
D17*
X137126315Y-53556089D03*
X135226315Y-53556089D03*
D30*
X62750000Y-70100000D03*
X56250000Y-70100000D03*
D22*
X71790000Y-66470000D03*
X71790000Y-69420000D03*
D25*
X93493750Y-44912500D03*
X93493750Y-43087500D03*
D31*
X87843750Y-41375000D03*
X88343750Y-41375000D03*
X88843750Y-41375000D03*
X89343750Y-41375000D03*
X89843750Y-41375000D03*
X90343750Y-41375000D03*
X90843750Y-41375000D03*
X91343750Y-41375000D03*
X91843750Y-41375000D03*
X92343750Y-41375000D03*
D32*
X93031250Y-40687500D03*
X93031250Y-40187500D03*
X93031250Y-39687500D03*
X93031250Y-39187500D03*
X93031250Y-38687500D03*
X93031250Y-38187500D03*
X93031250Y-37687500D03*
X93031250Y-37187500D03*
X93031250Y-36687500D03*
X93031250Y-36187500D03*
D31*
X92343750Y-35500000D03*
X91843750Y-35500000D03*
X91343750Y-35500000D03*
X90843750Y-35500000D03*
X90343750Y-35500000D03*
X89843750Y-35500000D03*
X89343750Y-35500000D03*
X88843750Y-35500000D03*
X88343750Y-35500000D03*
X87843750Y-35500000D03*
D32*
X87156250Y-36187500D03*
X87156250Y-36687500D03*
X87156250Y-37187500D03*
X87156250Y-37687500D03*
X87156250Y-38187500D03*
X87156250Y-38687500D03*
X87156250Y-39187500D03*
X87156250Y-39687500D03*
X87156250Y-40187500D03*
X87156250Y-40687500D03*
D33*
X90093750Y-38437500D03*
D14*
X79637500Y-36800000D03*
X81537500Y-36800000D03*
D34*
X74500000Y-53950000D03*
X74500000Y-52050000D03*
D23*
X123000000Y-91000000D03*
D34*
X87900000Y-33050000D03*
X87900000Y-31150000D03*
D35*
X132500000Y-175500000D03*
D14*
X83350000Y-30850000D03*
X85250000Y-30850000D03*
D25*
X88093750Y-45312500D03*
X88093750Y-43487500D03*
D11*
X111500000Y-54500000D03*
X111500000Y-51550000D03*
D17*
X83190000Y-62457500D03*
X81290000Y-62457500D03*
D36*
X88310000Y-25250000D03*
X90850000Y-25250000D03*
X93390000Y-25250000D03*
X95930000Y-25250000D03*
X98470000Y-25250000D03*
X101010000Y-25250000D03*
X103550000Y-25250000D03*
X106090000Y-25250000D03*
X108630000Y-25250000D03*
X111170000Y-25250000D03*
X113710000Y-25250000D03*
X116250000Y-25250000D03*
X116250000Y-48170000D03*
X113710000Y-48170000D03*
X111170000Y-48170000D03*
X108630000Y-48170000D03*
X106090000Y-48170000D03*
X103550000Y-48170000D03*
X101010000Y-48170000D03*
X98470000Y-48170000D03*
X95930000Y-48170000D03*
X93390000Y-48170000D03*
X90850000Y-48170000D03*
X88310000Y-48170000D03*
D25*
X86940000Y-69932500D03*
X86940000Y-68107500D03*
D11*
X68540000Y-64720000D03*
X68540000Y-61770000D03*
D13*
X97700000Y-31187500D03*
X97700000Y-33012500D03*
D37*
X69400000Y-47650000D03*
X69400000Y-43350000D03*
D38*
X78480000Y-81650000D03*
X78480000Y-83550000D03*
D39*
X127980000Y-54077500D03*
X127330000Y-54077500D03*
X126680000Y-54077500D03*
X126030000Y-54077500D03*
X125380000Y-54077500D03*
X124730000Y-54077500D03*
X124080000Y-54077500D03*
X124080000Y-59802500D03*
X124730000Y-59802500D03*
X125380000Y-59802500D03*
X126030000Y-59802500D03*
X126680000Y-59802500D03*
X127330000Y-59802500D03*
X127980000Y-59802500D03*
D17*
X81537500Y-43400000D03*
X79637500Y-43400000D03*
D24*
X90050000Y-65920000D03*
X97900000Y-65920000D03*
D38*
X129860000Y-54130000D03*
X129860000Y-56030000D03*
D40*
X74925000Y-57250000D03*
X76475000Y-57250000D03*
D11*
X108000000Y-54475000D03*
X108000000Y-51525000D03*
D25*
X138880000Y-55670000D03*
X138880000Y-53845000D03*
D14*
X95550000Y-44800000D03*
X97450000Y-44800000D03*
D17*
X82900000Y-60437500D03*
X81000000Y-60437500D03*
D41*
X83015000Y-69357500D03*
X83015000Y-68857500D03*
X83015000Y-68357500D03*
X83015000Y-67857500D03*
X83015000Y-67357500D03*
D42*
X82790000Y-65607500D03*
D43*
X83290000Y-64357500D03*
X83290000Y-64857500D03*
X83290000Y-65357500D03*
X83290000Y-65857500D03*
X83290000Y-66357500D03*
X83290000Y-66857500D03*
X77840000Y-64357500D03*
X77840000Y-64857500D03*
X77840000Y-65357500D03*
X77840000Y-65857500D03*
X77840000Y-66357500D03*
X77840000Y-66857500D03*
D42*
X78340000Y-65607500D03*
D41*
X78115000Y-67357500D03*
X78115000Y-67857500D03*
X78115000Y-68357500D03*
X78115000Y-68857500D03*
X78115000Y-69357500D03*
D44*
X79440000Y-63872750D03*
X79440000Y-69842250D03*
D45*
X80565000Y-66857500D03*
D44*
X81690000Y-63872750D03*
X81690000Y-69842250D03*
D13*
X95800000Y-31187500D03*
X95800000Y-33012500D03*
D17*
X83180000Y-73147500D03*
X81280000Y-73147500D03*
D25*
X83590000Y-37942500D03*
X83590000Y-36117500D03*
D22*
X108000000Y-66925000D03*
X108000000Y-69875000D03*
D38*
X90080000Y-43450000D03*
X90080000Y-45350000D03*
X78500000Y-60200000D03*
X78500000Y-62100000D03*
D46*
X137176315Y-55576089D03*
X136226315Y-55576089D03*
X135276315Y-55576089D03*
X135276315Y-57851089D03*
X137176315Y-57851089D03*
D47*
X129875000Y-62900000D03*
D48*
X128605000Y-62900000D03*
X127335000Y-62900000D03*
X126065000Y-62900000D03*
X124795000Y-62900000D03*
X123525000Y-62900000D03*
D17*
X82880000Y-81847500D03*
X80980000Y-81847500D03*
D38*
X84950000Y-57350000D03*
X84950000Y-59250000D03*
D49*
X77660000Y-44980000D03*
D50*
X75500000Y-39900000D03*
D51*
X75500000Y-42440000D03*
X75500000Y-44980000D03*
X75500000Y-47520000D03*
D35*
X57500000Y-175500000D03*
D13*
X93800000Y-31207500D03*
X93800000Y-33032500D03*
D35*
X57500000Y-100500000D03*
D11*
X68530000Y-75410000D03*
X68530000Y-72460000D03*
D28*
X83787500Y-41200000D03*
X85612500Y-41200000D03*
D23*
X67000000Y-91000000D03*
D16*
X76525000Y-58800000D03*
X74875000Y-58800000D03*
D11*
X108000000Y-65175000D03*
X108000000Y-62225000D03*
D23*
X67000000Y-185000000D03*
D38*
X78490000Y-70950000D03*
X78490000Y-72850000D03*
D11*
X101500000Y-54475000D03*
X101500000Y-51525000D03*
D22*
X104730000Y-77660000D03*
X104730000Y-80610000D03*
X72000000Y-55750000D03*
X72000000Y-58700000D03*
D34*
X74390000Y-64670000D03*
X74390000Y-62770000D03*
D14*
X95550000Y-40800000D03*
X97450000Y-40800000D03*
X55750000Y-47900000D03*
X57650000Y-47900000D03*
D12*
X62000000Y-171000000D03*
D25*
X86930000Y-80622500D03*
X86930000Y-78797500D03*
D26*
X133600000Y-28000000D03*
X134302944Y-26302944D03*
X134302944Y-29697056D03*
X136000000Y-25600000D03*
D27*
X136000000Y-28000000D03*
D26*
X136000000Y-30400000D03*
X137697056Y-26302944D03*
X137697056Y-29697056D03*
X138400000Y-28000000D03*
D11*
X101480000Y-75885000D03*
X101480000Y-72935000D03*
D28*
X84884123Y-73796208D03*
X86709123Y-73796208D03*
D11*
X104740000Y-65170000D03*
X104740000Y-62220000D03*
D34*
X76380000Y-75360000D03*
X76380000Y-73460000D03*
D52*
X97412500Y-42800000D03*
X95587500Y-42800000D03*
D13*
X85490000Y-36117500D03*
X85490000Y-37942500D03*
D11*
X71780000Y-75410000D03*
X71780000Y-72460000D03*
D53*
X58100000Y-45200000D03*
X53700000Y-45200000D03*
D35*
X132500000Y-100500000D03*
D12*
X128000000Y-171000000D03*
D34*
X76390000Y-64670000D03*
X76390000Y-62770000D03*
D19*
X90500000Y-142084000D03*
X90000000Y-142084000D03*
X89500000Y-142084000D03*
X89000000Y-142084000D03*
X88500000Y-142084000D03*
X88000000Y-142084000D03*
X87500000Y-142084000D03*
X87000000Y-142084000D03*
X86500000Y-142084000D03*
X86000000Y-142084000D03*
X85500000Y-142084000D03*
X85000000Y-142084000D03*
X84500000Y-142084000D03*
X84000000Y-142084000D03*
X83500000Y-142084000D03*
X83500000Y-149916000D03*
X84000000Y-149916000D03*
X84500000Y-149916000D03*
X85000000Y-149916000D03*
X85500000Y-149916000D03*
X86000000Y-149916000D03*
X86500000Y-149916000D03*
X87000000Y-149916000D03*
X87500000Y-149916000D03*
X88000000Y-149916000D03*
X88500000Y-149916000D03*
X89000000Y-149916000D03*
X89500000Y-149916000D03*
X90000000Y-149916000D03*
X90500000Y-149916000D03*
D20*
X89940000Y-146000000D03*
D21*
X85890000Y-146000000D03*
D17*
X86950000Y-71800000D03*
X85050000Y-71800000D03*
D34*
X129840000Y-59920000D03*
X129840000Y-58020000D03*
D26*
X133600000Y-185025000D03*
X134302944Y-183327944D03*
X134302944Y-186722056D03*
X136000000Y-182625000D03*
D27*
X136000000Y-185025000D03*
D26*
X136000000Y-187425000D03*
X137697056Y-183327944D03*
X137697056Y-186722056D03*
X138400000Y-185025000D03*
D22*
X101500000Y-56250000D03*
X101500000Y-59200000D03*
D40*
X74825000Y-68050000D03*
X76375000Y-68050000D03*
D30*
X62807500Y-61000000D03*
X56307500Y-61000000D03*
D54*
X55962500Y-49750000D03*
X55962500Y-50700000D03*
X55962500Y-51650000D03*
X58237500Y-51650000D03*
X58237500Y-50700000D03*
X58237500Y-49750000D03*
D55*
X99500000Y-133916000D03*
X100000000Y-133916000D03*
X100500000Y-133916000D03*
X101000000Y-133916000D03*
X101500000Y-133916000D03*
X102000000Y-133916000D03*
X102500000Y-133916000D03*
X103000000Y-133916000D03*
X103500000Y-133916000D03*
X104000000Y-133916000D03*
X104500000Y-133916000D03*
X105000000Y-133916000D03*
X105500000Y-133916000D03*
X106000000Y-133916000D03*
X106500000Y-133916000D03*
X106500000Y-126084000D03*
X106000000Y-126084000D03*
X105500000Y-126084000D03*
X105000000Y-126084000D03*
X104500000Y-126084000D03*
X104000000Y-126084000D03*
X103500000Y-126084000D03*
X103000000Y-126084000D03*
X102500000Y-126084000D03*
X102000000Y-126084000D03*
X101500000Y-126084000D03*
X101000000Y-126084000D03*
X100500000Y-126084000D03*
X100000000Y-126084000D03*
X99500000Y-126084000D03*
D20*
X100060000Y-130000000D03*
D21*
X104110000Y-130000000D03*
D17*
X137126315Y-59856089D03*
X135226315Y-59856089D03*
D56*
X57900000Y-40900000D03*
X54300000Y-40900000D03*
D22*
X108000000Y-77660000D03*
X108000000Y-80610000D03*
D11*
X68700000Y-53975000D03*
X68700000Y-51025000D03*
D28*
X84884123Y-52279008D03*
X86709123Y-52279008D03*
D11*
X101490000Y-65195000D03*
X101490000Y-62245000D03*
D17*
X82890000Y-71157500D03*
X80990000Y-71157500D03*
D46*
X133676315Y-55696089D03*
X132726315Y-55696089D03*
X131776315Y-55696089D03*
X131776315Y-57971089D03*
X133676315Y-57971089D03*
D26*
X52600000Y-78000000D03*
X53302944Y-76302944D03*
X53302944Y-79697056D03*
X55000000Y-75600000D03*
D27*
X55000000Y-78000000D03*
D26*
X55000000Y-80400000D03*
X56697056Y-76302944D03*
X56697056Y-79697056D03*
X57400000Y-78000000D03*
D17*
X133626315Y-53576089D03*
X131726315Y-53576089D03*
D25*
X84100000Y-44812500D03*
X84100000Y-42987500D03*
D55*
X99500000Y-149916000D03*
X100000000Y-149916000D03*
X100500000Y-149916000D03*
X101000000Y-149916000D03*
X101500000Y-149916000D03*
X102000000Y-149916000D03*
X102500000Y-149916000D03*
X103000000Y-149916000D03*
X103500000Y-149916000D03*
X104000000Y-149916000D03*
X104500000Y-149916000D03*
X105000000Y-149916000D03*
X105500000Y-149916000D03*
X106000000Y-149916000D03*
X106500000Y-149916000D03*
X106500000Y-142084000D03*
X106000000Y-142084000D03*
X105500000Y-142084000D03*
X105000000Y-142084000D03*
X104500000Y-142084000D03*
X104000000Y-142084000D03*
X103500000Y-142084000D03*
X103000000Y-142084000D03*
X102500000Y-142084000D03*
X102000000Y-142084000D03*
X101500000Y-142084000D03*
X101000000Y-142084000D03*
X100500000Y-142084000D03*
X100000000Y-142084000D03*
X99500000Y-142084000D03*
D20*
X100060000Y-146000000D03*
D21*
X104110000Y-146000000D03*
D11*
X71790000Y-64720000D03*
X71790000Y-61770000D03*
D17*
X97450000Y-34800000D03*
X95550000Y-34800000D03*
D38*
X84940000Y-68070000D03*
X84940000Y-69970000D03*
D49*
X77660000Y-33180000D03*
D50*
X75500000Y-28100000D03*
D51*
X75500000Y-30640000D03*
X75500000Y-33180000D03*
X75500000Y-35720000D03*
D16*
X76475000Y-80200000D03*
X74825000Y-80200000D03*
D17*
X83200000Y-51737500D03*
X81300000Y-51737500D03*
D26*
X133600000Y-78000000D03*
X134302944Y-76302944D03*
X134302944Y-79697056D03*
X136000000Y-75600000D03*
D27*
X136000000Y-78000000D03*
D26*
X136000000Y-80400000D03*
X137697056Y-76302944D03*
X137697056Y-79697056D03*
X138400000Y-78000000D03*
D38*
X86100000Y-42900000D03*
X86100000Y-44800000D03*
D24*
X90040000Y-76610000D03*
X97890000Y-76610000D03*
D57*
X91793750Y-43425000D03*
X91793750Y-44975000D03*
D40*
X74925000Y-78700000D03*
X76475000Y-78700000D03*
D25*
X86950000Y-59212500D03*
X86950000Y-57387500D03*
D17*
X97450000Y-36800000D03*
X95550000Y-36800000D03*
D58*
X79837500Y-41700000D03*
X80337500Y-41700000D03*
X80837500Y-41700000D03*
X81337500Y-41700000D03*
X81337500Y-38600000D03*
X80837500Y-38600000D03*
X80337500Y-38600000D03*
X79837500Y-38600000D03*
D59*
X56300000Y-33100000D03*
D22*
X101480000Y-77660000D03*
X101480000Y-80610000D03*
D60*
X84500000Y-34600000D03*
X84500000Y-34100000D03*
X84500000Y-33600000D03*
X84500000Y-33100000D03*
X84500000Y-32600000D03*
X80275000Y-32600000D03*
X80275000Y-33100000D03*
X80275000Y-33600000D03*
X80275000Y-34100000D03*
X80275000Y-34600000D03*
D61*
X115900000Y-28530000D03*
X112600000Y-28530000D03*
D62*
X61700000Y-52760000D03*
X65100000Y-52760000D03*
X61700000Y-42840000D03*
X65100000Y-42840000D03*
D41*
X83025000Y-58637500D03*
X83025000Y-58137500D03*
X83025000Y-57637500D03*
X83025000Y-57137500D03*
X83025000Y-56637500D03*
D42*
X82800000Y-54887500D03*
D43*
X83300000Y-53637500D03*
X83300000Y-54137500D03*
X83300000Y-54637500D03*
X83300000Y-55137500D03*
X83300000Y-55637500D03*
X83300000Y-56137500D03*
X77850000Y-53637500D03*
X77850000Y-54137500D03*
X77850000Y-54637500D03*
X77850000Y-55137500D03*
X77850000Y-55637500D03*
X77850000Y-56137500D03*
D42*
X78350000Y-54887500D03*
D41*
X78125000Y-56637500D03*
X78125000Y-57137500D03*
X78125000Y-57637500D03*
X78125000Y-58137500D03*
X78125000Y-58637500D03*
D44*
X79450000Y-53152750D03*
X79450000Y-59122250D03*
D45*
X80575000Y-56137500D03*
D44*
X81700000Y-53152750D03*
X81700000Y-59122250D03*
D38*
X84930000Y-78760000D03*
X84930000Y-80660000D03*
D41*
X83005000Y-80047500D03*
X83005000Y-79547500D03*
X83005000Y-79047500D03*
X83005000Y-78547500D03*
X83005000Y-78047500D03*
D42*
X82780000Y-76297500D03*
D43*
X83280000Y-75047500D03*
X83280000Y-75547500D03*
X83280000Y-76047500D03*
X83280000Y-76547500D03*
X83280000Y-77047500D03*
X83280000Y-77547500D03*
X77830000Y-75047500D03*
X77830000Y-75547500D03*
X77830000Y-76047500D03*
X77830000Y-76547500D03*
X77830000Y-77047500D03*
X77830000Y-77547500D03*
D42*
X78330000Y-76297500D03*
D41*
X78105000Y-78047500D03*
X78105000Y-78547500D03*
X78105000Y-79047500D03*
X78105000Y-79547500D03*
X78105000Y-80047500D03*
D44*
X79430000Y-74562750D03*
X79430000Y-80532250D03*
D45*
X80555000Y-77547500D03*
D44*
X81680000Y-74562750D03*
X81680000Y-80532250D03*
D22*
X71780000Y-77160000D03*
X71780000Y-80110000D03*
D34*
X74380000Y-75360000D03*
X74380000Y-73460000D03*
X76500000Y-53950000D03*
X76500000Y-52050000D03*
D22*
X68590000Y-66470000D03*
X68590000Y-69420000D03*
D11*
X104730000Y-75860000D03*
X104730000Y-72910000D03*
D17*
X86950000Y-61100000D03*
X85050000Y-61100000D03*
D12*
X128000000Y-105000000D03*
D22*
X68700000Y-55750000D03*
X68700000Y-58700000D03*
D11*
X71900000Y-54000000D03*
X71900000Y-51050000D03*
D22*
X104750000Y-56250000D03*
X104750000Y-59200000D03*
D38*
X58200000Y-53350000D03*
X58200000Y-55250000D03*
D22*
X101490000Y-66970000D03*
X101490000Y-69920000D03*
D15*
X131050000Y-26365000D03*
D26*
X52600000Y-185025000D03*
X53302944Y-183327944D03*
X53302944Y-186722056D03*
X55000000Y-182625000D03*
D27*
X55000000Y-185025000D03*
D26*
X55000000Y-187425000D03*
X56697056Y-183327944D03*
X56697056Y-186722056D03*
X57400000Y-185025000D03*
D22*
X108000000Y-56225000D03*
X108000000Y-59175000D03*
D63*
X70600000Y-27000000D03*
X59600000Y-27000000D03*
D64*
X62600000Y-37000000D03*
D65*
X67600000Y-37000000D03*
M02*
