G04 #@! TF.GenerationSoftware,KiCad,Pcbnew,9.0.5*
G04 #@! TF.CreationDate,2025-11-28T01:33:54+02:00*
G04 #@! TF.ProjectId,nerdqaxe++,6e657264-7161-4786-952b-2b2e6b696361,rev?*
G04 #@! TF.SameCoordinates,Original*
G04 #@! TF.FileFunction,Paste,Top*
G04 #@! TF.FilePolarity,Positive*
%FSLAX46Y46*%
G04 Gerber Fmt 4.6, Leading zero omitted, Abs format (unit mm)*
G04 Created by KiCad (PCBNEW 9.0.5) date 2025-11-28 01:33:54*
%MOMM*%
%LPD*%
G01*
G04 APERTURE LIST*
G04 Aperture macros list*
%AMRoundRect*
0 Rectangle with rounded corners*
0 $1 Rounding radius*
0 $2 $3 $4 $5 $6 $7 $8 $9 X,Y pos of 4 corners*
0 Add a 4 corners polygon primitive as box body*
4,1,4,$2,$3,$4,$5,$6,$7,$8,$9,$2,$3,0*
0 Add four circle primitives for the rounded corners*
1,1,$1+$1,$2,$3*
1,1,$1+$1,$4,$5*
1,1,$1+$1,$6,$7*
1,1,$1+$1,$8,$9*
0 Add four rect primitives between the rounded corners*
20,1,$1+$1,$2,$3,$4,$5,0*
20,1,$1+$1,$4,$5,$6,$7,0*
20,1,$1+$1,$6,$7,$8,$9,0*
20,1,$1+$1,$8,$9,$2,$3,0*%
%AMFreePoly0*
4,1,19,0.178553,0.213392,0.221317,0.164040,0.231790,0.115895,0.231790,-0.012362,0.213392,-0.075020,0.197845,-0.094312,0.094312,-0.197845,0.036997,-0.229141,0.012362,-0.231790,-0.115895,-0.231790,-0.178553,-0.213392,-0.221317,-0.164040,-0.231790,-0.115895,-0.231790,0.115895,-0.213392,0.178553,-0.164040,0.221317,-0.115895,0.231790,0.115895,0.231790,0.178553,0.213392,0.178553,0.213392,
$1*%
%AMFreePoly1*
4,1,21,0.122595,0.381565,0.128518,0.376137,0.204814,0.299841,0.231439,0.242746,0.231789,0.234719,0.231789,-0.234719,0.210242,-0.293918,0.204814,-0.299841,0.128518,-0.376137,0.071423,-0.402762,0.063396,-0.403112,-0.139692,-0.403112,-0.198891,-0.381565,-0.230390,-0.327007,-0.231789,-0.311015,-0.231789,0.311015,-0.210242,0.370214,-0.155684,0.401713,-0.139692,0.403112,0.063396,0.403112,
0.122595,0.381565,0.122595,0.381565,$1*%
%AMFreePoly2*
4,1,19,0.075020,0.213392,0.094312,0.197845,0.197845,0.094312,0.229141,0.036997,0.231790,0.012362,0.231790,-0.115895,0.213392,-0.178553,0.164040,-0.221317,0.115895,-0.231790,-0.115895,-0.231790,-0.178553,-0.213392,-0.221317,-0.164040,-0.231790,-0.115895,-0.231790,0.115895,-0.213392,0.178553,-0.164040,0.221317,-0.115895,0.231790,0.012362,0.231790,0.075020,0.213392,0.075020,0.213392,
$1*%
%AMFreePoly3*
4,1,21,0.370214,0.210242,0.401713,0.155684,0.403112,0.139692,0.403112,-0.063396,0.381565,-0.122595,0.376137,-0.128518,0.299841,-0.204814,0.242746,-0.231439,0.234719,-0.231789,-0.234719,-0.231789,-0.293918,-0.210242,-0.299841,-0.204814,-0.376137,-0.128518,-0.402762,-0.071423,-0.403112,-0.063396,-0.403112,0.139692,-0.381565,0.198891,-0.327007,0.230390,-0.311015,0.231789,0.311015,0.231789,
0.370214,0.210242,0.370214,0.210242,$1*%
%AMFreePoly4*
4,1,21,0.293918,0.210242,0.299841,0.204814,0.376137,0.128518,0.402762,0.071423,0.403112,0.063396,0.403112,-0.139692,0.381565,-0.198891,0.327007,-0.230390,0.311015,-0.231789,-0.311015,-0.231789,-0.370214,-0.210242,-0.401713,-0.155684,-0.403112,-0.139692,-0.403112,0.063396,-0.381565,0.122595,-0.376137,0.128518,-0.299841,0.204814,-0.242746,0.231439,-0.234719,0.231789,0.234719,0.231789,
0.293918,0.210242,0.293918,0.210242,$1*%
%AMFreePoly5*
4,1,19,0.178553,0.213392,0.221317,0.164040,0.231790,0.115895,0.231790,-0.115895,0.213392,-0.178553,0.164040,-0.221317,0.115895,-0.231790,-0.012362,-0.231790,-0.075020,-0.213392,-0.094312,-0.197845,-0.197845,-0.094312,-0.229141,-0.036997,-0.231790,-0.012362,-0.231790,0.115895,-0.213392,0.178553,-0.164040,0.221317,-0.115895,0.231790,0.115895,0.231790,0.178553,0.213392,0.178553,0.213392,
$1*%
%AMFreePoly6*
4,1,21,0.198891,0.381565,0.230390,0.327007,0.231789,0.311015,0.231789,-0.311015,0.210242,-0.370214,0.155684,-0.401713,0.139692,-0.403112,-0.063396,-0.403112,-0.122595,-0.381565,-0.128518,-0.376137,-0.204814,-0.299841,-0.231439,-0.242746,-0.231789,-0.234719,-0.231789,0.234719,-0.210242,0.293918,-0.204814,0.299841,-0.128518,0.376137,-0.071423,0.402762,-0.063396,0.403112,0.139692,0.403112,
0.198891,0.381565,0.198891,0.381565,$1*%
%AMFreePoly7*
4,1,19,0.178553,0.213392,0.221317,0.164040,0.231790,0.115895,0.231790,-0.115895,0.213392,-0.178553,0.164040,-0.221317,0.115895,-0.231790,-0.115895,-0.231790,-0.178553,-0.213392,-0.221317,-0.164040,-0.231790,-0.115895,-0.231790,0.012362,-0.213392,0.075020,-0.197845,0.094312,-0.094312,0.197845,-0.036997,0.229141,-0.012362,0.231790,0.115895,0.231790,0.178553,0.213392,0.178553,0.213392,
$1*%
G04 Aperture macros list end*
%ADD10C,0.001000*%
%ADD11C,0.000000*%
%ADD12RoundRect,0.225000X0.250000X-0.225000X0.250000X0.225000X-0.250000X0.225000X-0.250000X-0.225000X0*%
%ADD13RoundRect,0.225000X-0.250000X0.225000X-0.250000X-0.225000X0.250000X-0.225000X0.250000X0.225000X0*%
%ADD14RoundRect,0.135000X-0.185000X0.135000X-0.185000X-0.135000X0.185000X-0.135000X0.185000X0.135000X0*%
%ADD15RoundRect,0.140000X-0.140000X-0.170000X0.140000X-0.170000X0.140000X0.170000X-0.140000X0.170000X0*%
%ADD16RoundRect,0.140000X0.140000X0.170000X-0.140000X0.170000X-0.140000X-0.170000X0.140000X-0.170000X0*%
%ADD17RoundRect,0.055250X-0.055250X0.340750X-0.055250X-0.340750X0.055250X-0.340750X0.055250X0.340750X0*%
%ADD18RoundRect,0.140000X-0.170000X0.140000X-0.170000X-0.140000X0.170000X-0.140000X0.170000X0.140000X0*%
%ADD19RoundRect,0.250000X-0.262500X-0.450000X0.262500X-0.450000X0.262500X0.450000X-0.262500X0.450000X0*%
%ADD20RoundRect,0.250000X-0.650000X0.325000X-0.650000X-0.325000X0.650000X-0.325000X0.650000X0.325000X0*%
%ADD21RoundRect,0.135000X0.185000X-0.135000X0.185000X0.135000X-0.185000X0.135000X-0.185000X-0.135000X0*%
%ADD22RoundRect,0.250000X1.500000X1.000000X-1.500000X1.000000X-1.500000X-1.000000X1.500000X-1.000000X0*%
%ADD23FreePoly0,90.000000*%
%ADD24FreePoly1,90.000000*%
%ADD25FreePoly2,90.000000*%
%ADD26FreePoly3,90.000000*%
%ADD27RoundRect,0.201557X0.201556X-0.201556X0.201556X0.201556X-0.201556X0.201556X-0.201556X-0.201556X0*%
%ADD28FreePoly4,90.000000*%
%ADD29FreePoly5,90.000000*%
%ADD30FreePoly6,90.000000*%
%ADD31FreePoly7,90.000000*%
%ADD32RoundRect,0.062500X0.062500X-0.375000X0.062500X0.375000X-0.062500X0.375000X-0.062500X-0.375000X0*%
%ADD33RoundRect,0.062500X0.375000X-0.062500X0.375000X0.062500X-0.375000X0.062500X-0.375000X-0.062500X0*%
%ADD34RoundRect,0.050000X-0.225000X0.237500X-0.225000X-0.237500X0.225000X-0.237500X0.225000X0.237500X0*%
%ADD35RoundRect,0.050000X-0.225000X0.075000X-0.225000X-0.075000X0.225000X-0.075000X0.225000X0.075000X0*%
%ADD36R,3.500000X3.800000*%
%ADD37RoundRect,0.140000X0.170000X-0.140000X0.170000X0.140000X-0.170000X0.140000X-0.170000X-0.140000X0*%
%ADD38RoundRect,0.250000X0.650000X-0.325000X0.650000X0.325000X-0.650000X0.325000X-0.650000X-0.325000X0*%
%ADD39RoundRect,0.250000X0.262500X0.450000X-0.262500X0.450000X-0.262500X-0.450000X0.262500X-0.450000X0*%
%ADD40RoundRect,0.225000X0.225000X0.250000X-0.225000X0.250000X-0.225000X-0.250000X0.225000X-0.250000X0*%
%ADD41RoundRect,0.250000X0.900000X-1.000000X0.900000X1.000000X-0.900000X1.000000X-0.900000X-1.000000X0*%
%ADD42RoundRect,0.127000X0.373000X0.023000X-0.373000X0.023000X-0.373000X-0.023000X0.373000X-0.023000X0*%
%ADD43R,0.500000X0.300000*%
%ADD44RoundRect,0.127000X0.078000X1.273000X-0.078000X1.273000X-0.078000X-1.273000X0.078000X-1.273000X0*%
%ADD45RoundRect,0.127000X-0.373000X-0.023000X0.373000X-0.023000X0.373000X0.023000X-0.373000X0.023000X0*%
%ADD46RoundRect,0.150000X-0.150000X0.512500X-0.150000X-0.512500X0.150000X-0.512500X0.150000X0.512500X0*%
%ADD47RoundRect,0.225000X-0.225000X-0.250000X0.225000X-0.250000X0.225000X0.250000X-0.225000X0.250000X0*%
%ADD48RoundRect,0.135000X-0.135000X-0.185000X0.135000X-0.185000X0.135000X0.185000X-0.135000X0.185000X0*%
%ADD49RoundRect,0.135000X0.135000X0.185000X-0.135000X0.185000X-0.135000X-0.185000X0.135000X-0.185000X0*%
%ADD50RoundRect,0.055250X0.055250X-0.340750X0.055250X0.340750X-0.055250X0.340750X-0.055250X-0.340750X0*%
%ADD51R,0.599999X0.240000*%
%ADD52R,0.240000X0.599999*%
%ADD53R,0.300000X0.800000*%
%ADD54RoundRect,0.087500X0.725000X0.087500X-0.725000X0.087500X-0.725000X-0.087500X0.725000X-0.087500X0*%
%ADD55RoundRect,0.225000X0.225000X0.375000X-0.225000X0.375000X-0.225000X-0.375000X0.225000X-0.375000X0*%
G04 APERTURE END LIST*
D10*
X83450000Y-128375000D02*
X84400000Y-128375000D01*
X84400000Y-127175000D01*
X83450000Y-127175000D01*
X83450000Y-128375000D01*
G36*
X83450000Y-128375000D02*
G01*
X84400000Y-128375000D01*
X84400000Y-127175000D01*
X83450000Y-127175000D01*
X83450000Y-128375000D01*
G37*
X83450000Y-130650000D02*
X84400000Y-130650000D01*
X84400000Y-129450000D01*
X83450000Y-129450000D01*
X83450000Y-130650000D01*
G36*
X83450000Y-130650000D02*
G01*
X84400000Y-130650000D01*
X84400000Y-129450000D01*
X83450000Y-129450000D01*
X83450000Y-130650000D01*
G37*
X83450000Y-132800000D02*
X84400000Y-132800000D01*
X84400000Y-131600000D01*
X83450000Y-131600000D01*
X83450000Y-132800000D01*
G36*
X83450000Y-132800000D02*
G01*
X84400000Y-132800000D01*
X84400000Y-131600000D01*
X83450000Y-131600000D01*
X83450000Y-132800000D01*
G37*
X85420000Y-130640000D02*
X86370000Y-130640000D01*
X86370000Y-129440000D01*
X85420000Y-129440000D01*
X85420000Y-130640000D01*
G36*
X85420000Y-130640000D02*
G01*
X86370000Y-130640000D01*
X86370000Y-129440000D01*
X85420000Y-129440000D01*
X85420000Y-130640000D01*
G37*
X85420000Y-132790000D02*
X86370000Y-132790000D01*
X86370000Y-131590000D01*
X85420000Y-131590000D01*
X85420000Y-132790000D01*
G36*
X85420000Y-132790000D02*
G01*
X86370000Y-132790000D01*
X86370000Y-131590000D01*
X85420000Y-131590000D01*
X85420000Y-132790000D01*
G37*
X85425000Y-128375000D02*
X86375000Y-128375000D01*
X86375000Y-127175000D01*
X85425000Y-127175000D01*
X85425000Y-128375000D01*
G36*
X85425000Y-128375000D02*
G01*
X86375000Y-128375000D01*
X86375000Y-127175000D01*
X85425000Y-127175000D01*
X85425000Y-128375000D01*
G37*
X87400000Y-128375000D02*
X88350000Y-128375000D01*
X88350000Y-127175000D01*
X87400000Y-127175000D01*
X87400000Y-128375000D01*
G36*
X87400000Y-128375000D02*
G01*
X88350000Y-128375000D01*
X88350000Y-127175000D01*
X87400000Y-127175000D01*
X87400000Y-128375000D01*
G37*
X87400000Y-130650000D02*
X88350000Y-130650000D01*
X88350000Y-129450000D01*
X87400000Y-129450000D01*
X87400000Y-130650000D01*
G36*
X87400000Y-130650000D02*
G01*
X88350000Y-130650000D01*
X88350000Y-129450000D01*
X87400000Y-129450000D01*
X87400000Y-130650000D01*
G37*
X87400000Y-132800000D02*
X88350000Y-132800000D01*
X88350000Y-131600000D01*
X87400000Y-131600000D01*
X87400000Y-132800000D01*
G36*
X87400000Y-132800000D02*
G01*
X88350000Y-132800000D01*
X88350000Y-131600000D01*
X87400000Y-131600000D01*
X87400000Y-132800000D01*
G37*
X89415000Y-130650000D02*
X90525000Y-130650000D01*
X90525000Y-129450000D01*
X89415000Y-129450000D01*
X89415000Y-130650000D01*
G36*
X89415000Y-130650000D02*
G01*
X90525000Y-130650000D01*
X90525000Y-129450000D01*
X89415000Y-129450000D01*
X89415000Y-130650000D01*
G37*
X89420000Y-128372500D02*
X90540000Y-128372500D01*
X90540000Y-127172500D01*
X89420000Y-127172500D01*
X89420000Y-128372500D01*
G36*
X89420000Y-128372500D02*
G01*
X90540000Y-128372500D01*
X90540000Y-127172500D01*
X89420000Y-127172500D01*
X89420000Y-128372500D01*
G37*
X89420000Y-132797500D02*
X90530000Y-132797500D01*
X90530000Y-131597500D01*
X89420000Y-131597500D01*
X89420000Y-132797500D01*
G36*
X89420000Y-132797500D02*
G01*
X90530000Y-132797500D01*
X90530000Y-131597500D01*
X89420000Y-131597500D01*
X89420000Y-132797500D01*
G37*
D11*
G36*
X56619900Y-45150000D02*
G01*
X55880100Y-45150000D01*
X55880100Y-43927600D01*
X56619900Y-43927600D01*
X56619900Y-45150000D01*
G37*
G36*
X56619900Y-46572400D02*
G01*
X55880100Y-46572400D01*
X55880100Y-45350000D01*
X56619900Y-45350000D01*
X56619900Y-46572400D01*
G37*
G36*
X79165000Y-64417500D02*
G01*
X80415000Y-64417500D01*
X80415000Y-65412500D01*
X79165000Y-65412500D01*
X79165000Y-64417500D01*
G37*
G36*
X79165000Y-65712500D02*
G01*
X80415000Y-65712500D01*
X80415000Y-66707500D01*
X79165000Y-66707500D01*
X79165000Y-65712500D01*
G37*
G36*
X79165000Y-67007500D02*
G01*
X80415000Y-67007500D01*
X80415000Y-68002500D01*
X79165000Y-68002500D01*
X79165000Y-67007500D01*
G37*
G36*
X79165000Y-68302500D02*
G01*
X80415000Y-68302500D01*
X80415000Y-69297500D01*
X79165000Y-69297500D01*
X79165000Y-68302500D01*
G37*
G36*
X79305000Y-69597500D02*
G01*
X79555000Y-69597500D01*
X79555000Y-69908500D01*
X79305000Y-69908500D01*
X79305000Y-69597500D01*
G37*
G36*
X79315000Y-63806500D02*
G01*
X79565000Y-63806500D01*
X79565000Y-64117500D01*
X79315000Y-64117500D01*
X79315000Y-63806500D01*
G37*
G36*
X80715000Y-65712500D02*
G01*
X81965000Y-65712500D01*
X81965000Y-66707500D01*
X80715000Y-66707500D01*
X80715000Y-65712500D01*
G37*
G36*
X80715000Y-67007500D02*
G01*
X81965000Y-67007500D01*
X81965000Y-68002500D01*
X80715000Y-68002500D01*
X80715000Y-67007500D01*
G37*
G36*
X80715000Y-68302500D02*
G01*
X81965000Y-68302500D01*
X81965000Y-69297500D01*
X80715000Y-69297500D01*
X80715000Y-68302500D01*
G37*
G36*
X80725000Y-64417500D02*
G01*
X81975000Y-64417500D01*
X81975000Y-65412500D01*
X80725000Y-65412500D01*
X80725000Y-64417500D01*
G37*
G36*
X81565000Y-63806500D02*
G01*
X81815000Y-63806500D01*
X81815000Y-64117500D01*
X81565000Y-64117500D01*
X81565000Y-63806500D01*
G37*
G36*
X81565000Y-69597500D02*
G01*
X81815000Y-69597500D01*
X81815000Y-69908500D01*
X81565000Y-69908500D01*
X81565000Y-69597500D01*
G37*
D10*
X83450000Y-144375000D02*
X84400000Y-144375000D01*
X84400000Y-143175000D01*
X83450000Y-143175000D01*
X83450000Y-144375000D01*
G36*
X83450000Y-144375000D02*
G01*
X84400000Y-144375000D01*
X84400000Y-143175000D01*
X83450000Y-143175000D01*
X83450000Y-144375000D01*
G37*
X83450000Y-146650000D02*
X84400000Y-146650000D01*
X84400000Y-145450000D01*
X83450000Y-145450000D01*
X83450000Y-146650000D01*
G36*
X83450000Y-146650000D02*
G01*
X84400000Y-146650000D01*
X84400000Y-145450000D01*
X83450000Y-145450000D01*
X83450000Y-146650000D01*
G37*
X83450000Y-148800000D02*
X84400000Y-148800000D01*
X84400000Y-147600000D01*
X83450000Y-147600000D01*
X83450000Y-148800000D01*
G36*
X83450000Y-148800000D02*
G01*
X84400000Y-148800000D01*
X84400000Y-147600000D01*
X83450000Y-147600000D01*
X83450000Y-148800000D01*
G37*
X85420000Y-146640000D02*
X86370000Y-146640000D01*
X86370000Y-145440000D01*
X85420000Y-145440000D01*
X85420000Y-146640000D01*
G36*
X85420000Y-146640000D02*
G01*
X86370000Y-146640000D01*
X86370000Y-145440000D01*
X85420000Y-145440000D01*
X85420000Y-146640000D01*
G37*
X85420000Y-148790000D02*
X86370000Y-148790000D01*
X86370000Y-147590000D01*
X85420000Y-147590000D01*
X85420000Y-148790000D01*
G36*
X85420000Y-148790000D02*
G01*
X86370000Y-148790000D01*
X86370000Y-147590000D01*
X85420000Y-147590000D01*
X85420000Y-148790000D01*
G37*
X85425000Y-144375000D02*
X86375000Y-144375000D01*
X86375000Y-143175000D01*
X85425000Y-143175000D01*
X85425000Y-144375000D01*
G36*
X85425000Y-144375000D02*
G01*
X86375000Y-144375000D01*
X86375000Y-143175000D01*
X85425000Y-143175000D01*
X85425000Y-144375000D01*
G37*
X87400000Y-144375000D02*
X88350000Y-144375000D01*
X88350000Y-143175000D01*
X87400000Y-143175000D01*
X87400000Y-144375000D01*
G36*
X87400000Y-144375000D02*
G01*
X88350000Y-144375000D01*
X88350000Y-143175000D01*
X87400000Y-143175000D01*
X87400000Y-144375000D01*
G37*
X87400000Y-146650000D02*
X88350000Y-146650000D01*
X88350000Y-145450000D01*
X87400000Y-145450000D01*
X87400000Y-146650000D01*
G36*
X87400000Y-146650000D02*
G01*
X88350000Y-146650000D01*
X88350000Y-145450000D01*
X87400000Y-145450000D01*
X87400000Y-146650000D01*
G37*
X87400000Y-148800000D02*
X88350000Y-148800000D01*
X88350000Y-147600000D01*
X87400000Y-147600000D01*
X87400000Y-148800000D01*
G36*
X87400000Y-148800000D02*
G01*
X88350000Y-148800000D01*
X88350000Y-147600000D01*
X87400000Y-147600000D01*
X87400000Y-148800000D01*
G37*
X89415000Y-146650000D02*
X90525000Y-146650000D01*
X90525000Y-145450000D01*
X89415000Y-145450000D01*
X89415000Y-146650000D01*
G36*
X89415000Y-146650000D02*
G01*
X90525000Y-146650000D01*
X90525000Y-145450000D01*
X89415000Y-145450000D01*
X89415000Y-146650000D01*
G37*
X89420000Y-144372500D02*
X90540000Y-144372500D01*
X90540000Y-143172500D01*
X89420000Y-143172500D01*
X89420000Y-144372500D01*
G36*
X89420000Y-144372500D02*
G01*
X90540000Y-144372500D01*
X90540000Y-143172500D01*
X89420000Y-143172500D01*
X89420000Y-144372500D01*
G37*
X89420000Y-148797500D02*
X90530000Y-148797500D01*
X90530000Y-147597500D01*
X89420000Y-147597500D01*
X89420000Y-148797500D01*
G36*
X89420000Y-148797500D02*
G01*
X90530000Y-148797500D01*
X90530000Y-147597500D01*
X89420000Y-147597500D01*
X89420000Y-148797500D01*
G37*
X100580000Y-127202500D02*
X99470000Y-127202500D01*
X99470000Y-128402500D01*
X100580000Y-128402500D01*
X100580000Y-127202500D01*
G36*
X100580000Y-127202500D02*
G01*
X99470000Y-127202500D01*
X99470000Y-128402500D01*
X100580000Y-128402500D01*
X100580000Y-127202500D01*
G37*
X100580000Y-131627500D02*
X99460000Y-131627500D01*
X99460000Y-132827500D01*
X100580000Y-132827500D01*
X100580000Y-131627500D01*
G36*
X100580000Y-131627500D02*
G01*
X99460000Y-131627500D01*
X99460000Y-132827500D01*
X100580000Y-132827500D01*
X100580000Y-131627500D01*
G37*
X100585000Y-129350000D02*
X99475000Y-129350000D01*
X99475000Y-130550000D01*
X100585000Y-130550000D01*
X100585000Y-129350000D01*
G36*
X100585000Y-129350000D02*
G01*
X99475000Y-129350000D01*
X99475000Y-130550000D01*
X100585000Y-130550000D01*
X100585000Y-129350000D01*
G37*
X102600000Y-127200000D02*
X101650000Y-127200000D01*
X101650000Y-128400000D01*
X102600000Y-128400000D01*
X102600000Y-127200000D01*
G36*
X102600000Y-127200000D02*
G01*
X101650000Y-127200000D01*
X101650000Y-128400000D01*
X102600000Y-128400000D01*
X102600000Y-127200000D01*
G37*
X102600000Y-129350000D02*
X101650000Y-129350000D01*
X101650000Y-130550000D01*
X102600000Y-130550000D01*
X102600000Y-129350000D01*
G36*
X102600000Y-129350000D02*
G01*
X101650000Y-129350000D01*
X101650000Y-130550000D01*
X102600000Y-130550000D01*
X102600000Y-129350000D01*
G37*
X102600000Y-131625000D02*
X101650000Y-131625000D01*
X101650000Y-132825000D01*
X102600000Y-132825000D01*
X102600000Y-131625000D01*
G36*
X102600000Y-131625000D02*
G01*
X101650000Y-131625000D01*
X101650000Y-132825000D01*
X102600000Y-132825000D01*
X102600000Y-131625000D01*
G37*
X104575000Y-131625000D02*
X103625000Y-131625000D01*
X103625000Y-132825000D01*
X104575000Y-132825000D01*
X104575000Y-131625000D01*
G36*
X104575000Y-131625000D02*
G01*
X103625000Y-131625000D01*
X103625000Y-132825000D01*
X104575000Y-132825000D01*
X104575000Y-131625000D01*
G37*
X104580000Y-127210000D02*
X103630000Y-127210000D01*
X103630000Y-128410000D01*
X104580000Y-128410000D01*
X104580000Y-127210000D01*
G36*
X104580000Y-127210000D02*
G01*
X103630000Y-127210000D01*
X103630000Y-128410000D01*
X104580000Y-128410000D01*
X104580000Y-127210000D01*
G37*
X104580000Y-129360000D02*
X103630000Y-129360000D01*
X103630000Y-130560000D01*
X104580000Y-130560000D01*
X104580000Y-129360000D01*
G36*
X104580000Y-129360000D02*
G01*
X103630000Y-129360000D01*
X103630000Y-130560000D01*
X104580000Y-130560000D01*
X104580000Y-129360000D01*
G37*
X106550000Y-127200000D02*
X105600000Y-127200000D01*
X105600000Y-128400000D01*
X106550000Y-128400000D01*
X106550000Y-127200000D01*
G36*
X106550000Y-127200000D02*
G01*
X105600000Y-127200000D01*
X105600000Y-128400000D01*
X106550000Y-128400000D01*
X106550000Y-127200000D01*
G37*
X106550000Y-129350000D02*
X105600000Y-129350000D01*
X105600000Y-130550000D01*
X106550000Y-130550000D01*
X106550000Y-129350000D01*
G36*
X106550000Y-129350000D02*
G01*
X105600000Y-129350000D01*
X105600000Y-130550000D01*
X106550000Y-130550000D01*
X106550000Y-129350000D01*
G37*
X106550000Y-131625000D02*
X105600000Y-131625000D01*
X105600000Y-132825000D01*
X106550000Y-132825000D01*
X106550000Y-131625000D01*
G36*
X106550000Y-131625000D02*
G01*
X105600000Y-131625000D01*
X105600000Y-132825000D01*
X106550000Y-132825000D01*
X106550000Y-131625000D01*
G37*
D11*
G36*
X127644999Y-56725000D02*
G01*
X127644999Y-57575000D01*
X127595000Y-57625000D01*
X125905000Y-57625000D01*
X125855001Y-57575000D01*
X125855001Y-56725000D01*
X125905000Y-56675000D01*
X127595000Y-56675000D01*
X127644999Y-56725000D01*
G37*
D10*
X100580000Y-143202500D02*
X99470000Y-143202500D01*
X99470000Y-144402500D01*
X100580000Y-144402500D01*
X100580000Y-143202500D01*
G36*
X100580000Y-143202500D02*
G01*
X99470000Y-143202500D01*
X99470000Y-144402500D01*
X100580000Y-144402500D01*
X100580000Y-143202500D01*
G37*
X100580000Y-147627500D02*
X99460000Y-147627500D01*
X99460000Y-148827500D01*
X100580000Y-148827500D01*
X100580000Y-147627500D01*
G36*
X100580000Y-147627500D02*
G01*
X99460000Y-147627500D01*
X99460000Y-148827500D01*
X100580000Y-148827500D01*
X100580000Y-147627500D01*
G37*
X100585000Y-145350000D02*
X99475000Y-145350000D01*
X99475000Y-146550000D01*
X100585000Y-146550000D01*
X100585000Y-145350000D01*
G36*
X100585000Y-145350000D02*
G01*
X99475000Y-145350000D01*
X99475000Y-146550000D01*
X100585000Y-146550000D01*
X100585000Y-145350000D01*
G37*
X102600000Y-143200000D02*
X101650000Y-143200000D01*
X101650000Y-144400000D01*
X102600000Y-144400000D01*
X102600000Y-143200000D01*
G36*
X102600000Y-143200000D02*
G01*
X101650000Y-143200000D01*
X101650000Y-144400000D01*
X102600000Y-144400000D01*
X102600000Y-143200000D01*
G37*
X102600000Y-145350000D02*
X101650000Y-145350000D01*
X101650000Y-146550000D01*
X102600000Y-146550000D01*
X102600000Y-145350000D01*
G36*
X102600000Y-145350000D02*
G01*
X101650000Y-145350000D01*
X101650000Y-146550000D01*
X102600000Y-146550000D01*
X102600000Y-145350000D01*
G37*
X102600000Y-147625000D02*
X101650000Y-147625000D01*
X101650000Y-148825000D01*
X102600000Y-148825000D01*
X102600000Y-147625000D01*
G36*
X102600000Y-147625000D02*
G01*
X101650000Y-147625000D01*
X101650000Y-148825000D01*
X102600000Y-148825000D01*
X102600000Y-147625000D01*
G37*
X104575000Y-147625000D02*
X103625000Y-147625000D01*
X103625000Y-148825000D01*
X104575000Y-148825000D01*
X104575000Y-147625000D01*
G36*
X104575000Y-147625000D02*
G01*
X103625000Y-147625000D01*
X103625000Y-148825000D01*
X104575000Y-148825000D01*
X104575000Y-147625000D01*
G37*
X104580000Y-143210000D02*
X103630000Y-143210000D01*
X103630000Y-144410000D01*
X104580000Y-144410000D01*
X104580000Y-143210000D01*
G36*
X104580000Y-143210000D02*
G01*
X103630000Y-143210000D01*
X103630000Y-144410000D01*
X104580000Y-144410000D01*
X104580000Y-143210000D01*
G37*
X104580000Y-145360000D02*
X103630000Y-145360000D01*
X103630000Y-146560000D01*
X104580000Y-146560000D01*
X104580000Y-145360000D01*
G36*
X104580000Y-145360000D02*
G01*
X103630000Y-145360000D01*
X103630000Y-146560000D01*
X104580000Y-146560000D01*
X104580000Y-145360000D01*
G37*
X106550000Y-143200000D02*
X105600000Y-143200000D01*
X105600000Y-144400000D01*
X106550000Y-144400000D01*
X106550000Y-143200000D01*
G36*
X106550000Y-143200000D02*
G01*
X105600000Y-143200000D01*
X105600000Y-144400000D01*
X106550000Y-144400000D01*
X106550000Y-143200000D01*
G37*
X106550000Y-145350000D02*
X105600000Y-145350000D01*
X105600000Y-146550000D01*
X106550000Y-146550000D01*
X106550000Y-145350000D01*
G36*
X106550000Y-145350000D02*
G01*
X105600000Y-145350000D01*
X105600000Y-146550000D01*
X106550000Y-146550000D01*
X106550000Y-145350000D01*
G37*
X106550000Y-147625000D02*
X105600000Y-147625000D01*
X105600000Y-148825000D01*
X106550000Y-148825000D01*
X106550000Y-147625000D01*
G36*
X106550000Y-147625000D02*
G01*
X105600000Y-147625000D01*
X105600000Y-148825000D01*
X106550000Y-148825000D01*
X106550000Y-147625000D01*
G37*
G36*
X79175000Y-53697500D02*
G01*
X80425000Y-53697500D01*
X80425000Y-54692500D01*
X79175000Y-54692500D01*
X79175000Y-53697500D01*
G37*
G36*
X79175000Y-54992500D02*
G01*
X80425000Y-54992500D01*
X80425000Y-55987500D01*
X79175000Y-55987500D01*
X79175000Y-54992500D01*
G37*
G36*
X79175000Y-56287500D02*
G01*
X80425000Y-56287500D01*
X80425000Y-57282500D01*
X79175000Y-57282500D01*
X79175000Y-56287500D01*
G37*
G36*
X79175000Y-57582500D02*
G01*
X80425000Y-57582500D01*
X80425000Y-58577500D01*
X79175000Y-58577500D01*
X79175000Y-57582500D01*
G37*
G36*
X79315000Y-58877500D02*
G01*
X79565000Y-58877500D01*
X79565000Y-59188500D01*
X79315000Y-59188500D01*
X79315000Y-58877500D01*
G37*
G36*
X79325000Y-53086500D02*
G01*
X79575000Y-53086500D01*
X79575000Y-53397500D01*
X79325000Y-53397500D01*
X79325000Y-53086500D01*
G37*
G36*
X80725000Y-54992500D02*
G01*
X81975000Y-54992500D01*
X81975000Y-55987500D01*
X80725000Y-55987500D01*
X80725000Y-54992500D01*
G37*
G36*
X80725000Y-56287500D02*
G01*
X81975000Y-56287500D01*
X81975000Y-57282500D01*
X80725000Y-57282500D01*
X80725000Y-56287500D01*
G37*
G36*
X80725000Y-57582500D02*
G01*
X81975000Y-57582500D01*
X81975000Y-58577500D01*
X80725000Y-58577500D01*
X80725000Y-57582500D01*
G37*
G36*
X80735000Y-53697500D02*
G01*
X81985000Y-53697500D01*
X81985000Y-54692500D01*
X80735000Y-54692500D01*
X80735000Y-53697500D01*
G37*
G36*
X81575000Y-53086500D02*
G01*
X81825000Y-53086500D01*
X81825000Y-53397500D01*
X81575000Y-53397500D01*
X81575000Y-53086500D01*
G37*
G36*
X81575000Y-58877500D02*
G01*
X81825000Y-58877500D01*
X81825000Y-59188500D01*
X81575000Y-59188500D01*
X81575000Y-58877500D01*
G37*
G36*
X79155000Y-75107500D02*
G01*
X80405000Y-75107500D01*
X80405000Y-76102500D01*
X79155000Y-76102500D01*
X79155000Y-75107500D01*
G37*
G36*
X79155000Y-76402500D02*
G01*
X80405000Y-76402500D01*
X80405000Y-77397500D01*
X79155000Y-77397500D01*
X79155000Y-76402500D01*
G37*
G36*
X79155000Y-77697500D02*
G01*
X80405000Y-77697500D01*
X80405000Y-78692500D01*
X79155000Y-78692500D01*
X79155000Y-77697500D01*
G37*
G36*
X79155000Y-78992500D02*
G01*
X80405000Y-78992500D01*
X80405000Y-79987500D01*
X79155000Y-79987500D01*
X79155000Y-78992500D01*
G37*
G36*
X79295000Y-80287500D02*
G01*
X79545000Y-80287500D01*
X79545000Y-80598500D01*
X79295000Y-80598500D01*
X79295000Y-80287500D01*
G37*
G36*
X79305000Y-74496500D02*
G01*
X79555000Y-74496500D01*
X79555000Y-74807500D01*
X79305000Y-74807500D01*
X79305000Y-74496500D01*
G37*
G36*
X80705000Y-76402500D02*
G01*
X81955000Y-76402500D01*
X81955000Y-77397500D01*
X80705000Y-77397500D01*
X80705000Y-76402500D01*
G37*
G36*
X80705000Y-77697500D02*
G01*
X81955000Y-77697500D01*
X81955000Y-78692500D01*
X80705000Y-78692500D01*
X80705000Y-77697500D01*
G37*
G36*
X80705000Y-78992500D02*
G01*
X81955000Y-78992500D01*
X81955000Y-79987500D01*
X80705000Y-79987500D01*
X80705000Y-78992500D01*
G37*
G36*
X80715000Y-75107500D02*
G01*
X81965000Y-75107500D01*
X81965000Y-76102500D01*
X80715000Y-76102500D01*
X80715000Y-75107500D01*
G37*
G36*
X81555000Y-74496500D02*
G01*
X81805000Y-74496500D01*
X81805000Y-74807500D01*
X81555000Y-74807500D01*
X81555000Y-74496500D01*
G37*
G36*
X81555000Y-80287500D02*
G01*
X81805000Y-80287500D01*
X81805000Y-80598500D01*
X81555000Y-80598500D01*
X81555000Y-80287500D01*
G37*
D12*
X72000000Y-73575000D03*
X72000000Y-72025000D03*
D13*
X73570000Y-68310000D03*
X73570000Y-69860000D03*
D14*
X81250000Y-29690000D03*
X81250000Y-30710000D03*
D15*
X96020000Y-38800000D03*
X96980000Y-38800000D03*
D16*
X133130000Y-59400000D03*
X132170000Y-59400000D03*
D17*
X90500000Y-126084000D03*
X90000000Y-126084000D03*
X89500000Y-126084000D03*
X89000000Y-126084000D03*
X88500000Y-126084000D03*
X88000000Y-126084000D03*
X87500000Y-126084000D03*
X87000000Y-126084000D03*
X86500000Y-126084000D03*
X86000000Y-126084000D03*
X85500000Y-126084000D03*
X85000000Y-126084000D03*
X84500000Y-126084000D03*
X84000000Y-126084000D03*
X83500000Y-126084000D03*
X83500000Y-133916000D03*
X84000000Y-133916000D03*
X84500000Y-133916000D03*
X85000000Y-133916000D03*
X85500000Y-133916000D03*
X86000000Y-133916000D03*
X86500000Y-133916000D03*
X87000000Y-133916000D03*
X87500000Y-133916000D03*
X88000000Y-133916000D03*
X88500000Y-133916000D03*
X89000000Y-133916000D03*
X89500000Y-133916000D03*
X90000000Y-133916000D03*
X90500000Y-133916000D03*
D14*
X80250000Y-29690000D03*
X80250000Y-30710000D03*
X92400000Y-33290000D03*
X92400000Y-34310000D03*
D13*
X74800000Y-57525000D03*
X74800000Y-59075000D03*
D18*
X124250000Y-57020000D03*
X124250000Y-57980000D03*
D19*
X82587500Y-62800000D03*
X84412500Y-62800000D03*
D13*
X75100000Y-77750000D03*
X75100000Y-79300000D03*
D20*
X103800000Y-56525000D03*
X103800000Y-59475000D03*
D21*
X89900000Y-32560000D03*
X89900000Y-31540000D03*
D16*
X137180000Y-53500000D03*
X136220000Y-53500000D03*
D22*
X62750000Y-69250000D03*
X56250000Y-69250000D03*
D21*
X93500000Y-44060000D03*
X93500000Y-43040000D03*
D12*
X76470000Y-73575000D03*
X76470000Y-72025000D03*
D23*
X88306250Y-40225000D03*
D24*
X89093750Y-40225000D03*
X90093750Y-40225000D03*
X91093750Y-40225000D03*
D25*
X91881250Y-40225000D03*
D26*
X88306250Y-39437500D03*
D27*
X89093750Y-39437500D03*
X90093750Y-39437500D03*
X91093750Y-39437500D03*
D28*
X91881250Y-39437500D03*
D26*
X88306250Y-38437500D03*
D27*
X89093750Y-38437500D03*
X90093750Y-38437500D03*
X91093750Y-38437500D03*
D28*
X91881250Y-38437500D03*
D26*
X88306250Y-37437500D03*
D27*
X89093750Y-37437500D03*
X90093750Y-37437500D03*
X91093750Y-37437500D03*
D28*
X91881250Y-37437500D03*
D29*
X88306250Y-36650000D03*
D30*
X89093750Y-36650000D03*
X90093750Y-36650000D03*
X91093750Y-36650000D03*
D31*
X91881250Y-36650000D03*
D32*
X87843750Y-41375000D03*
X88343750Y-41375000D03*
X88843750Y-41375000D03*
X89343750Y-41375000D03*
X89843750Y-41375000D03*
X90343750Y-41375000D03*
X90843750Y-41375000D03*
X91343750Y-41375000D03*
X91843750Y-41375000D03*
X92343750Y-41375000D03*
D33*
X93031250Y-40687500D03*
X93031250Y-40187500D03*
X93031250Y-39687500D03*
X93031250Y-39187500D03*
X93031250Y-38687500D03*
X93031250Y-38187500D03*
X93031250Y-37687500D03*
X93031250Y-37187500D03*
X93031250Y-36687500D03*
X93031250Y-36187500D03*
D32*
X92343750Y-35500000D03*
X91843750Y-35500000D03*
X91343750Y-35500000D03*
X90843750Y-35500000D03*
X90343750Y-35500000D03*
X89843750Y-35500000D03*
X89343750Y-35500000D03*
X88843750Y-35500000D03*
X88343750Y-35500000D03*
X87843750Y-35500000D03*
D33*
X87156250Y-36187500D03*
X87156250Y-36687500D03*
X87156250Y-37187500D03*
X87156250Y-37687500D03*
X87156250Y-38187500D03*
X87156250Y-38687500D03*
X87156250Y-39187500D03*
X87156250Y-39687500D03*
X87156250Y-40187500D03*
X87156250Y-40687500D03*
D20*
X106100000Y-56525000D03*
X106100000Y-59475000D03*
D13*
X73325000Y-57525000D03*
X73325000Y-59075000D03*
D15*
X80420000Y-36900000D03*
X81380000Y-36900000D03*
D34*
X57329500Y-46387501D03*
D35*
X57329500Y-45750126D03*
X57329500Y-45250000D03*
X57329500Y-44749874D03*
D34*
X57329500Y-44112499D03*
X55170500Y-44112499D03*
D35*
X55170500Y-44749874D03*
X55170500Y-45250000D03*
X55170500Y-45750126D03*
D34*
X55170500Y-46387501D03*
D36*
X90125000Y-55200000D03*
X97975000Y-55200000D03*
D20*
X103800000Y-77700000D03*
X103800000Y-80650000D03*
D37*
X88900000Y-32530000D03*
X88900000Y-31570000D03*
D13*
X72070000Y-77750000D03*
X72070000Y-79300000D03*
D12*
X76500000Y-52475000D03*
X76500000Y-50925000D03*
D15*
X83820000Y-30850000D03*
X84780000Y-30850000D03*
D21*
X88550000Y-44260000D03*
X88550000Y-43240000D03*
D16*
X81380000Y-62900000D03*
X80420000Y-62900000D03*
D38*
X106150000Y-64775000D03*
X106150000Y-61825000D03*
D12*
X73030000Y-63085000D03*
X73030000Y-61535000D03*
D39*
X87412500Y-67900000D03*
X85587500Y-67900000D03*
D14*
X97700000Y-31590000D03*
X97700000Y-32610000D03*
D40*
X57250000Y-49275000D03*
X55700000Y-49275000D03*
D20*
X103800000Y-67325000D03*
X103800000Y-70275000D03*
D41*
X69450000Y-48050000D03*
X69450000Y-43750000D03*
D18*
X78480000Y-81420000D03*
X78480000Y-82380000D03*
D16*
X81067500Y-43400000D03*
X80107500Y-43400000D03*
D37*
X76000000Y-58080000D03*
X76000000Y-57120000D03*
D21*
X58500000Y-44210000D03*
X58500000Y-43190000D03*
X138880000Y-55267500D03*
X138880000Y-54247500D03*
D15*
X94970000Y-43750000D03*
X95930000Y-43750000D03*
D16*
X57555000Y-42850000D03*
X56595000Y-42850000D03*
X82380000Y-59900000D03*
X81420000Y-59900000D03*
D13*
X71850000Y-57525000D03*
X71850000Y-59075000D03*
D42*
X83015000Y-69357500D03*
D43*
X83265000Y-69357500D03*
D42*
X83015000Y-68857500D03*
D43*
X83265000Y-68857500D03*
D42*
X83015000Y-68357500D03*
D43*
X83265000Y-68357500D03*
D42*
X83015000Y-67857500D03*
D43*
X83265000Y-67857500D03*
D42*
X83015000Y-67357500D03*
D43*
X83265000Y-67357500D03*
D44*
X82715000Y-65607500D03*
D42*
X83015000Y-64357500D03*
X83015000Y-64857500D03*
X83015000Y-65357500D03*
X83015000Y-65857500D03*
X83015000Y-66357500D03*
X83015000Y-66857500D03*
D43*
X83265000Y-64357500D03*
X83265000Y-64857500D03*
X83265000Y-65357500D03*
X83265000Y-65857500D03*
X83265000Y-66357500D03*
X83265000Y-66857500D03*
X77865000Y-64357500D03*
X77865000Y-64857500D03*
X77865000Y-65357500D03*
X77865000Y-65857500D03*
X77865000Y-66357500D03*
X77865000Y-66857500D03*
D45*
X78115000Y-64357500D03*
X78115000Y-64857500D03*
X78115000Y-65357500D03*
X78115000Y-65857500D03*
X78115000Y-66357500D03*
X78115000Y-66857500D03*
D44*
X78415000Y-65607500D03*
D43*
X77865000Y-67357500D03*
D45*
X78115000Y-67357500D03*
D43*
X77865000Y-67857500D03*
D45*
X78115000Y-67857500D03*
D43*
X77865000Y-68357500D03*
D45*
X78115000Y-68357500D03*
D43*
X77865000Y-68857500D03*
D45*
X78115000Y-68857500D03*
D43*
X77865000Y-69357500D03*
D45*
X78115000Y-69357500D03*
D14*
X95800000Y-31590000D03*
X95800000Y-32610000D03*
D16*
X81680000Y-73700000D03*
X80720000Y-73700000D03*
D21*
X84450000Y-37540000D03*
X84450000Y-36520000D03*
D18*
X89550000Y-43270000D03*
X89550000Y-44230000D03*
X78300000Y-60020000D03*
X78300000Y-60980000D03*
D46*
X137176315Y-55662500D03*
X136226315Y-55662500D03*
X135276315Y-55662500D03*
X135276315Y-57937500D03*
X137176315Y-57937500D03*
D12*
X73500000Y-73575000D03*
X73500000Y-72025000D03*
D16*
X82380000Y-81400000D03*
X81420000Y-81400000D03*
D18*
X84300000Y-56970000D03*
X84300000Y-57930000D03*
D21*
X54000000Y-44735000D03*
X54000000Y-43715000D03*
D20*
X106100000Y-67325000D03*
X106100000Y-70275000D03*
D14*
X93750000Y-33290000D03*
X93750000Y-34310000D03*
D47*
X77925000Y-73700000D03*
X79475000Y-73700000D03*
D48*
X84190000Y-42000000D03*
X85210000Y-42000000D03*
D47*
X77525000Y-63100000D03*
X79075000Y-63100000D03*
D38*
X103700000Y-75575000D03*
X103700000Y-72625000D03*
D18*
X78490000Y-70720000D03*
X78490000Y-71680000D03*
D38*
X101500000Y-54350000D03*
X101500000Y-51400000D03*
D15*
X96020000Y-40800000D03*
X96980000Y-40800000D03*
D39*
X87362500Y-79100000D03*
X85537500Y-79100000D03*
D38*
X101400000Y-75575000D03*
X101400000Y-72625000D03*
X108450000Y-54375000D03*
X108450000Y-51425000D03*
D19*
X82887500Y-73300000D03*
X84712500Y-73300000D03*
D37*
X125250000Y-54980000D03*
X125250000Y-54020000D03*
D49*
X95960000Y-42800000D03*
X94940000Y-42800000D03*
D14*
X85490000Y-36520000D03*
X85490000Y-37540000D03*
D38*
X106050000Y-75575000D03*
X106050000Y-72625000D03*
D13*
X73570000Y-77750000D03*
X73570000Y-79300000D03*
D36*
X90125000Y-76610000D03*
X97975000Y-76610000D03*
D12*
X72000000Y-52475000D03*
X72000000Y-50925000D03*
D17*
X90500000Y-142084000D03*
X90000000Y-142084000D03*
X89500000Y-142084000D03*
X89000000Y-142084000D03*
X88500000Y-142084000D03*
X88000000Y-142084000D03*
X87500000Y-142084000D03*
X87000000Y-142084000D03*
X86500000Y-142084000D03*
X86000000Y-142084000D03*
X85500000Y-142084000D03*
X85000000Y-142084000D03*
X84500000Y-142084000D03*
X84000000Y-142084000D03*
X83500000Y-142084000D03*
X83500000Y-149916000D03*
X84000000Y-149916000D03*
X84500000Y-149916000D03*
X85000000Y-149916000D03*
X85500000Y-149916000D03*
X86000000Y-149916000D03*
X86500000Y-149916000D03*
X87000000Y-149916000D03*
X87500000Y-149916000D03*
X88000000Y-149916000D03*
X88500000Y-149916000D03*
X89000000Y-149916000D03*
X89500000Y-149916000D03*
X90000000Y-149916000D03*
X90500000Y-149916000D03*
D40*
X86275000Y-69850000D03*
X84725000Y-69850000D03*
D20*
X101500000Y-56475000D03*
X101500000Y-59425000D03*
D38*
X103800000Y-64775000D03*
X103800000Y-61825000D03*
D37*
X76300000Y-68080000D03*
X76300000Y-67120000D03*
D40*
X57250000Y-47800000D03*
X55700000Y-47800000D03*
D22*
X62792500Y-59800000D03*
X56292500Y-59800000D03*
D20*
X106100000Y-77700000D03*
X106100000Y-80650000D03*
D50*
X99500000Y-133916000D03*
X100000000Y-133916000D03*
X100500000Y-133916000D03*
X101000000Y-133916000D03*
X101500000Y-133916000D03*
X102000000Y-133916000D03*
X102500000Y-133916000D03*
X103000000Y-133916000D03*
X103500000Y-133916000D03*
X104000000Y-133916000D03*
X104500000Y-133916000D03*
X105000000Y-133916000D03*
X105500000Y-133916000D03*
X106000000Y-133916000D03*
X106500000Y-133916000D03*
X106500000Y-126084000D03*
X106000000Y-126084000D03*
X105500000Y-126084000D03*
X105000000Y-126084000D03*
X104500000Y-126084000D03*
X104000000Y-126084000D03*
X103500000Y-126084000D03*
X103000000Y-126084000D03*
X102500000Y-126084000D03*
X102000000Y-126084000D03*
X101500000Y-126084000D03*
X101000000Y-126084000D03*
X100500000Y-126084000D03*
X100000000Y-126084000D03*
X99500000Y-126084000D03*
D12*
X71500000Y-63075000D03*
X71500000Y-61525000D03*
D16*
X136630000Y-59450000D03*
X135670000Y-59450000D03*
D47*
X78025000Y-52400000D03*
X79575000Y-52400000D03*
D19*
X83337500Y-52000000D03*
X85162500Y-52000000D03*
D38*
X101490000Y-64775000D03*
X101490000Y-61825000D03*
D16*
X82380000Y-70700000D03*
X81420000Y-70700000D03*
D46*
X133676315Y-55696089D03*
X132726315Y-55696089D03*
X131776315Y-55696089D03*
X131776315Y-57971089D03*
X133676315Y-57971089D03*
D51*
X125100001Y-57400000D03*
D52*
X125500000Y-58300000D03*
X125999999Y-58300000D03*
X126500000Y-58300000D03*
X127000000Y-58300000D03*
X127500001Y-58300000D03*
X128000000Y-58300000D03*
D51*
X128399999Y-57400000D03*
X128399999Y-56900000D03*
D52*
X128000000Y-56000000D03*
X127500001Y-56000000D03*
X127000000Y-56000000D03*
X126500000Y-56000000D03*
X125999999Y-56000000D03*
X125500000Y-56000000D03*
D51*
X125100001Y-56900000D03*
D16*
X133680000Y-53400000D03*
X132720000Y-53400000D03*
D21*
X84300000Y-44060000D03*
X84300000Y-43040000D03*
D50*
X99500000Y-149916000D03*
X100000000Y-149916000D03*
X100500000Y-149916000D03*
X101000000Y-149916000D03*
X101500000Y-149916000D03*
X102000000Y-149916000D03*
X102500000Y-149916000D03*
X103000000Y-149916000D03*
X103500000Y-149916000D03*
X104000000Y-149916000D03*
X104500000Y-149916000D03*
X105000000Y-149916000D03*
X105500000Y-149916000D03*
X106000000Y-149916000D03*
X106500000Y-149916000D03*
X106500000Y-142084000D03*
X106000000Y-142084000D03*
X105500000Y-142084000D03*
X105000000Y-142084000D03*
X104500000Y-142084000D03*
X104000000Y-142084000D03*
X103500000Y-142084000D03*
X103000000Y-142084000D03*
X102500000Y-142084000D03*
X102000000Y-142084000D03*
X101500000Y-142084000D03*
X101000000Y-142084000D03*
X100500000Y-142084000D03*
X100000000Y-142084000D03*
X99500000Y-142084000D03*
D18*
X84300000Y-67620000D03*
X84300000Y-68580000D03*
D47*
X52900000Y-42525000D03*
X54450000Y-42525000D03*
D16*
X81980000Y-52000000D03*
X81020000Y-52000000D03*
D18*
X86100000Y-42920000D03*
X86100000Y-43880000D03*
X92500000Y-43070000D03*
X92500000Y-44030000D03*
D37*
X76300000Y-78980000D03*
X76300000Y-78020000D03*
D39*
X87412500Y-57100000D03*
X85587500Y-57100000D03*
D47*
X52900000Y-41050000D03*
X54450000Y-41050000D03*
D16*
X97080000Y-36800000D03*
X96120000Y-36800000D03*
D53*
X79837500Y-41700000D03*
X80337500Y-41700000D03*
X80837500Y-41700000D03*
X81337500Y-41700000D03*
X81337500Y-38600000D03*
X80837500Y-38600000D03*
X80337500Y-38600000D03*
X79837500Y-38600000D03*
D20*
X101480000Y-77700000D03*
X101480000Y-80650000D03*
D54*
X84500000Y-34600000D03*
X84500000Y-34100000D03*
X84500000Y-33600000D03*
X84500000Y-33100000D03*
X84500000Y-32600000D03*
X80275000Y-32600000D03*
X80275000Y-33100000D03*
X80275000Y-33600000D03*
X80275000Y-34100000D03*
X80275000Y-34600000D03*
D55*
X115900000Y-28530000D03*
X112600000Y-28530000D03*
D42*
X83025000Y-58637500D03*
D43*
X83275000Y-58637500D03*
D42*
X83025000Y-58137500D03*
D43*
X83275000Y-58137500D03*
D42*
X83025000Y-57637500D03*
D43*
X83275000Y-57637500D03*
D42*
X83025000Y-57137500D03*
D43*
X83275000Y-57137500D03*
D42*
X83025000Y-56637500D03*
D43*
X83275000Y-56637500D03*
D44*
X82725000Y-54887500D03*
D42*
X83025000Y-53637500D03*
X83025000Y-54137500D03*
X83025000Y-54637500D03*
X83025000Y-55137500D03*
X83025000Y-55637500D03*
X83025000Y-56137500D03*
D43*
X83275000Y-53637500D03*
X83275000Y-54137500D03*
X83275000Y-54637500D03*
X83275000Y-55137500D03*
X83275000Y-55637500D03*
X83275000Y-56137500D03*
X77875000Y-53637500D03*
X77875000Y-54137500D03*
X77875000Y-54637500D03*
X77875000Y-55137500D03*
X77875000Y-55637500D03*
X77875000Y-56137500D03*
D45*
X78125000Y-53637500D03*
X78125000Y-54137500D03*
X78125000Y-54637500D03*
X78125000Y-55137500D03*
X78125000Y-55637500D03*
X78125000Y-56137500D03*
D44*
X78425000Y-54887500D03*
D43*
X77875000Y-56637500D03*
D45*
X78125000Y-56637500D03*
D43*
X77875000Y-57137500D03*
D45*
X78125000Y-57137500D03*
D43*
X77875000Y-57637500D03*
D45*
X78125000Y-57637500D03*
D43*
X77875000Y-58137500D03*
D45*
X78125000Y-58137500D03*
D43*
X77875000Y-58637500D03*
D45*
X78125000Y-58637500D03*
D18*
X84250000Y-78320000D03*
X84250000Y-79280000D03*
D12*
X74970000Y-73575000D03*
X74970000Y-72025000D03*
D42*
X83005000Y-80047500D03*
D43*
X83255000Y-80047500D03*
D42*
X83005000Y-79547500D03*
D43*
X83255000Y-79547500D03*
D42*
X83005000Y-79047500D03*
D43*
X83255000Y-79047500D03*
D42*
X83005000Y-78547500D03*
D43*
X83255000Y-78547500D03*
D42*
X83005000Y-78047500D03*
D43*
X83255000Y-78047500D03*
D44*
X82705000Y-76297500D03*
D42*
X83005000Y-75047500D03*
X83005000Y-75547500D03*
X83005000Y-76047500D03*
X83005000Y-76547500D03*
X83005000Y-77047500D03*
X83005000Y-77547500D03*
D43*
X83255000Y-75047500D03*
X83255000Y-75547500D03*
X83255000Y-76047500D03*
X83255000Y-76547500D03*
X83255000Y-77047500D03*
X83255000Y-77547500D03*
X77855000Y-75047500D03*
X77855000Y-75547500D03*
X77855000Y-76047500D03*
X77855000Y-76547500D03*
X77855000Y-77047500D03*
X77855000Y-77547500D03*
D45*
X78105000Y-75047500D03*
X78105000Y-75547500D03*
X78105000Y-76047500D03*
X78105000Y-76547500D03*
X78105000Y-77047500D03*
X78105000Y-77547500D03*
D44*
X78405000Y-76297500D03*
D43*
X77855000Y-78047500D03*
D45*
X78105000Y-78047500D03*
D43*
X77855000Y-78547500D03*
D45*
X78105000Y-78547500D03*
D43*
X77855000Y-79047500D03*
D45*
X78105000Y-79047500D03*
D43*
X77855000Y-79547500D03*
D45*
X78105000Y-79547500D03*
D43*
X77855000Y-80047500D03*
D45*
X78105000Y-80047500D03*
D38*
X103800000Y-54375000D03*
X103800000Y-51425000D03*
D12*
X75000000Y-52475000D03*
X75000000Y-50925000D03*
D13*
X75100000Y-68300000D03*
X75100000Y-69850000D03*
D12*
X74500000Y-63075000D03*
X74500000Y-61525000D03*
D48*
X101480000Y-37500000D03*
X102500000Y-37500000D03*
D13*
X72070000Y-68310000D03*
X72070000Y-69860000D03*
D12*
X73500000Y-52475000D03*
X73500000Y-50925000D03*
D48*
X101480000Y-38500000D03*
X102500000Y-38500000D03*
D12*
X76000000Y-63075000D03*
X76000000Y-61525000D03*
D40*
X87275000Y-58800000D03*
X85725000Y-58800000D03*
D49*
X130260000Y-56750000D03*
X129240000Y-56750000D03*
D20*
X101490000Y-67350000D03*
X101490000Y-70300000D03*
D38*
X106150000Y-54375000D03*
X106150000Y-51425000D03*
D36*
X90125000Y-65920000D03*
X97975000Y-65920000D03*
M02*
