G04 #@! TF.GenerationSoftware,KiCad,Pcbnew,9.0.7*
G04 #@! TF.CreationDate,2026-01-21T15:48:53+02:00*
G04 #@! TF.ProjectId,nerdqaxe++,6e657264-7161-4786-952b-2b2e6b696361,rev?*
G04 #@! TF.SameCoordinates,Original*
G04 #@! TF.FileFunction,Paste,Bot*
G04 #@! TF.FilePolarity,Positive*
%FSLAX46Y46*%
G04 Gerber Fmt 4.6, Leading zero omitted, Abs format (unit mm)*
G04 Created by KiCad (PCBNEW 9.0.7) date 2026-01-21 15:48:53*
%MOMM*%
%LPD*%
G01*
G04 APERTURE LIST*
G04 Aperture macros list*
%AMRoundRect*
0 Rectangle with rounded corners*
0 $1 Rounding radius*
0 $2 $3 $4 $5 $6 $7 $8 $9 X,Y pos of 4 corners*
0 Add a 4 corners polygon primitive as box body*
4,1,4,$2,$3,$4,$5,$6,$7,$8,$9,$2,$3,0*
0 Add four circle primitives for the rounded corners*
1,1,$1+$1,$2,$3*
1,1,$1+$1,$4,$5*
1,1,$1+$1,$6,$7*
1,1,$1+$1,$8,$9*
0 Add four rect primitives between the rounded corners*
20,1,$1+$1,$2,$3,$4,$5,0*
20,1,$1+$1,$4,$5,$6,$7,0*
20,1,$1+$1,$6,$7,$8,$9,0*
20,1,$1+$1,$8,$9,$2,$3,0*%
G04 Aperture macros list end*
%ADD10RoundRect,0.140000X-0.170000X0.140000X-0.170000X-0.140000X0.170000X-0.140000X0.170000X0.140000X0*%
%ADD11RoundRect,0.140000X0.140000X0.170000X-0.140000X0.170000X-0.140000X-0.170000X0.140000X-0.170000X0*%
%ADD12RoundRect,0.250000X-0.650000X0.325000X-0.650000X-0.325000X0.650000X-0.325000X0.650000X0.325000X0*%
%ADD13RoundRect,0.135000X-0.135000X-0.185000X0.135000X-0.185000X0.135000X0.185000X-0.135000X0.185000X0*%
%ADD14RoundRect,0.225000X0.225000X0.250000X-0.225000X0.250000X-0.225000X-0.250000X0.225000X-0.250000X0*%
%ADD15RoundRect,0.225000X-0.225000X-0.250000X0.225000X-0.250000X0.225000X0.250000X-0.225000X0.250000X0*%
%ADD16RoundRect,0.050000X0.100000X-0.285000X0.100000X0.285000X-0.100000X0.285000X-0.100000X-0.285000X0*%
%ADD17RoundRect,0.135000X0.135000X0.185000X-0.135000X0.185000X-0.135000X-0.185000X0.135000X-0.185000X0*%
%ADD18RoundRect,0.250000X0.650000X-0.325000X0.650000X0.325000X-0.650000X0.325000X-0.650000X-0.325000X0*%
%ADD19RoundRect,0.140000X0.170000X-0.140000X0.170000X0.140000X-0.170000X0.140000X-0.170000X-0.140000X0*%
%ADD20RoundRect,0.135000X-0.185000X0.135000X-0.185000X-0.135000X0.185000X-0.135000X0.185000X0.135000X0*%
%ADD21RoundRect,0.140000X-0.140000X-0.170000X0.140000X-0.170000X0.140000X0.170000X-0.140000X0.170000X0*%
%ADD22RoundRect,0.135000X0.185000X-0.135000X0.185000X0.135000X-0.185000X0.135000X-0.185000X-0.135000X0*%
%ADD23R,1.000000X0.900000*%
G04 APERTURE END LIST*
D10*
X92180000Y-142810000D03*
X92180000Y-143770000D03*
D11*
X109180000Y-140200000D03*
X108220000Y-140200000D03*
D12*
X106020000Y-77625000D03*
X106020000Y-80575000D03*
D13*
X86100000Y-140460000D03*
X87120000Y-140460000D03*
D14*
X89365000Y-126880000D03*
X87815000Y-126880000D03*
D15*
X100605000Y-142450000D03*
X102155000Y-142450000D03*
D16*
X108350000Y-130690000D03*
X107850000Y-130690000D03*
X107350000Y-130690000D03*
X107350000Y-129210000D03*
X107850000Y-129210000D03*
X108350000Y-129210000D03*
D17*
X97497500Y-43000000D03*
X96477500Y-43000000D03*
D18*
X106000000Y-64775000D03*
X106000000Y-61825000D03*
X106000000Y-54375000D03*
X106000000Y-51425000D03*
D15*
X100625000Y-146950000D03*
X102175000Y-146950000D03*
D10*
X102860000Y-122660000D03*
X102860000Y-123620000D03*
D19*
X98100000Y-153530000D03*
X98100000Y-152570000D03*
D20*
X104720000Y-137090000D03*
X104720000Y-138110000D03*
D21*
X96320000Y-39200000D03*
X97280000Y-39200000D03*
D10*
X92200000Y-152490000D03*
X92200000Y-153450000D03*
D14*
X89375000Y-142380000D03*
X87825000Y-142380000D03*
D19*
X86890000Y-138075000D03*
X86890000Y-137115000D03*
D12*
X96800000Y-67300000D03*
X96800000Y-70250000D03*
D20*
X103100000Y-152480000D03*
X103100000Y-153500000D03*
D14*
X89325000Y-131350000D03*
X87775000Y-131350000D03*
D10*
X106790000Y-122820000D03*
X106790000Y-123780000D03*
D18*
X99100000Y-75575000D03*
X99100000Y-72625000D03*
D22*
X84900000Y-138120000D03*
X84900000Y-137100000D03*
D14*
X89375000Y-145350000D03*
X87825000Y-145350000D03*
D17*
X85810000Y-134900000D03*
X84790000Y-134900000D03*
D12*
X96700000Y-77700000D03*
X96700000Y-80650000D03*
D15*
X100625000Y-145450000D03*
X102175000Y-145450000D03*
D12*
X99000000Y-77700000D03*
X99000000Y-80650000D03*
D10*
X88870000Y-152490000D03*
X88870000Y-153450000D03*
D12*
X103700000Y-67325000D03*
X103700000Y-70275000D03*
D11*
X81720000Y-126120000D03*
X80760000Y-126120000D03*
D13*
X104160000Y-134890000D03*
X105180000Y-134890000D03*
D21*
X107600000Y-137500000D03*
X108560000Y-137500000D03*
D18*
X99100000Y-64775000D03*
X99100000Y-61825000D03*
D11*
X81880000Y-138030000D03*
X80920000Y-138030000D03*
D12*
X99100000Y-67325000D03*
X99100000Y-70275000D03*
D18*
X101400000Y-75575000D03*
X101400000Y-72625000D03*
X101400000Y-54375000D03*
X101400000Y-51425000D03*
X96800000Y-64775000D03*
X96800000Y-61825000D03*
D10*
X92200000Y-148820000D03*
X92200000Y-149780000D03*
D18*
X101400000Y-64775000D03*
X101400000Y-61825000D03*
D19*
X101150000Y-153380000D03*
X101150000Y-152420000D03*
D18*
X106010000Y-75570000D03*
X106010000Y-72620000D03*
D11*
X109180000Y-151100000D03*
X108220000Y-151100000D03*
D15*
X100625000Y-148420000D03*
X102175000Y-148420000D03*
D12*
X101400000Y-67325000D03*
X101400000Y-70275000D03*
D18*
X99050000Y-54375000D03*
X99050000Y-51425000D03*
D11*
X108830000Y-127400000D03*
X107870000Y-127400000D03*
D19*
X88890000Y-138075000D03*
X88890000Y-137115000D03*
D20*
X85010000Y-152450000D03*
X85010000Y-153470000D03*
D14*
X89375000Y-143850000D03*
X87825000Y-143850000D03*
D21*
X80820000Y-135070000D03*
X81780000Y-135070000D03*
D19*
X99175000Y-153495000D03*
X99175000Y-152535000D03*
D21*
X80720000Y-141020000D03*
X81680000Y-141020000D03*
D10*
X92100000Y-132420000D03*
X92100000Y-133380000D03*
D12*
X99100000Y-57025000D03*
X99100000Y-59975000D03*
D19*
X86800000Y-65980000D03*
X86800000Y-65020000D03*
D22*
X86920000Y-153480000D03*
X86920000Y-152460000D03*
D19*
X90887476Y-123618486D03*
X90887476Y-122658486D03*
D18*
X103700000Y-75575000D03*
X103700000Y-72625000D03*
D14*
X89365000Y-129850000D03*
X87815000Y-129850000D03*
D19*
X102770000Y-138050000D03*
X102770000Y-137090000D03*
D12*
X101350000Y-77700000D03*
X101350000Y-80650000D03*
D19*
X97980000Y-149370000D03*
X97980000Y-148410000D03*
X87100000Y-120480000D03*
X87100000Y-119520000D03*
D18*
X96800000Y-75575000D03*
X96800000Y-72625000D03*
D21*
X108170000Y-126130000D03*
X109130000Y-126130000D03*
D19*
X94500000Y-42480000D03*
X94500000Y-41520000D03*
X97800000Y-133780000D03*
X97800000Y-132820000D03*
D15*
X100625000Y-128300000D03*
X102175000Y-128300000D03*
D20*
X84927476Y-122618486D03*
X84927476Y-123638486D03*
D19*
X88887476Y-123618486D03*
X88887476Y-122658486D03*
D15*
X100625000Y-126800000D03*
X102175000Y-126800000D03*
D19*
X97820000Y-143770000D03*
X97820000Y-142810000D03*
D17*
X103780000Y-140420000D03*
X102760000Y-140420000D03*
D10*
X100850000Y-122660000D03*
X100850000Y-123620000D03*
D23*
X85275000Y-120475000D03*
X83125000Y-120475000D03*
X83125000Y-118925000D03*
X85275000Y-118925000D03*
D12*
X106000000Y-67325000D03*
X106000000Y-70275000D03*
D14*
X89365000Y-128350000D03*
X87815000Y-128350000D03*
D12*
X103700000Y-57025000D03*
X103700000Y-59975000D03*
D11*
X109180000Y-134900000D03*
X108220000Y-134900000D03*
D22*
X83007476Y-123638486D03*
X83007476Y-122618486D03*
D17*
X97497500Y-41100000D03*
X96477500Y-41100000D03*
D18*
X103700000Y-64775000D03*
X103700000Y-61825000D03*
D14*
X89325000Y-132850000D03*
X87775000Y-132850000D03*
D22*
X104820000Y-123660000D03*
X104820000Y-122640000D03*
D21*
X80820000Y-151200000D03*
X81780000Y-151200000D03*
D11*
X82260000Y-153130000D03*
X81300000Y-153130000D03*
X97430000Y-44000000D03*
X96470000Y-44000000D03*
X98180000Y-34970000D03*
X97220000Y-34970000D03*
D15*
X100625000Y-143950000D03*
X102175000Y-143950000D03*
D12*
X101400000Y-57025000D03*
X101400000Y-59975000D03*
D15*
X100605000Y-132770000D03*
X102155000Y-132770000D03*
D19*
X90890000Y-138075000D03*
X90890000Y-137115000D03*
D12*
X106000000Y-57025000D03*
X106000000Y-59975000D03*
D16*
X87800000Y-68340000D03*
X87300000Y-68340000D03*
X86800000Y-68340000D03*
X86800000Y-66860000D03*
X87300000Y-66860000D03*
X87800000Y-66860000D03*
D14*
X89375000Y-148350000D03*
X87825000Y-148350000D03*
D12*
X103700000Y-77625000D03*
X103700000Y-80575000D03*
D21*
X107720000Y-153100000D03*
X108680000Y-153100000D03*
D14*
X89375000Y-146850000D03*
X87825000Y-146850000D03*
D15*
X100625000Y-131300000D03*
X102175000Y-131300000D03*
D19*
X86887476Y-123480000D03*
X86887476Y-122520000D03*
D10*
X90870000Y-152490000D03*
X90870000Y-153450000D03*
D19*
X98830000Y-138060000D03*
X98830000Y-137100000D03*
D12*
X96800000Y-57025000D03*
X96800000Y-59975000D03*
D19*
X97900000Y-127180000D03*
X97900000Y-126220000D03*
D10*
X81030000Y-122660000D03*
X81030000Y-123620000D03*
D18*
X103700000Y-54375000D03*
X103700000Y-51425000D03*
X96750000Y-54350000D03*
X96750000Y-51400000D03*
D10*
X92100000Y-126120000D03*
X92100000Y-127080000D03*
X98890000Y-122660000D03*
X98890000Y-123620000D03*
D19*
X100800000Y-138050000D03*
X100800000Y-137090000D03*
D15*
X100625000Y-129800000D03*
X102175000Y-129800000D03*
M02*
